<?xml version="1.0" encoding="utf-8"?>
<!-- Generator: Adobe Illustrator 27.5.0, SVG Export Plug-In . SVG Version: 6.00 Build 0)  -->
<svg version="1.1" id="Layer_1" xmlns="http://www.w3.org/2000/svg" xmlns:xlink="http://www.w3.org/1999/xlink" x="0px" y="0px"
	 viewBox="0 0 4000 4000" style="enable-background:new 0 0 4000 4000;" xml:space="preserve">
<g>
	<path style="fill:#28DDDD;" d="M0,0v4000h4000V0H0z"/>
	<g>
		<path style="fill:#FFFFFF;" d="M3079.938,2811.619c-7.846,26.377-16.798,51.454-26.714,75.328
			c-198.596,478.874-787.693,468.044-787.693,468.044l-17.954-134.965c18.339-3.128,36.822-6.546,55.401-10.396
			c225.358-46.015,460.535-143.436,557.715-324.608c44.09-82.211,59.829-178.38,53.187-264.153
			c-9.867-127.792-69.456-232.578-159.127-233.829c-56.797-0.77-64.017,65.027-64.835,82.019
			c-4.476,99.201-44.571,155.613-134.579,146.372c-28.109-2.888-60.358-27.388-81.2-67.675
			c-26.281-50.732-34.415-126.541,6.546-215.972C2636.827,1990.715,3273.431,2160.768,3079.938,2811.619z"/>
		<path style="fill:#F9744B;" d="M2847.626,2223.205l18.59-8.867c5.714-2.733,8.776-7.794,9.369-13.098
			c-143.555-67.894-321.819-25.462-393.28,130.633c-38.589,84.253-30.926,155.675-6.167,203.47
			c19.638,37.956,50.018,61.039,76.502,63.758c84.798,8.708,122.572-44.438,126.79-137.898c0.772-16.008,7.573-77.998,61.082-77.274
			c1.64,0.026,3.252,0.15,4.87,0.247c16.49-0.026,32.166,3.519,46.888,10.101c1.794,0.014,3.542-0.031,5.381,0.048
			c1.266,0.006,2.56,0.051,3.905,0.165c1.575,0.054,3.142,0.17,4.76,0.361c0.948,0.02,1.976,0.147,2.974,0.241
			c1.062,0.099,2.123,0.204,3.236,0.377c0.593,0.057,1.22,0.094,1.842,0.19c14.663,1.899,24.557-14.435,15.826-26.379
			c-5.486-7.507-3.758-17.983,3.604-23.364c0.395-0.287,0.778-0.514,1.198-0.764l0.108-0.082l48.395-28.944
			c9.639-5.728,10.964-19.149,2.696-26.711l-42.647-38.767C2834.781,2242.629,2836.881,2228.313,2847.626,2223.205z"/>
		<path style="opacity:0.5;fill:#FFFFFF;" d="M2500.124,2584.553c-0.323-0.605-0.667-1.184-0.986-1.797
			c-26.281-50.732-34.415-126.543,6.546-215.974c99.156-216.587,392.05-227.041,543.097-39.163
			c-141.095-223.413-463.139-225.098-568.097,4.163c-40.961,89.431-32.826,165.242-6.546,215.974
			C2481.577,2562.136,2490.485,2574.463,2500.124,2584.553z"/>
		<path style="opacity:0.3;fill:#000072;" d="M2913.879,2620.869c-9.867-127.792-69.456-232.578-159.127-233.829
			c-56.797-0.77-64.017,65.027-64.835,82.019c-4.476,99.201-44.571,155.613-134.579,146.372
			c-28.109-2.888-60.358-27.388-81.2-67.675c26.232,13.766,56.893,17.665,87.121,15.162c69.359-5.632,83.366-90.442,93.137-179.487
			c11.407-103.774,180.931-110.706,229.642,26.617C2911.136,2486.434,2915.901,2563.254,2913.879,2620.869z"/>
		<path style="opacity:0.3;fill:#000072;" d="M3053.224,2886.947c-198.596,478.874-787.693,468.044-787.693,468.044l-17.954-134.965
			c18.339-3.128,36.822-6.546,55.401-10.396c86.591,20.119,268.196,37.784,498.367-76.483
			C2903.627,3082.415,2987.138,2989.374,3053.224,2886.947z"/>
		<path style="fill:none;stroke:#000072;stroke-width:35.6608;stroke-linecap:round;stroke-miterlimit:10;" d="M2265.51,3355.008
			c0,0,649.333,11.929,814.424-543.395c193.482-650.825-443.13-820.889-599.273-479.848
			c-73.468,160.466,11.165,277.126,74.655,283.651c90.024,9.252,130.111-47.132,134.622-146.342
			c0.774-17.03,8.032-82.815,64.819-82.021c149.895,2.097,215.687,293.36,105.953,497.955
			c-105.187,196.117-372.021,294.065-613.146,335.04"/>
		<path style="fill:#FFFFFF;" d="M2441.167,3306.858c-20.649,22.959-28.784,55.353-51.695,75.328
			c-22.959,20.023-140.596,39.517-208.8,39.517h-572.925l-45.87-384.677l-83.655-701.391l-21.612-181.22l-9.723-81.537h695.086
			c0,0,32.105,86.88,82.981,209.859c47.315,114.412,110.898,260.013,180.065,396.036c62.38,122.643,120.428,241.001,130.729,355.269
			c0,0.048,0,0.096,0,0.096C2544.219,3127.756,2520.635,3218.63,2441.167,3306.858z"/>
		<path style="opacity:0.3;fill:#000072;" d="M2071.123,3053.102v368.601h-463.375l-45.87-384.677l165.817-34.656
			c0,0,52.754,37.832,96.843,35.666c57.182-2.84,113.834-37.928,113.834-37.928L2071.123,3053.102z"/>
		<path style="fill:none;stroke:#000072;stroke-width:35.6608;stroke-linecap:round;stroke-miterlimit:10;" d="M2141.985,2072.874
			c0,0,119.534,323.666,263.047,605.907c113.458,223.135,212.709,432.063,36.142,628.1c-20.667,22.946-28.78,55.323-51.714,75.316
			c-22.934,19.992-140.579,39.529-208.807,39.529h-572.926l-160.82-1348.851H2141.985z"/>
		<path style="fill:#FFFFFF;" d="M2326.538,3229.155c-107.874-11.892-232.736,8.494-248.875,62.856
			c-15.478,52.135-49.199,156.896,207.037,120.371"/>
		<path style="fill:#000072;" d="M2298.221,3228.279c-23.195,2.598-45.982,4.785-68.485,8.142
			c-22.482,3.164-44.7,7.239-66.08,13.044c-10.667,2.947-21.069,6.504-30.861,10.837c-9.742,4.351-18.952,9.534-26.329,15.752
			c-7.426,6.265-12.585,13.203-14.441,20.61c-3.093,11.145-5.896,21.663-7.45,31.958c-1.576,10.242-1.789,20.154-0.018,28.74
			c1.716,8.64,5.552,15.642,11.434,21.448c5.941,5.767,14.073,10.313,23.322,13.599c9.212,3.381,19.439,5.579,29.955,7.021
			c21.116,2.766,43.36,2.927,65.641,1.836c22.317-1.135,44.783-3.667,67.273-6.538l0.065-0.007
			c9.769-1.248,18.699,5.662,19.946,15.43c1.227,9.609-5.463,18.411-14.979,19.883c-23.228,3.569-46.703,6.147-70.512,7.288
			c-23.799,1.128-47.964,1.091-72.594-2.71c-12.304-1.929-24.762-4.719-37.162-9.517c-12.297-4.819-24.797-11.797-35.162-22.483
			c-10.388-10.627-17.413-25.149-19.63-39.275c-2.377-14.187-1.078-27.695,1.296-40.144c2.416-12.468,6.119-24.16,9.634-35.122
			c2.235-7.244,6.071-14.263,10.574-19.932c4.513-5.757,9.727-10.483,15.097-14.534c10.801-8.079,22.325-13.572,33.883-18.035
			c11.589-4.395,23.303-7.676,35.048-10.254c23.481-5.21,47.197-7.324,70.756-7.424c23.564,0.149,47.045,2.224,69.948,7.422
			c0.811,0.186,1.319,0.991,1.135,1.802C2299.381,3227.756,2298.84,3228.21,2298.221,3228.279z"/>
		<path style="opacity:0.3;fill:#000072;" d="M2441.167,3306.858c-20.649,22.959-28.784,55.353-51.695,75.328
			c-22.959,20.023-140.596,39.517-208.8,39.517h-84.04l-9.627-98.769c0,0,153.736,59.974,245.477,0
			c64.546-42.212,26.088-84.088,39.902-112.053c17.761-35.811,121.439,1.973,163.363-176.744
			C2544.219,3127.756,2520.635,3218.63,2441.167,3306.858z"/>
		<path style="fill:#FFFFFF;" d="M1748.199,3000.107c20.553,90.586,54.342,336.208,1.829,408.599
			c-3.225,4.428-8.471,8.808-15.354,12.996c-49.48,30.227-182.279,49.625-228.101-9.626c-7.316-9.482-8.712-19.012-6.69-28.013
			c5.535-25.221,37.592-46.304,39.517-49.865c2.696-4.813-173.519-272.239-190.076-520.075
			c-10.156-152.677,11.841-362.825,31.864-511.074c14.247-105.362,27.484-179.439,27.484-179.439l47.94,30.805l355.412,228.294
			l173.759,111.572l-242.156,487.441C1745.023,2986.775,1746.563,2992.936,1748.199,3000.107z"/>
		<path style="fill:#000072;" d="M1411.354,2124.102c-13.515,170.315-32.014,339.075-43.727,507.942
			c-2.22,42.229-3.578,84.478-2.717,126.543c0.191,10.513,0.602,21.001,0.979,31.489c0.632,10.415,1.002,21.018,1.876,31.248
			c1.669,20.608,4.442,41.194,8.076,61.677c7.277,40.974,17.977,81.504,30.901,121.384c12.973,39.878,28.08,79.177,45.078,117.7
			c16.942,38.552,35.495,76.448,55.269,113.738c9.878,18.657,20.082,37.131,30.604,55.535c5.272,9.314,10.499,18.191,15.976,28.257
			c0.714,1.355,1.39,2.607,2.28,4.519l0.768,1.772c0.316,0.969,0.67,1.267,1.396,4.846c2.26-2.268-2.493,16.492-2.626,13.477
			c-0.625,0.991-1.326,1.948-2.077,2.842c-0.776,0.881-1.202,1.301-1.843,1.951c-1.642,1.57-2.798,2.559-3.85,3.469l-3.047,2.622
			c-3.885,3.337-7.388,6.526-10.677,9.822c-6.442,6.499-11.906,13.56-14.22,19.558c-1.171,2.976-1.673,5.491-1.49,7.471
			c0.151,2.007,0.674,3.833,2.039,6.118c1.168,1.992,4.18,5.574,6.965,8.162c2.896,2.739,6.143,5.239,9.686,7.493
			c7.086,4.507,15.336,8,24.146,10.591c17.686,5.171,37.379,6.934,57.092,6.438c19.752-0.562,39.746-3.274,59.003-8.01
			c9.616-2.373,19.073-5.249,27.997-8.74c8.82-3.464,17.488-7.668,23.633-12.236c1.493-1.113,2.864-2.241,3.779-3.206
			c0.994-1.035,1.164-1.248,2.524-3.289c2.164-3.293,4.184-7.014,5.966-11.067c3.583-8.12,6.488-17.219,8.699-26.729
			c4.51-19.031,6.723-39.434,7.996-59.934c1.214-20.552,1.563-41.382,1.13-62.273c-0.411-20.894-1.501-41.86-3.063-62.822
			l-4.827-63.022l-10.049-126.968l-0.004-0.056c-0.121-1.526,1.019-2.861,2.546-2.983c1.177-0.093,2.242,0.569,2.723,1.572
			c4.708,9.88,8.522,20.063,12.043,30.303c3.492,10.251,6.686,20.583,9.491,30.999c5.881,20.786,10.491,41.843,14.441,63.03
			c7.82,42.4,11.884,85.405,13.878,128.765c0.913,21.689,1.287,43.506,0.251,65.505c-1.109,22.007-3.127,44.175-8.134,66.707
			c-2.509,11.252-5.792,22.642-10.759,34.043c-2.526,5.688-5.555,11.387-9.262,16.978l-1.423,2.09l-0.741,1.067l-1.026,1.328
			c-1.39,1.812-2.781,3.289-4.184,4.722c-2.809,2.852-5.59,5.085-8.363,7.153c-11.073,8.042-21.916,12.891-32.861,17.258
			c-10.931,4.241-21.913,7.534-32.981,10.244c-22.128,5.378-44.6,8.389-67.436,9.001c-22.808,0.437-46.125-1.304-69.35-8.303
			c-11.568-3.545-23.128-8.442-33.963-15.488c-5.406-3.521-10.608-7.585-15.399-12.219c-4.847-4.817-8.952-9.29-13.318-16.406
			c-4.111-6.838-6.952-15.439-7.289-24.084c-0.444-8.689,1.598-16.799,4.403-23.662c5.806-13.809,14.344-23.435,22.786-32.034
			c4.263-4.216,8.688-8.154,12.91-11.724l5.143-4.409c-0.181,0.168-0.133,0.122-0.46,0.51c-0.552,0.627-1.053,1.318-1.479,2.043
			c0.135-3.252-4.651,15.127-2.447,12.544c0.597,2.925,0.713,2.598,0.787,2.949c0.046,0.11,0.038,0.078-0.025-0.063
			c-0.219-0.508-0.773-1.619-1.292-2.625c-4.587-8.708-10.023-18.281-15.127-27.571c-10.338-18.748-20.604-37.646-30.551-56.702
			c-19.888-38.127-38.573-76.943-55.648-116.523c-34.012-79.124-62.78-161.257-78.151-247.197
			c-3.807-21.467-6.735-43.152-8.506-65.015c-0.934-10.999-1.303-21.694-1.957-32.544c-0.391-10.798-0.812-21.602-1.008-32.388
			c-0.681-43.137-0.015-86.125,1.833-129.006c3.102-85.781,10.688-171.189,23.707-255.759c3.212-21.147,6.451-42.28,10.256-63.325
			c3.613-21.072,7.561-42.087,11.788-63.047c8.47-41.919,17.695-83.677,29.135-125.005c0.404-1.46,1.917-2.317,3.377-1.912
			C1410.64,2121.584,1411.457,2122.817,1411.354,2124.102z"/>
		<g style="opacity:0.3;">
			<path style="fill:#000072;" d="M1047.039,2021.523c0.173,0.347,0.39,0.65,0.562,0.996l-0.735-1.212
				C1046.952,2021.394,1046.995,2021.437,1047.039,2021.523z"/>
			<path style="fill:#000072;" d="M1047.601,2022.519l21.339,34.237C1061.582,2045.676,1054.397,2034.336,1047.601,2022.519z"/>
		</g>
		<g style="opacity:0.3;">
			<path style="fill:#000072;" d="M1047.003,2010.507c0.13,0.142,0.26,0.284,0.347,0.379c0.173,0.236,0.346,0.473,0.519,0.709
				L1047.003,2010.507z"/>
			<path style="fill:#000072;" d="M1068.558,2036.953c-7.141-8.185-14.067-16.606-20.69-25.358L1068.558,2036.953z"/>
			<path style="fill:#000072;" d="M2488.125,2036.953l20.646-25.216C2502.192,2020.442,2495.311,2028.816,2488.125,2036.953z"/>
		</g>
		<g style="opacity:0.3;">
			<path style="fill:#000072;" d="M1031.618,2000.909c0.291,0.333,0.582,0.707,0.873,1.039l-1.039-1.164
				C1031.493,2000.826,1031.577,2000.868,1031.618,2000.909z"/>
			<path style="fill:#000072;" d="M1032.491,2001.948l21.24,23.734c-0.083-0.042-0.124-0.125-0.208-0.166
				C1046.249,2017.909,1039.224,2010.053,1032.491,2001.948z"/>
			<g>
				<path style="display:none;fill:#6B184E;" d="M2589.431,1900.655c12.012,24.44,21.822,43.435,16.377,56.279
					c-5.861,13.633-30.052,18.871-60.228,15.753c-16.875-1.704-34.998,11.763-51.125,28.098l-0.956,1.081
					c0.249-0.332,0.54-0.623,0.79-0.956c-7.898,8.022-15.338,16.709-21.905,24.606c-0.083,0.042-0.125,0.125-0.166,0.166
					c-27.101,28.347-57.692,53.494-91.027,75.648c-43.02,27.682-90.445,49.504-140.448,66.545c0,0-234.842,79.264-477.789,79.264
					s-477.789-79.264-477.789-79.264c-50.002-17.042-97.428-38.863-140.448-66.545c-33.335-22.154-63.885-47.301-90.986-75.648
					c-6.609-7.939-14.132-16.751-22.113-24.773c-16.21-16.418-34.332-29.927-51.249-28.223c-30.218,3.117-54.409-2.12-60.228-15.753
					c-5.487-12.844,4.364-31.839,16.376-56.279c0.208-0.416,0.416-0.873,0.623-1.289c11.015,3.616,26.144,4.53,43.228,2.785
					c16.834-1.746,34.956,11.721,51.083,28.056c0.042,0.042,0.125,0.083,0.166,0.125l0.042,0.041
					c7.897,8.022,15.338,16.709,21.863,24.565c0.083,0.083,0.166,0.125,0.208,0.208c27.101,28.306,57.651,53.453,90.986,75.648
					c43.02,27.641,90.445,49.462,140.448,66.504c0,0,234.842,79.264,477.789,79.264s477.789-79.264,477.789-79.264
					c50.003-17.042,97.428-38.863,140.448-66.504c33.335-22.196,63.927-47.343,91.027-75.648l0.249-0.291
					c0.083-0.083,0.166-0.208,0.249-0.291c6.401-7.689,13.634-16.127,21.323-23.941c0.083-0.083,0.166-0.166,0.25-0.249v-0.041
					c0.042-0.042,0.125-0.083,0.166-0.125c16.127-16.293,34.25-29.802,51.125-28.056c17.083,1.746,32.213,0.831,43.228-2.785
					C2589.016,1899.781,2589.224,1900.239,2589.431,1900.655z"/>
				<path style="fill:#000072;" d="M1762.954,2249.869c-240.615,0-476.311-78.613-478.664-79.407
					c-52.463-17.881-99.917-40.366-141.05-66.838c-34.165-22.703-64.934-48.284-91.482-76.055
					c-6.501-7.798-14.094-16.709-22.078-24.734c-19.561-19.817-35.605-28.813-49.038-27.432
					c-33.333,3.445-56.895-3.064-63.013-17.397c-5.757-13.477,3.398-32.075,14.993-55.62l3.132-6.35l2.239,0.737
					c10.586,3.472,25.149,4.395,42.097,2.664c15.154-1.587,32.583,7.864,53.303,28.85c8.542,8.633,16.355,17.834,22.229,24.905
					l0.08,0.066c0,0,0.003,0.002,0.005,0.005l0.396,0.413c26.179,27.278,56.499,52.458,90.127,74.846
					c40.762,26.194,87.815,48.472,139.814,66.191c2.337,0.791,237.217,79.121,476.909,79.121c239.69,0,474.57-78.33,476.914-79.124
					c51.99-17.717,99.043-39.995,139.846-66.213c33.838-22.529,64.309-47.852,90.53-75.239l0.542-0.625
					c5.461-6.58,12.888-15.317,20.774-23.379v-0.01l1.267-1.226c20.452-20.71,37.891-30.154,53.035-28.582
					c16.948,1.731,31.509,0.808,42.094-2.664l2.239-0.737l3.027,6.14c11.636,23.64,20.828,42.312,15.1,55.823
					c-6.167,14.343-29.727,20.847-63.022,17.402c-13.423-1.34-29.429,7.573-48.901,27.302l-0.854,0.972l-0.081-0.063
					c-7.888,8.088-15.332,16.855-20.981,23.65l-0.522,0.52c-26.626,27.803-57.249,53.22-91.258,75.82
					c-41.169,26.494-88.625,48.979-141.079,66.858C2239.263,2171.256,2003.567,2249.869,1762.954,2249.869z M983.282,1969.811
					c14.441,0,30.93,9.583,50.278,29.18c8.125,8.169,15.818,17.195,22.268,24.946c26.147,27.339,56.604,52.661,90.4,75.12
					c40.728,26.208,87.778,48.499,139.817,66.233c2.337,0.789,237.217,79.121,476.909,79.121c239.69,0,474.57-78.333,476.914-79.124
					c52.029-17.729,99.082-40.022,139.846-66.252c33.838-22.488,64.307-47.81,90.53-75.239l0.459-0.527
					c5.852-7.029,13.521-16.025,21.641-24.275l0.029,0.027l0.039-0.044c20.811-21.086,38.286-30.481,53.442-29.006
					c29.885,3.091,52.429-2.449,57.446-14.114c4.746-11.199-3.958-28.879-14.978-51.267l-0.95-1.931
					c-11.05,3.142-25.52,3.901-42.071,2.212c-13.349-1.411-29.38,7.529-48.906,27.258l-0.176,0.178
					c-8.176,8.301-15.72,17.175-21.404,24.004l-0.417,0.476c-26.709,27.925-57.488,53.506-91.694,76.282
					c-41.213,26.479-88.667,48.953-141.082,66.814c-2.361,0.798-238.057,79.412-478.669,79.412
					c-240.615,0-476.311-78.613-478.664-79.407c-52.424-17.866-99.878-40.339-141.047-66.794
					c-34.17-22.749-64.936-48.33-91.484-76.06l-0.334-0.349c-5.808-6.99-13.523-16.077-21.709-24.392
					c-19.688-19.897-35.689-28.811-49.065-27.424c-16.555,1.692-31.028,0.925-42.075-2.209l-1.055,2.141
					c-10.974,22.288-19.641,39.893-14.868,51.064c4.973,11.66,27.532,17.18,57.437,14.109
					C981.141,1969.864,982.205,1969.811,983.282,1969.811z"/>
			</g>
		</g>
		<g>
			<path style="fill:#FFFFFF;" d="M2259.983,2716.504c-0.973,332.143-133.274,611.111-130.424,615.813
				c2.85,4.702,62.35,39.432,35.987,76.5c-49.44,69.518-214.419,40.686-243.433,6.451c-47.315-55.83-41.704-356.504-25.256-426.309"
				/>
		</g>
		<g style="opacity:0.3;">
			<path style="fill:#000072;" d="M2165.559,3408.803c-49.433,69.552-214.432,40.72-243.456,6.45
				c-41.731-49.24-42.26-288.7-30.612-392.571c7.797,147.864,46.441,292.398,70.653,344.926
				c15.482,33.587,132.507,52.343,208.854,12.605C2173.501,3389.213,2172.586,3398.936,2165.559,3408.803z"/>
		</g>
		<g style="opacity:0.3;">
			<path style="fill:#000072;" d="M1750.028,3408.707c-3.225,4.428-8.471,8.808-15.354,12.996
				c-49.48,30.227-182.279,49.625-228.101-9.626c-7.316-9.482-8.712-19.012-6.69-28.013c76.242,34.607,185.985,15.98,200.954-16.461
				c24.211-52.513,39.565-219.63,47.362-367.494C1768.752,3090.693,1802.542,3336.315,1750.028,3408.707z"/>
		</g>
		<g>
			<path style="fill:#000072;" d="M2262.954,2716.511c4.64,29.746,6.436,59.775,6.622,89.79c0.272,15.024-0.372,30.012-0.915,45.022
				c-0.772,14.99-1.986,29.951-3.32,44.907c-5.885,59.773-17.493,118.86-32.723,176.824c-7.614,28.987-15.484,57.891-24.29,86.514
				c-8.581,28.684-17.512,57.271-27.29,85.569c-4.899,14.143-9.833,28.279-14.929,42.341l-15.427,41.736l-1.685,4.792l-0.532,1.711
				c-0.035,0.076-0.024,0.291,0.206-0.959c0.088-0.708,0.086-0.21,0.206-2.153c0.225,0.627,0.17-5.427-2.797-10.405
				c-0.549-0.986-1.454-2.112-2.088-2.742c-0.587-0.615-0.17-0.178,0.371,0.237l1.901,1.504l4.468,3.511
				c6.185,4.919,12.543,10.332,18.542,16.663c5.991,6.311,11.795,13.584,16.388,22.778c4.492,9.109,7.569,21.196,5.391,33.364
				c-1.867,12.004-8.822,22.454-14.44,28.879c-6.016,7.205-13.081,13.242-20.474,18.325c-14.906,10.083-31.146,16.106-47.164,19.995
				c-32.205,7.554-64.183,7.612-95.42,3.782c-15.635-1.985-31.116-5.022-46.488-9.426c-7.687-2.212-15.347-4.788-23.01-7.92
				c-7.675-3.215-15.325-6.792-23.154-12.036c-3.912-2.649-7.891-5.696-11.904-10.085c-3.819-4.346-6.536-8.42-8.79-12.515
				c-4.597-8.176-7.501-16.04-10.083-23.84c-4.988-15.569-8.101-30.808-10.622-45.996c-9.447-60.652-10.214-120.576-8.351-180.413
				c0.61-14.951,1.41-29.88,2.408-44.797c1.124-14.912,2.524-29.8,4.114-44.67c1.709-14.863,3.711-29.7,6.182-44.49
				c2.621-14.768,5.367-29.546,10.107-44.031c0.512-1.565,2.196-2.419,3.761-1.907c1.378,0.452,2.205,1.812,2.033,3.198
				l-0.009,0.071c-1.779,14.468-2.287,29.243-2.67,43.958c-0.408,14.727-0.433,29.482-0.35,44.229
				c0.008,14.744,0.285,29.49,0.688,44.226c0.278,14.731,0.751,29.456,1.411,44.163c1.174,29.409,2.908,58.76,5.398,87.917
				c2.351,29.138,5.844,58.167,10.947,86.279c2.623,14.001,5.85,27.822,10.209,40.41c2.186,6.221,4.683,12.256,7.51,16.936
				c1.333,2.395,2.943,4.397,4.023,5.603c1.011,1.074,2.919,2.627,5.164,4.092c9.326,6.047,22.468,10.945,35.479,14.541
				c13.176,3.64,26.904,6.208,40.701,7.817c27.537,3.098,55.839,2.939,81.452-3.25c12.753-3.057,24.659-7.83,34.396-14.341
				c4.819-3.291,9.15-6.968,12.655-11.147c4.045-4.709,5.225-7.339,5.788-10.081c0.494-2.539,0.009-5.605-1.915-9.763
				c-2.022-4.102-5.379-8.701-9.594-13.118c-4.182-4.46-9.099-8.743-14.499-13.064l-4.263-3.376l-2.446-1.963
				c-0.896-0.757-1.897-1.516-3.804-3.433c-0.938-0.979-2.126-2.471-2.97-3.816c-3.07-5.186-3.143-11.475-2.895-11.082
				c0.112-2.173,0.171-1.904,0.286-2.842c0.393-2.163,0.646-2.844,0.873-3.657c0.452-1.489,0.826-2.544,1.194-3.572l2.134-5.652
				c11.12-27.944,21.971-54.829,31.82-82.629c9.836-27.673,19.215-55.52,27.575-83.674c8.137-28.218,15.838-56.563,22.354-85.176
				c13.002-57.244,23.86-114.81,33.567-172.634c2.564-14.443,4.822-28.936,7.056-43.45c2.476-14.49,4.39-29.053,6.743-43.608
				c4.356-29.15,8.421-58.423,13.244-87.988c0.266-1.641,1.811-2.754,3.452-2.488
				C2261.779,2714.219,2262.756,2715.264,2262.954,2716.511z"/>
		</g>
		<g>
			<path style="fill:#000072;" d="M2024.449,3334.07c8.479-3.794,16.914-6.863,25.683-9.612c8.74-2.712,17.689-4.954,26.853-6.709
				c9.154-1.824,18.573-2.83,28.195-3.337c9.633-0.5,19.51,0.088,29.565,1.387c9.849,1.274,16.802,10.288,15.53,20.139
				c-1.272,9.849-10.288,16.802-20.137,15.53c-1.495-0.193-2.923-0.564-4.266-1.091l-0.247-0.103
				c-7.067-2.815-14.578-5.352-22.543-6.965c-7.945-1.604-16.187-2.864-24.603-3.32c-8.407-0.53-16.964-0.601-25.559-0.178
				c-8.552,0.432-17.322,1.306-25.67,2.725l-0.219,0.039c-2.438,0.413-4.751-1.226-5.165-3.665
				C2021.515,3336.853,2022.63,3334.885,2024.449,3334.07z"/>
		</g>
		<g>
			<path style="fill:#000072;" d="M1640.1,3342.544c-8.154-1.289-16.736-2.031-25.092-2.329c-8.399-0.288-16.754-0.083-24.957,0.576
				c-8.21,0.591-16.252,1.904-24.005,3.611c-7.784,1.65-15.122,4.253-22.088,7.034l-0.223,0.088
				c-9.229,3.684-19.697-0.811-23.381-10.039c-3.683-9.229,0.811-19.697,10.04-23.381c1.431-0.571,2.983-0.952,4.444-1.143
				c9.774-1.218,19.397-1.885,28.811-1.433c9.407,0.393,18.626,1.326,27.607,3.008c8.988,1.616,17.775,3.718,26.357,6.296
				c8.613,2.615,16.89,5.554,25.227,9.229c2.263,0.999,3.289,3.643,2.291,5.906c-0.837,1.899-2.835,2.927-4.794,2.617
				L1640.1,3342.544z"/>
		</g>
		<g style="opacity:0.3;">
			<g>
				<path style="fill:#000072;" d="M1047.049,2027.632c0.385,0.626,0.722,1.3,1.107,1.926l-1.299-2.118
					C1046.905,2027.488,1047.001,2027.536,1047.049,2027.632z"/>
			</g>
			<g>
				<path style="fill:#000072;" d="M1048.156,2029.558l20.89,33.837c0,0-0.048-0.096-0.096-0.096
					C1061.73,2052.373,1054.798,2041.158,1048.156,2029.558z"/>
			</g>
			<g>
				<path style="fill:#000072;" d="M2141.974,2072.877c0,0,32.105,86.88,82.981,209.859
					c-29.457,12.611-78.697,32.249-139.922,50.828c0,0-90.682,25.703-173.519,39.902c0,0-44.282,6.931-99.49,9.242
					c-10.878,0.433-22.189,0.722-33.645,0.722c-69.696,0-134.194-9.964-134.194-9.964c-68.589-11.744-142.569-31.382-165.962-37.832
					c-4.861-1.3-7.557-2.07-7.557-2.07c-33.982-10.301-64.257-20.938-89.479-30.517c14.247-105.362,27.484-179.439,27.484-179.439
					l47.94,30.805l-9.723-81.537H2141.974z"/>
			</g>
			<g>
				<path style="fill:#000072;" d="M2486.653,2063.395l20.89-33.837c-6.642,11.6-13.622,22.815-20.793,33.741
					C2486.701,2063.299,2486.653,2063.395,2486.653,2063.395z"/>
			</g>
			<g>
				<path style="fill:#000072;" d="M2508.842,2027.44l-1.3,2.118c0.385-0.626,0.722-1.3,1.107-1.926
					C2508.698,2027.536,2508.794,2027.488,2508.842,2027.44z"/>
			</g>
		</g>
		<g>
			<path style="fill:#FFFFFF;" d="M1068.958,2045.754c-7.177-8.247-14.175-16.761-20.906-25.542L1068.958,2045.754z"/>
		</g>
		<g>
			<path style="fill:#FFFFFF;" d="M2486.744,2045.754l20.817-25.498C2500.919,2029.038,2493.921,2037.507,2486.744,2045.754z"/>
		</g>
		<g>
			<path style="fill:#FFFFFF;" d="M2681.764,1871.64c-4.012,34.903-75.245,1.828-90.757-5.795c-1.248-0.624-2.585,0.669-2.229,2.184
				c1.426,6.018,5.26,19.569,14.977,41.233c12.036,26.746,21.843,47.474,16.404,61.515c-5.839,14.888-30.044,20.639-60.222,17.251
				c-16.895-1.917-34.992,12.838-51.129,30.668l-0.045,0.044l-0.134,0.134l-1.07,1.382c0.268-0.401,0.58-0.758,0.847-1.159
				c-7.89,8.737-15.29,18.232-21.842,26.835c-27.102,30.98-57.681,58.439-91.024,82.689
				c-43.016,30.223-90.445,54.071-140.459,72.748v-0.357c0,0-68.603,25.319-170.058,48.543c0,0-90.668,19.39-173.535,30.089
				c0,0-63.432,7.533-133.149,7.533c-69.672,0-134.174-7.533-134.174-7.533c-82.823-10.698-173.535-30.089-173.535-30.089
				c-101.411-23.224-170.058-48.543-170.058-48.543v0.357c-50.014-18.677-97.443-42.525-140.459-72.748
				c-33.298-24.25-63.878-51.708-90.98-82.689c-6.642-8.692-14.086-18.232-22.065-27.058c0.312,0.446,0.668,0.892,0.981,1.337
				l-1.203-1.516c0.044,0.044,0.134,0.089,0.178,0.134c-16.181-17.875-34.324-32.719-51.262-30.802
				c-30.178,3.388-54.383-2.363-60.222-17.251c-5.483-14.042,4.368-34.77,16.359-61.515c9.762-21.664,13.596-35.215,15.022-41.233
				c0.312-1.516-0.981-2.808-2.229-2.184c-15.513,7.623-86.745,40.698-90.757,5.795c-2.273-19.346,29.108-77.83,40.029-137.74
				c31.694-173.624,40.876-207.903,40.876-207.903c0.223-1.159,30.936-125.615,76.849-217.264
				c-45.869-122.227-75.913-478.702,0.847-553.144c61.604-59.776,293.266,65.661,380.189,153.431
				c131.455-54.918,335.346-63.164,365.123-63.12c10.252,0,41.099,0.936,82.51,4.458c78.989,6.686,196.402,22.645,282.567,58.662
				c86.923-87.77,318.585-213.207,380.234-153.431c76.76,74.442,46.716,430.917,0.847,553.144
				c29.019,57.904,51.975,128.914,64.947,173.624c7.578,26.077,11.813,43.194,11.902,43.64c0,0,9.138,34.279,40.832,207.903
				C2652.611,1793.81,2683.993,1852.294,2681.764,1871.64z"/>
		</g>
		<g>
			<path style="fill:#F9744B;" d="M2588.957,1514.882c-27.406,3.396-55.323,5.118-83.613,5.118
				c-369.813,0-670.391-296.53-676.905-664.808c82.449,6.979,205.007,23.637,294.948,61.232
				c90.732-91.616,332.543-222.549,396.893-160.153c80.123,77.704,48.762,449.797,0.884,577.38
				C2551.454,1394.092,2575.417,1468.213,2588.957,1514.882z"/>
		</g>
		<g style="opacity:0.5;">
			<path style="fill:#FFFFFF;" d="M928.967,1778.899c31.693-173.623,40.876-207.903,40.876-207.903
				c0.223-1.157,30.936-125.615,76.849-217.263c-45.868-122.227-75.912-478.701,0.847-553.145
				c61.604-59.775,293.266,65.662,380.189,153.43c131.455-54.917,335.345-63.164,365.123-63.118c10.252,0,41.099,0.935,82.51,4.456
				c72.076,6.102,176.147,19.924,259.276,49.661c14.148,5.061,30.019,2.03,41.287-7.911
				c97.332-85.869,304.458-192.542,362.239-136.518c7.008,6.797,13.116,15.967,18.413,27.073
				c-7.521-32.205-18.423-57.534-33.413-72.073c-61.649-59.775-293.311,65.662-380.234,153.43
				c-86.165-36.016-203.579-51.975-282.567-58.662c-41.411-3.521-72.258-4.456-82.51-4.456
				c-29.777-0.046-233.668,8.201-365.123,63.118c-86.923-87.769-318.585-213.206-380.189-153.43
				c-76.76,74.443-46.715,430.918-0.847,553.145c-45.913,91.648-76.626,216.106-76.849,217.263c0,0-9.183,34.28-40.876,207.903
				c-10.921,59.91-42.303,118.396-40.03,137.742c1.318,11.465,9.911,15.566,21.379,15.674
				C904.645,1859.751,921.535,1819.67,928.967,1778.899z"/>
		</g>
		<g style="opacity:0.3;">
			<g>
				<path style="fill:#000072;" d="M1048.204,2020.364l20.745,25.366C1061.778,2037.548,1054.847,2029.125,1048.204,2020.364z"/>
			</g>
			<g>
				<path style="fill:#000072;" d="M2486.749,2045.73l20.745-25.366C2500.852,2029.125,2493.873,2037.548,2486.749,2045.73z"/>
			</g>
			<g>
				<path style="fill:#000072;" d="M2603.76,1909.226c12.033,26.762,21.853,47.507,16.365,61.514
					c-5.824,14.969-30.035,20.649-60.214,17.28c-16.846-1.877-34.944,12.851-51.069,30.661l-0.048,0.048l-0.145,0.144l-0.241,0.289
					c-7.894,8.712-15.306,18.194-21.852,26.762c-27.099,30.949-57.663,58.433-91.019,82.692
					c-42.983,30.228-90.441,54.101-140.451,72.729v-0.337c0,0-68.637,25.318-170.053,48.566c0,0-90.682,19.349-173.519,30.083
					c0,0-63.439,7.509-133.135,7.509s-134.194-7.509-134.194-7.509c-82.837-10.734-173.519-30.083-173.519-30.083
					c-101.464-23.248-170.101-48.566-170.101-48.566v0.337c-50.01-18.628-97.421-42.501-140.451-72.729
					c-33.308-24.259-63.872-51.743-90.971-82.692c-6.546-8.567-13.959-18.05-21.853-26.762c-0.048-0.096-0.144-0.192-0.241-0.289
					l-0.145-0.144c-16.124-17.857-34.222-32.586-51.117-30.709c-30.227,3.369-54.438-2.311-60.262-17.28
					c-5.439-14.006,4.38-34.752,16.413-61.514c0.818-1.781,1.588-3.514,2.262-5.198c10.83,3.465,25.318,4.284,41.586,2.455
					c16.943-1.925,35.089,12.948,51.261,30.805c7.99,8.857,15.499,18.435,22.093,27.099c27.099,30.949,57.663,58.433,90.971,82.692
					c43.031,30.228,90.441,54.101,140.451,72.729v-0.337c0,0,68.637,25.318,170.101,48.566c0,0,90.682,19.349,173.519,30.083
					c0,0,64.498,7.509,134.194,7.509s133.135-7.509,133.135-7.509c82.837-10.734,173.519-30.083,173.519-30.083
					c101.416-23.248,170.053-48.566,170.053-48.566v0.337c50.01-18.628,97.469-42.501,140.451-72.729
					c33.356-24.259,63.92-51.743,91.019-82.692c6.594-8.664,14.103-18.242,22.093-27.099c16.173-17.857,34.319-32.73,51.261-30.805
					c16.221,1.829,30.709,1.011,41.587-2.455C2602.172,1905.712,2602.942,1907.445,2603.76,1909.226z"/>
			</g>
		</g>
		<g style="opacity:0.3;">
			<g>
				<path style="fill:#000072;" d="M1047.049,1937.287c0.385,0.53,0.77,1.059,1.155,1.54l-1.348-1.685
					C1046.905,1937.191,1047.001,1937.239,1047.049,1937.287z"/>
			</g>
			<g>
				<path style="fill:#000072;" d="M1048.204,1938.828l20.745,25.366C1061.778,1955.963,1054.847,1947.588,1048.204,1938.828z"/>
			</g>
			<g>
				<path style="fill:#000072;" d="M2486.749,1964.194l20.745-25.366C2500.852,1947.588,2493.873,1955.963,2486.749,1964.194z"/>
			</g>
			<g>
				<path style="fill:#000072;" d="M2508.649,1937.287c0.048-0.048,0.145-0.096,0.193-0.144l-1.348,1.685
					C2507.879,1938.346,2508.264,1937.817,2508.649,1937.287z"/>
			</g>
		</g>
		<g>
			<path style="fill:#FA508E;" d="M1203.957,1066.327c-60.792,61.706-99.009,147.96-104.448,137.9
				c-0.53-0.962-1.059-2.118-1.589-3.465c-11.6-28.206-30.901-140.067-30.853-239.749c0.048-16.076,0.481-30.276,1.348-42.79
				c2.31-33.789,7.364-55.449,13.573-69.311c7.701-16.943,25.029-22.141,40.384-16.461
				c40.816,15.162,156.768,87.361,194.553,133.665C1323.663,974.345,1264.797,1004.62,1203.957,1066.327z"/>
		</g>
		<g style="opacity:0.2;">
			<path style="fill:#000072;" d="M1203.957,1066.327c-60.792,61.706-99.009,147.96-104.448,137.9
				c-0.53-0.962-1.059-2.118-1.589-3.465c13.525-52.32,50.828-124.616,79.419-176.888c39.084-71.381-14.825-128.081-61.562-145.024
				c-16.028-5.824-35.041,19.157-47.363,39.373c2.31-33.789,7.364-55.449,13.573-69.311c7.701-16.943,25.029-22.141,40.384-16.461
				c40.816,15.162,156.768,87.361,194.553,133.665C1323.663,974.345,1264.797,1004.62,1203.957,1066.327z"/>
		</g>
		<g>
			<path style="fill:#000072;" d="M1100.96,1222.865c-0.303,0-0.61-0.005-0.923-0.017c-6.843-0.225-12.908-4.019-16.221-10.146
				c-13.706-25.356-34.641-148.196-34.56-251.689l0,0c0.041-55.784,5.437-94.844,16.492-119.407
				c11.059-24.394,37.471-35.242,62.813-25.85c41.851,15.51,161.865,89.673,202.2,139.07c3.496,4.285,5.059,9.688,4.399,15.22
				c-1.445,12.141-11.606,19.851-36.155,38.479c-21.797,16.541-51.653,39.192-82.327,70.322
				c-33.735,34.238-60.591,76.89-78.362,105.112C1119.729,1213.478,1113.819,1222.865,1100.96,1222.865z M1115.186,1195.741h0.049
				H1115.186z M1084.915,961.041c-0.059,77.703,12.014,162.073,21.848,206.101c0.461-0.732,0.92-1.462,1.377-2.185
				c18.591-29.526,46.684-74.146,83.137-111.14c32.475-32.956,64.79-57.478,86.172-73.701c5.718-4.341,11.863-9.001,16.577-12.805
				c-42.981-43.704-143.716-105.464-177.861-118.118c-6.084-2.249-13.989-1.577-17.917,7.092
				C1089.446,875.838,1084.954,911.1,1084.915,961.041L1084.915,961.041z"/>
		</g>
		<g>
			<path style="fill:#FA508E;" d="M2346.955,1066.327c60.792,61.706,99.009,147.96,104.448,137.9
				c0.53-0.962,1.059-2.118,1.588-3.465c11.6-28.206,30.901-140.067,30.853-239.749c-0.048-16.076-0.481-30.276-1.348-42.79
				c-2.31-33.789-7.364-55.449-13.573-69.311c-7.701-16.943-25.029-22.141-40.384-16.461
				c-40.816,15.162-156.768,87.361-194.552,133.665C2227.249,974.345,2286.115,1004.62,2346.955,1066.327z"/>
		</g>
		<g style="opacity:0.2;">
			<path style="fill:#000072;" d="M2346.955,1066.327c60.792,61.706,99.009,147.96,104.448,137.9
				c0.53-0.962,1.059-2.118,1.588-3.465c-13.525-52.32-50.828-124.616-79.419-176.888c-39.084-71.381,14.825-128.081,61.562-145.024
				c16.028-5.824,35.04,19.157,47.362,39.373c-2.31-33.789-7.364-55.449-13.573-69.311c-7.701-16.943-25.029-22.141-40.384-16.461
				c-40.816,15.162-156.768,87.361-194.552,133.665C2227.249,974.345,2286.115,1004.62,2346.955,1066.327z"/>
		</g>
		<g>
			<path style="fill:#000072;" d="M2449.952,1222.865c-12.859,0-18.77-9.385-37.356-38.906
				c-17.771-28.223-44.626-70.874-78.362-105.112c-30.674-31.13-60.527-53.782-82.327-70.322
				c-24.548-18.628-34.707-26.338-36.155-38.481c-0.657-5.53,0.906-10.935,4.402-15.217c40.332-49.394,160.344-123.56,202.2-139.07
				c25.344-9.407,51.746,1.458,62.79,25.801c11.074,24.617,16.47,63.674,16.511,119.456l0,0
				c0.08,103.494-20.854,226.333-34.558,251.687c-3.316,6.13-9.38,9.924-16.223,10.149
				C2450.562,1222.86,2450.254,1222.865,2449.952,1222.865z M2256.888,967.31c4.714,3.804,10.859,8.467,16.575,12.805
				c21.384,16.223,53.698,40.745,86.172,73.701c36.453,36.995,64.546,81.614,83.137,111.14c0.456,0.723,0.916,1.453,1.377,2.185
				c9.834-44.028,21.907-128.398,21.848-206.101l0,0c-0.039-49.939-4.531-85.2-13.35-104.805
				c-3.914-8.623-11.816-9.302-17.898-7.043C2400.601,861.847,2299.866,923.607,2256.888,967.31z"/>
		</g>
		<g>
			<g>
				<path style="fill:#000072;" d="M1643.416,2285.547c-29.608-1.506-59.071-4.578-88.427-8.245
					c-29.44-3.706-58.409-8.145-87.953-13.284c-29.296-5.994-58.174-12.329-86.927-20.066
					c-28.832-7.656-57.099-15.815-85.839-25.833l24.562-17.122l0.003,0.347l0.261,26.077l-24.89-8.975
					c-45.303-16.335-89.265-37.38-130.054-63.938c-5.059-3.313-10.145-6.804-15.228-10.347c-5.021-3.687-9.89-7.322-14.664-11.038
					c-9.587-7.441-18.962-15.176-28.094-23.198c-9.136-8.018-17.998-16.362-26.602-24.973c-4.315-4.292-8.526-8.691-12.69-13.135
					l-6.184-6.724l-3.043-3.413l-1.517-1.709l-0.758-0.857l-0.38-0.427l-0.189-0.215l0.836,0.891
					c0.38,0.376,0.779,0.737,1.196,1.082c0.833,0.686,1.733,1.296,2.653,1.807l-4.872-3.994l-22.651-28.059l0.86,1.06l-0.17-0.149
					l28.824-24.36l22.133,27.358l-29.344,23.169c-9.045-11.97-18.126-23.472-27.803-33.276c-4.823-4.832-9.814-9.211-14.664-12.468
					c-4.817-3.296-9.505-5.146-12.344-5.378c-0.352-0.012-0.636,0.076-0.955,0.056l-0.469-0.029l-0.256-0.032l-0.796,0.076
					c-2.129,0.186-4.236,0.425-6.384,0.552c-4.289,0.273-8.614,0.435-13.029,0.342c-8.841-0.234-17.877-0.964-27.611-3.909
					c-4.813-1.396-9.899-3.501-14.995-6.726c-5.043-3.208-10.32-7.903-14.003-14.443c-3.785-6.682-4.948-13.733-5.015-19.717
					c-0.02-6.001,0.927-11.082,2.034-15.757c2.298-9.309,5.477-16.946,8.59-24.409c3.142-7.393,6.406-14.436,9.482-21.292
					c2.994-6.672,5.792-13.386,8.247-20.076c1.231-3.34,2.366-6.677,3.367-9.961l1.371-4.832l0.295-1.165l0.137-0.566l0.069-0.283
					c-0.086,0.303-0.307,1.479-0.352,2.222c-0.303,3.464,0.576,7.373,3.046,10.725c1.248,1.692,2.89,3.245,5.077,4.482
					c2.181,1.243,4.92,2.065,7.755,2.1c2.824,0.071,5.583-0.698,7.491-1.67l-0.688,0.334l-1.375,0.669l-2.745,1.306l-5.504,2.532
					c-3.681,1.653-7.394,3.242-11.149,4.773c-7.521,3.049-15.219,5.852-23.282,8.254c-8.107,2.356-16.516,4.399-26.116,5.234
					c-4.86,0.342-10.061,0.415-16.049-0.645c-5.85-1.067-13.207-3.518-19.482-9.561c-1.522-1.455-2.852-3.201-4.14-4.897
					c-1.097-1.748-2.144-3.601-2.988-5.437c-0.687-1.775-1.367-3.643-1.853-5.427c-0.367-1.694-0.685-3.406-0.952-5.12
					c-0.565-7.437,0.421-12.837,1.397-17.231c2.031-9.055,4.614-16.602,7.203-24.075c5.206-14.9,10.586-28.982,15.427-43.181
					c4.854-14.153,9.244-28.264,12.659-42.385c0.88-3.528,1.7-7.056,2.364-10.579c0.721-3.467,1.436-7.051,2.117-10.906l4.15-22.61
					l17.062-90.405l8.98-45.21l4.727-22.644l2.489-11.377c0.878-3.904,1.664-7.402,2.795-11.87l-0.29,1.272l1.101-4.541l0.92-3.591
					l1.869-7.102l3.858-14.111c2.61-9.387,5.332-18.728,8.126-28.052c5.6-18.64,11.57-37.178,17.901-55.62
					c12.761-36.858,27.052-73.337,44.654-108.894l-0.753,14.25c-7.625-20.757-13.083-41.428-17.875-62.175
					c-4.759-20.74-8.659-41.521-11.989-62.354c-6.706-41.658-11.341-83.491-14.244-125.486
					c-2.853-41.995-4.054-84.146-2.532-126.482c1.646-42.319,5.241-84.873,16.693-127.522c1.34-5.327,3.092-10.652,4.949-15.972
					c1.633-5.325,4.017-10.625,6.225-15.92c1.019-2.651,2.425-5.281,3.814-7.903c1.392-2.625,2.728-5.249,4.195-7.854
					c3.559-5.12,6.427-10.374,11.074-15.181l3.248-3.64l1.655-1.804l2.076-1.743l4.222-3.42c1.405-1.167,2.85-2.224,4.399-3.02
					c3.046-1.655,6.105-3.647,9.233-4.853c3.125-1.179,6.289-2.441,9.431-3.43c12.618-3.608,24.736-4.133,36.423-3.916
					c23.264,0.955,44.908,5.801,65.702,12.07c20.807,6.289,40.842,14.036,60.396,22.615c39.067,17.244,76.288,37.698,112.047,60.564
					c35.655,23.081,70.07,48.066,101.273,78.909l-19.543-3.906c29.879-12.266,60.435-21.445,91.165-29.15
					c30.737-7.752,61.742-13.504,92.81-18.384c31.075-4.846,62.244-8.645,93.487-11.509c15.627-1.377,31.263-2.634,46.944-3.572
					c15.753-0.959,31.207-1.706,47.577-1.894c16.37,0.188,31.824,0.935,47.576,1.894c15.682,0.938,31.317,2.195,46.945,3.572
					c31.243,2.864,62.411,6.663,93.487,11.509c31.068,4.88,62.073,10.632,92.809,18.384c30.73,7.705,61.285,16.885,91.165,29.15
					l-19.543,3.906c31.204-30.842,65.618-55.828,101.274-78.909c35.758-22.866,72.98-43.32,112.047-60.564
					c19.554-8.579,39.588-16.326,60.396-22.615c20.794-6.269,42.438-11.116,65.702-12.07c11.688-0.217,23.805,0.308,36.423,3.916
					c3.143,0.989,6.307,2.251,9.432,3.43c3.127,1.206,6.187,3.198,9.233,4.853c1.548,0.796,2.994,1.853,4.398,3.02l4.222,3.42
					l2.076,1.743l1.655,1.804l3.248,3.64c4.647,4.807,7.515,10.061,11.074,15.181c1.467,2.605,2.802,5.229,4.195,7.854
					c1.389,2.622,2.795,5.251,3.814,7.903c2.209,5.295,4.593,10.596,6.226,15.92c1.857,5.32,3.609,10.645,4.949,15.972
					c11.451,42.649,15.046,85.203,16.692,127.522c1.521,42.336,0.321,84.487-2.533,126.482
					c-2.902,41.995-7.537,83.828-14.243,125.486c-3.33,20.833-7.23,41.614-11.989,62.354c-4.792,20.747-10.25,41.418-17.875,62.175
					l-0.753-14.25c17.602,35.557,31.893,72.036,44.654,108.894c6.33,18.442,12.301,36.98,17.901,55.62
					c2.794,9.324,5.515,18.665,8.126,28.052l3.858,14.111l1.869,7.102l0.92,3.591l1.101,4.541l-0.291-1.272
					c1.131,4.468,1.918,7.966,2.795,11.87l2.489,11.377l4.727,22.644l8.98,45.21l17.062,90.405l4.15,22.61
					c0.681,3.855,1.396,7.439,2.117,10.906c0.664,3.523,1.484,7.051,2.364,10.579c3.416,14.121,7.805,28.232,12.659,42.385
					c4.842,14.199,10.221,28.281,15.427,43.181c2.589,7.473,5.172,15.02,7.203,24.075c0.976,4.395,1.962,9.795,1.397,17.231
					c-0.266,1.714-0.584,3.425-0.951,5.12c-0.487,1.785-1.166,3.652-1.853,5.427c-0.845,1.836-1.891,3.689-2.988,5.437
					c-1.287,1.697-2.618,3.442-4.14,4.897c-6.274,6.042-13.632,8.494-19.481,9.561c-5.989,1.06-11.19,0.986-16.049,0.645
					c-9.601-0.835-18.01-2.878-26.117-5.234c-8.063-2.402-15.762-5.205-23.282-8.254c-3.755-1.531-7.468-3.12-11.149-4.773
					l-5.504-2.532l-2.745-1.306l-1.375-0.669l-0.688-0.334c1.908,0.972,4.667,1.741,7.491,1.67c2.835-0.034,5.574-0.857,7.755-2.1
					c2.187-1.238,3.829-2.791,5.078-4.482c2.471-3.352,3.349-7.261,3.046-10.725c-0.044-0.742-0.266-1.919-0.352-2.222l0.069,0.283
					l0.137,0.566l0.295,1.165l1.371,4.832c1.004,3.281,2.135,6.621,3.354,9.966c2.437,6.697,5.217,13.418,8.193,20.1
					c3.058,6.865,6.304,13.916,9.427,21.313c3.093,7.468,6.251,15.107,8.525,24.404c1.095,4.666,2.029,9.734,1.999,15.708
					c-0.076,5.959-1.245,12.964-5.012,19.595c-3.666,6.494-8.915,11.15-13.935,14.331c-5.072,3.198-10.137,5.286-14.933,6.665
					c-9.698,2.913-18.71,3.623-27.527,3.838c-4.403,0.081-8.717-0.088-12.994-0.371c-2.142-0.132-4.244-0.376-6.368-0.566
					l-0.794-0.076l-0.267,0.027l-0.491,0.024c-0.333,0.017-0.633-0.073-1-0.061c-2.952,0.227-7.719,2.08-12.601,5.371
					c-4.915,3.252-9.957,7.627-14.826,12.454c-9.768,9.788-18.929,21.265-28.043,33.201l-27.984-22.095l22.269-27.249l27.232,23.015
					l-0.171,0.146l0.813-0.999l-22.728,27.893l-4.563,3.738c0.86-0.476,1.701-1.042,2.479-1.685c0.389-0.32,0.763-0.659,1.117-1.011
					l0.78-0.83l-0.189,0.215l-0.379,0.425l-0.758,0.854l-1.516,1.704l-3.039,3.401l-6.176,6.704
					c-4.159,4.429-8.365,8.813-12.675,13.093c-8.593,8.582-17.452,16.887-26.529,24.934c-9.087,8.035-18.418,15.781-27.965,23.242
					c-4.754,3.726-9.602,7.368-14.597,11.06c-5.057,3.547-10.12,7.048-15.16,10.371c-20.276,13.357-41.243,25.608-62.854,36.511
					c-21.581,10.964-43.811,20.52-66.385,28.984l-25.635,9.612l-0.046-27.444l-0.001-0.347l25.617,17.856
					c-14.511,5.247-28.452,9.819-42.742,14.324c-14.263,4.329-28.563,8.457-42.909,12.393c-28.803,7.671-57.548,14.57-86.952,20.398
					c-29.574,5.364-58.585,9.521-88.089,13.027c-29.434,3.32-58.998,5.935-88.724,6.55c-3.3,0.078-6.038-2.534-6.115-5.835
					c-0.067-2.866,1.912-5.31,4.589-5.955l171.026-40.762c27.944-7.385,56.229-15.095,84.059-23.43
					c13.964-4.092,27.866-8.372,41.687-12.83c13.78-4.321,27.822-8.87,40.999-13.591l25.663-9.197l-0.045,27.051l-0.001,0.347
					l-25.68-17.83c42.842-16.104,84.435-35.481,122.594-60.261c4.8-3.105,9.43-6.252,14.026-9.409
					c4.484-3.262,9.064-6.636,13.59-10.122c9.035-6.936,17.859-14.136,26.446-21.597c8.606-7.441,16.883-15.247,24.921-23.274
					c4.033-4.001,7.963-8.101,11.849-12.239l5.77-6.262l2.833-3.171l1.412-1.589l0.706-0.793l0.354-0.398l0.176-0.198l0.871-0.935
					c0.384-0.386,0.788-0.757,1.207-1.113c0.839-0.71,1.74-1.348,2.66-1.892l-4.561,3.738l21.102-25.891l0.813-1.001l0.171-0.146
					l27.232,23.015l-22.269,27.249l-27.984-22.097c9.469-12.366,19.376-24.939,31.236-36.846c6.007-5.925,12.5-11.726,20.342-16.943
					c7.82-5.081,17.295-10.076,29.692-11.179c1.537-0.098,3.156-0.037,4.733-0.01l2.378,0.088l1.168,0.061l0.634,0.059l5.066,0.452
					c3.357,0.217,6.696,0.349,9.946,0.286c6.447-0.125,12.85-0.776,17.82-2.336c5.182-1.389,8.071-4.009,8.056-4.353
					c0.063-0.042,0.389-0.798,0.417-2.466c0.02-1.694-0.347-4.226-1.014-6.992c-1.327-5.598-3.914-12.217-6.703-18.86
					c-2.827-6.704-5.978-13.562-9.15-20.676c-3.25-7.3-6.329-14.727-9.128-22.415c-1.401-3.845-2.729-7.756-3.963-11.792
					c-0.611-2.029-1.204-4.08-1.76-6.211l-0.411-1.619l-0.2-0.828l-0.1-0.415c-0.13-0.537-0.399-1.948-0.465-2.93
					c-0.38-4.417,0.741-9.309,3.785-13.433c1.537-2.07,3.53-3.96,6.136-5.432c2.6-1.475,5.81-2.427,9.124-2.48
					c3.306-0.078,6.533,0.828,8.876,1.995l0.601,0.295l1.206,0.586l2.438,1.16l4.925,2.266c3.3,1.482,6.624,2.903,9.955,4.263
					c6.663,2.703,13.368,5.127,19.974,7.095c6.572,1.938,13.141,3.403,18.807,3.879c2.764,0.21,5.28,0.12,6.828-0.173
					c1.632-0.278,1.725-0.698,0.997-0.007c-0.741,0.759-0.792,1.584-0.575,0.417c-0.142-0.208-0.053-2.473-0.856-5.52
					c-1.301-5.886-3.576-12.893-6.025-19.863c-4.885-14.001-10.425-28.523-15.468-43.298c-5.073-14.8-9.806-29.944-13.59-45.579
					c-0.97-3.899-1.881-7.825-2.642-11.824c-0.834-4.028-1.608-7.952-2.257-11.631l-4.139-22.554l-17-90.076l-8.911-44.866
					l-4.656-22.302l-2.417-11.052l-2.454-10.479l-0.291-1.274l-3.314-12.705l-3.752-13.721c-2.543-9.148-5.202-18.274-7.93-27.378
					c-5.469-18.203-11.296-36.292-17.455-54.236c-12.397-35.84-26.276-71.125-42.826-104.551l-3.439-6.946l2.686-7.307
					c6.719-18.274,11.957-37.864,16.501-57.605c4.541-19.775,8.318-39.873,11.547-60.085c6.509-40.422,11.044-81.304,13.871-122.244
					c2.784-40.935,3.94-82.007,2.471-122.761c-1.513-40.623-5.223-81.516-15.414-119.248c-1.184-4.763-2.698-9.302-4.269-13.796
					c-1.396-4.634-3.345-8.796-5.109-13.103c-0.825-2.217-1.908-4.155-2.957-6.121l-3.116-5.911
					c-2.46-3.332-4.531-7.366-7.276-9.954c-2.661-3.296-4.898-5.056-7.648-6.868c-1.564-0.718-2.801-1.777-4.543-2.39l-5.206-1.907
					c-7.431-2.163-16.307-2.695-25.339-2.512c-18.315,0.73-37.632,4.815-56.572,10.581c-18.989,5.737-37.803,12.986-56.304,21.108
					c-37,16.323-72.867,36.008-107.131,57.927c-34.089,22-67.24,46.306-95.194,73.989l-8.516,8.43l-11.029-4.526
					c-27.56-11.309-56.558-20.066-85.991-27.439c-29.439-7.432-59.514-13.018-89.731-17.761
					c-30.231-4.719-60.688-8.433-91.237-11.233c-15.278-1.345-30.57-2.576-45.86-3.489c-15.212-0.938-30.761-1.658-45.414-1.829
					c-14.653,0.171-30.203,0.891-45.415,1.829c-15.289,0.913-30.582,2.144-45.86,3.489c-30.549,2.8-61.006,6.514-91.237,11.233
					c-30.216,4.744-60.292,10.33-89.731,17.761c-29.433,7.373-58.431,16.13-85.991,27.439l-11.03,4.526l-8.515-8.43
					c-27.954-27.683-61.105-51.99-95.194-73.989c-34.264-21.919-70.131-41.604-107.131-57.927
					c-18.501-8.123-37.315-15.371-56.304-21.108c-18.939-5.767-38.256-9.851-56.571-10.581c-9.032-0.183-17.908,0.349-25.339,2.512
					l-5.206,1.907c-1.741,0.613-2.979,1.672-4.543,2.39c-2.75,1.812-4.988,3.572-7.648,6.868c-2.745,2.588-4.816,6.621-7.276,9.954
					l-3.116,5.911c-1.049,1.965-2.132,3.904-2.958,6.121c-1.763,4.307-3.712,8.469-5.109,13.103
					c-1.57,4.495-3.084,9.033-4.268,13.796c-10.19,37.732-13.901,78.625-15.414,119.248c-1.469,40.754-0.313,81.826,2.471,122.761
					c2.827,40.94,7.362,81.821,13.871,122.244c3.228,20.212,7.006,40.31,11.547,60.085c4.544,19.741,9.783,39.331,16.501,57.605
					l2.686,7.307l-3.439,6.946c-16.551,33.425-30.429,68.711-42.826,104.551c-6.159,17.944-11.986,36.033-17.455,54.236
					c-2.728,9.104-5.387,18.23-7.93,27.378l-3.752,13.721l-3.314,12.705l-0.291,1.274l-2.453,10.479l-2.417,11.052l-4.656,22.302
					l-8.912,44.866l-17,90.076l-4.14,22.554c-0.649,3.679-1.422,7.603-2.257,11.631c-0.762,3.999-1.672,7.925-2.642,11.824
					c-3.785,15.635-8.518,30.779-13.59,45.579c-5.043,14.775-10.582,29.297-15.468,43.298c-2.449,6.97-4.724,13.977-6.025,19.863
					c-0.803,3.047-0.714,5.313-0.856,5.52c0.217,1.167,0.165,0.342-0.576-0.417c-0.728-0.691-0.635-0.271,0.998,0.007
					c1.549,0.293,4.064,0.383,6.828,0.173c5.666-0.476,12.235-1.941,18.807-3.879c6.606-1.968,13.311-4.392,19.974-7.095
					c3.331-1.36,6.655-2.781,9.955-4.263l4.925-2.266l2.437-1.16l1.206-0.586l0.602-0.295c2.344-1.167,5.57-2.073,8.876-1.995
					c3.314,0.054,6.523,1.006,9.124,2.48c2.607,1.472,4.599,3.362,6.136,5.432c3.044,4.124,4.165,9.016,3.785,13.433
					c-0.066,0.981-0.335,2.393-0.465,2.93l-0.099,0.415l-0.2,0.828l-0.411,1.619c-0.557,2.131-1.149,4.182-1.761,6.211
					c-1.236,4.036-2.562,7.947-3.95,11.797c-2.781,7.695-5.842,15.129-9.074,22.439c-3.155,7.124-6.288,13.989-9.095,20.698
					c-2.77,6.648-5.336,13.269-6.638,18.853c-0.655,2.759-1.008,5.278-0.979,6.946c0.038,1.641,0.415,2.344,0.415,2.344
					c-0.052,0.244,2.775,2.822,7.926,4.18c4.935,1.528,11.314,2.158,17.737,2.266c3.237,0.054,6.565-0.088,9.912-0.317l5.049-0.464
					l0.632-0.059l1.178-0.066l2.4-0.093c1.592-0.029,3.227-0.09,4.778,0.005c12.51,1.099,22.063,6.096,29.949,11.169
					c7.907,5.215,14.45,11.011,20.504,16.929c11.952,11.89,21.938,24.441,31.475,36.772l-29.343,23.169l-22.405-27.136l28.824-24.36
					l0.172,0.144l0.861,1.062l21.179,25.723l-4.871-3.989c0.98,0.576,1.94,1.255,2.834,2.012c0.447,0.378,0.877,0.776,1.287,1.187
					l0.927,0.994l0.176,0.198l0.353,0.396l0.705,0.791l1.411,1.584l2.83,3.162l5.762,6.24c3.881,4.124,7.806,8.208,11.833,12.197
					c8.027,8,16.302,15.764,24.849,23.232c8.542,7.476,17.323,14.69,26.317,21.643c4.507,3.494,9.066,6.877,13.522,10.142
					c4.57,3.164,9.177,6.318,13.959,9.436c18.969,12.441,38.671,23.877,59.059,34.099c20.408,10.173,41.318,19.492,62.72,27.72
					l-24.628,17.1l0.003-0.347l0.262-26.172l24.301,9.053c13.145,4.897,27.14,9.597,40.878,14.104
					c13.795,4.583,27.675,8.984,41.619,13.201c27.881,8.269,56.032,16.541,84.085,23.762c28.048,6.97,56.906,13.523,85.425,20.022
					c28.607,6.516,57.287,12.642,86.033,18.789c3.222,0.676,5.287,3.835,4.612,7.058
					C1648.944,2283.721,1646.289,2285.684,1643.416,2285.547z"/>
			</g>
		</g>
		<g>
			<ellipse style="fill:#000072;" cx="1460.754" cy="1685.89" rx="104.028" ry="166.415"/>
		</g>
		<g>
			<ellipse style="fill:#000072;" cx="2089.831" cy="1685.89" rx="104.028" ry="166.415"/>
		</g>
		<g>
			
				<ellipse transform="matrix(0.1602 -0.9871 0.9871 0.1602 -461.6393 2899.4758)" style="fill:#FFFFFF;" cx="1473.143" cy="1721.034" rx="46.034" ry="46.034"/>
		</g>
		<g>
			<circle style="fill:#FFFFFF;" cx="1432.214" cy="1628.261" r="23.55"/>
		</g>
		<g>
			
				<ellipse transform="matrix(0.9871 -0.1602 0.1602 0.9871 -249.286 354.6345)" style="fill:#FFFFFF;" cx="2075.006" cy="1723.534" rx="48.534" ry="48.534"/>
		</g>
		<g>
			<circle style="fill:#FFFFFF;" cx="2123.435" cy="1623.261" r="23.55"/>
		</g>
		<g>
			<g>
				<path style="fill:#000072;" d="M1391.793,1307.23c-7.929-12.3,55.409-148.679,155.161-119.51
					c36.541,10.685,30.55,42.93,9.487,53.187c-20.05,9.763-51.158,9.167-76.886,20.018
					C1429.395,1282.08,1399.723,1319.53,1391.793,1307.23z"/>
			</g>
			<g>
				<path style="fill:#000072;" d="M2164.957,1289.492c7.929-12.3-55.409-148.679-155.161-119.51
					c-36.541,10.685-30.55,42.93-9.487,53.187c20.05,9.763,51.158,9.167,76.886,20.018
					C2127.355,1264.342,2157.027,1301.792,2164.957,1289.492z"/>
			</g>
		</g>
		<g>
			<ellipse style="fill:#F27E80;" cx="2134.604" cy="1916.777" rx="84.045" ry="40.345"/>
		</g>
		<g>
			<ellipse style="fill:#F27E80;" cx="1433.391" cy="1916.777" rx="84.045" ry="40.345"/>
		</g>
		<g>
			<path style="fill:#BC6235;" d="M1713.156,2015.137c-4.179,0.547-4.492-143.225-4.492-143.225s331.246-1.957,350.223,7.689
				c18.976,9.645,30.035,16.527,25.732,52.202c-4.302,35.675-13.994,62.782-32.865,66.088
				c-16.995,2.977-34.136-14.705-45.328-33.594c0,0-34.896,49.359-96.885,51.296c-69.805,2.181-103.412-32.286-103.412-32.286
				S1773.748,2007.212,1713.156,2015.137z"/>
		</g>
		<g>
			
				<ellipse transform="matrix(0.9239 -0.3827 0.3827 0.9239 -606.3515 822.8753)" style="fill:#000072;" cx="1765.258" cy="1935.603" rx="10.035" ry="10.035"/>
		</g>
		<g style="opacity:0.38;">
			<path style="fill:#FFFFFF;" d="M2084.6,1931.8c-0.145,1.299-0.289,2.551-0.481,3.802c-3.369-13.477-12.515-18.676-25.222-25.125
				c-18.675-9.53-340.491-7.749-350.021-7.701c-0.145-18.002-0.192-30.853-0.192-30.853s331.25-1.974,350.214,7.701
				C2077.861,1889.251,2088.932,1896.134,2084.6,1931.8z"/>
		</g>
		<g>
			<path style="fill:#A05C4A;" d="M2084.6,1931.8c-4.284,35.666-13.958,62.765-32.827,66.086
				c-16.991,2.984-34.174-14.68-45.341-33.597c0,0-34.896,49.384-96.891,51.309c-69.793,2.166-103.389-32.297-103.389-32.297
				s-32.394,23.922-92.993,31.816c-4.188,0.578-4.476-143.195-4.476-143.195s0.048,0,0.192,0
				c0.385,42.357,1.444,108.684,4.284,108.684c60.599-7.942,74.178-31.802,92.993-31.864c18.814-0.062,33.597,34.511,103.389,32.297
				c61.995-1.925,83.703-51.149,96.891-51.31c13.188-0.161,28.35,36.581,45.341,33.597c17.761-3.081,27.339-27.243,32.009-59.829
				C2085.755,1910.285,2086.14,1919.286,2084.6,1931.8z"/>
		</g>
		<g>
			<path style="fill:#000072;" d="M1903.24,2033.521c-49.893,0-82.561-17.278-98.496-28.477
				c-15.508,8.53-45.759,22.08-89.275,27.773c-0.003,0-0.005,0-0.01,0c-5.059,0.671-10.378-0.957-14.231-4.336
				c-7.332-6.423-10.073-8.826-10.393-156.531c-0.022-9.822,7.903-17.81,17.725-17.869c153.083-0.906,339.531,0.029,358.406,9.622
				c23.396,11.895,40.857,24.619,35.356,70.232c-2.231,18.496-9.016,74.775-47.493,81.516c-17.039,2.993-34.6-5.22-50.032-22.881
				c-17.825,16.797-49.971,39.446-94.7,40.842C1907.779,2033.485,1905.489,2033.521,1903.24,2033.521z M1713.157,2015.138h0.049
				H1713.157z M1806.136,1965.509c4.67,0,9.307,1.809,12.759,5.349c1.079,1.064,29.837,28.884,90.09,26.912
				c51.943-1.621,82.622-43.408,82.927-43.828c3.513-4.885,9.295-7.739,15.286-7.427c6.011,0.269,11.501,3.516,14.568,8.691
				c11.042,18.645,22.363,25.933,26.909,25.12c4.29-0.75,13.618-12.305,18.242-50.657c2.891-23.97-0.195-26.072-15.132-33.677
				c-20.545-5.044-178.765-6.992-325.22-6.34c0.234,41.064,0.962,82.683,2.029,104.858c43.303-8.767,66.755-25.413,67.017-25.603
				C1798.765,1966.629,1802.461,1965.509,1806.136,1965.509z M2050.816,1895.499c0.056,0.029,0.112,0.056,0.171,0.088
				C2050.928,1895.558,2050.875,1895.528,2050.816,1895.499z"/>
		</g>
		<g>
			<path style="fill:#BAC1C9;" d="M1687.793,2101.757c-48.999,2.262-94.437,2.888-136.505,2.118
				c-11.744-0.193-23.2-0.481-34.367-0.915c-5.102-0.193-10.108-0.385-15.066-0.626c-11.6-0.481-22.959-1.107-33.982-1.829
				c-34.8-2.262-66.857-5.487-96.362-9.386c-11.311-1.54-22.237-3.177-32.826-4.861c-6.931-1.155-13.718-2.31-20.36-3.514
				c-19.012-3.466-36.821-7.172-53.379-11.167c-154.121-36.822-203.843-91.741-203.843-91.741l93.955-67.675
				c21.708-15.595,47.555-24.355,74.269-25.221l110.08-3.466l58.53-1.829l22.093-0.674l35.185-1.107l101.319-3.177l35.185-1.107
				l15.451-0.481l35.185-1.107l66.327-2.07l4.476,143.195C1686.445,2031.146,1687.793,2101.757,1687.793,2101.757z"/>
		</g>
		<g style="opacity:0.38;">
			<path style="fill:#FFFFFF;" d="M1709.597,1901.332l-492.206,15.45c-28.735,0.915-56.556,10.349-79.852,27.147l-64.498,46.448
				c-8.327-6.546-11.937-10.541-11.937-10.541l93.955-67.675c21.708-15.595,47.555-24.355,74.269-25.221l479.355-15.017
				L1709.597,1901.332z"/>
		</g>
		<g>
			<path style="fill:#E0E0E0;" d="M1687.793,2101.757c-495.671,22.767-626.689-121.92-626.689-121.92l53.331-38.41
				c46.641,34.704,201.869,121.439,578.7,109.117C1687.263,2074.899,1687.793,2101.757,1687.793,2101.757z"/>
		</g>
		<defs>
			<filter id="Adobe_OpacityMaskFilter" filterUnits="userSpaceOnUse" x="1264.946" y="1881.646" width="132.991" height="201.099">
				<feFlood  style="flood-color:white;flood-opacity:1" result="back"/>
				<feBlend  in="SourceGraphic" in2="back" mode="normal"/>
			</filter>
		</defs>
		<mask maskUnits="userSpaceOnUse" x="1264.946" y="1881.646" width="132.991" height="201.099" id="SVGID_1_">
			<g style="filter:url(#Adobe_OpacityMaskFilter);">
				<defs>
					
						<filter id="Adobe_OpacityMaskFilter_00000133527976289106612580000002324481649201427607_" filterUnits="userSpaceOnUse" x="1264.946" y="1881.646" width="132.991" height="201.099">
						<feFlood  style="flood-color:white;flood-opacity:1" result="back"/>
						<feBlend  in="SourceGraphic" in2="back" mode="normal"/>
					</filter>
				</defs>
				<mask maskUnits="userSpaceOnUse" x="1264.946" y="1881.646" width="132.991" height="201.099" id="SVGID_1_">
					<g style="filter:url(#Adobe_OpacityMaskFilter_00000133527976289106612580000002324481649201427607_);">
					</g>
				</mask>
				
					<linearGradient id="SVGID_00000010989322827726058910000004789056447481719479_" gradientUnits="userSpaceOnUse" x1="1372.7926" y1="1890.6117" x2="1317.1781" y2="2007.723">
					<stop  offset="0" style="stop-color:#FFFFFF"/>
					<stop  offset="1" style="stop-color:#000000"/>
				</linearGradient>
				<path style="mask:url(#SVGID_1_);fill:url(#SVGID_00000010989322827726058910000004789056447481719479_);" d="
					M1397.937,1881.646l-79.612,201.099c-19.012-3.466-36.821-7.172-53.379-11.167l74.461-188.103L1397.937,1881.646z"/>
			</g>
		</mask>
		
			<linearGradient id="SVGID_00000125567238965243615860000014747018463080593078_" gradientUnits="userSpaceOnUse" x1="1372.7926" y1="1890.6117" x2="1317.1781" y2="2007.723">
			<stop  offset="0" style="stop-color:#FFFFFF"/>
			<stop  offset="1" style="stop-color:#FFFFFF"/>
		</linearGradient>
		<path style="fill:url(#SVGID_00000125567238965243615860000014747018463080593078_);" d="M1397.937,1881.646l-79.612,201.099
			c-19.012-3.466-36.821-7.172-53.379-11.167l74.461-188.103L1397.937,1881.646z"/>
		<defs>
			
				<filter id="Adobe_OpacityMaskFilter_00000085954674900286912880000016091526664017487803_" filterUnits="userSpaceOnUse" x="1338.686" y="1879.865" width="116.529" height="211.255">
				<feFlood  style="flood-color:white;flood-opacity:1" result="back"/>
				<feBlend  in="SourceGraphic" in2="back" mode="normal"/>
			</filter>
		</defs>
		
			<mask maskUnits="userSpaceOnUse" x="1338.686" y="1879.865" width="116.529" height="211.255" id="SVGID_00000163052008958953175180000002772244532496936623_">
			<g style="filter:url(#Adobe_OpacityMaskFilter_00000085954674900286912880000016091526664017487803_);">
				<defs>
					
						<filter id="Adobe_OpacityMaskFilter_00000039816384128478378130000000005724333467913606_" filterUnits="userSpaceOnUse" x="1338.686" y="1879.865" width="116.529" height="211.255">
						<feFlood  style="flood-color:white;flood-opacity:1" result="back"/>
						<feBlend  in="SourceGraphic" in2="back" mode="normal"/>
					</filter>
				</defs>
				
					<mask maskUnits="userSpaceOnUse" x="1338.686" y="1879.865" width="116.529" height="211.255" id="SVGID_00000163052008958953175180000002772244532496936623_">
					<g style="filter:url(#Adobe_OpacityMaskFilter_00000039816384128478378130000000005724333467913606_);">
					</g>
				</mask>
				
					<linearGradient id="SVGID_00000064352032270788716470000006723586186156885378_" gradientUnits="userSpaceOnUse" x1="1431.8005" y1="1910.1761" x2="1374.1176" y2="2031.6431">
					<stop  offset="0" style="stop-color:#FFFFFF"/>
					<stop  offset="1" style="stop-color:#000000"/>
				</linearGradient>
				
					<path style="mask:url(#SVGID_00000163052008958953175180000002772244532496936623_);fill:url(#SVGID_00000064352032270788716470000006723586186156885378_);" d="
					M1455.215,1879.865l-83.703,211.255c-11.311-1.54-22.237-3.177-32.826-4.861l81.344-205.286L1455.215,1879.865z"/>
			</g>
		</mask>
		
			<linearGradient id="SVGID_00000008112345824409541360000000047438783696058762_" gradientUnits="userSpaceOnUse" x1="1431.8005" y1="1910.1761" x2="1374.1176" y2="2031.6431">
			<stop  offset="0" style="stop-color:#FFFFFF"/>
			<stop  offset="1" style="stop-color:#FFFFFF"/>
		</linearGradient>
		<path style="fill:url(#SVGID_00000008112345824409541360000000047438783696058762_);" d="M1455.215,1879.865l-83.703,211.255
			c-11.311-1.54-22.237-3.177-32.826-4.861l81.344-205.286L1455.215,1879.865z"/>
		<defs>
			
				<filter id="Adobe_OpacityMaskFilter_00000035519869504601027410000001331145509732208562_" filterUnits="userSpaceOnUse" x="1467.874" y="1875.581" width="123.846" height="226.754">
				<feFlood  style="flood-color:white;flood-opacity:1" result="back"/>
				<feBlend  in="SourceGraphic" in2="back" mode="normal"/>
			</filter>
		</defs>
		
			<mask maskUnits="userSpaceOnUse" x="1467.874" y="1875.581" width="123.846" height="226.754" id="SVGID_00000039115679372557474610000002123987975515702715_">
			<g style="filter:url(#Adobe_OpacityMaskFilter_00000035519869504601027410000001331145509732208562_);">
				<defs>
					
						<filter id="Adobe_OpacityMaskFilter_00000074435740592995062550000004402732984682930326_" filterUnits="userSpaceOnUse" x="1467.874" y="1875.581" width="123.846" height="226.754">
						<feFlood  style="flood-color:white;flood-opacity:1" result="back"/>
						<feBlend  in="SourceGraphic" in2="back" mode="normal"/>
					</filter>
				</defs>
				
					<mask maskUnits="userSpaceOnUse" x="1467.874" y="1875.581" width="123.846" height="226.754" id="SVGID_00000039115679372557474610000002123987975515702715_">
					<g style="filter:url(#Adobe_OpacityMaskFilter_00000074435740592995062550000004402732984682930326_);">
					</g>
				</mask>
				
					<linearGradient id="SVGID_00000157294216920792703150000015335783641410648459_" gradientUnits="userSpaceOnUse" x1="1554.2748" y1="1936.6997" x2="1491.7419" y2="2068.3794">
					<stop  offset="0" style="stop-color:#FFFFFF"/>
					<stop  offset="1" style="stop-color:#000000"/>
				</linearGradient>
				
					<path style="mask:url(#SVGID_00000039115679372557474610000002123987975515702715_);fill:url(#SVGID_00000157294216920792703150000015335783641410648459_);" d="
					M1591.72,1875.581l-89.864,226.754c-11.6-0.481-22.959-1.107-33.982-1.829l88.66-223.817L1591.72,1875.581z"/>
			</g>
		</mask>
		
			<linearGradient id="SVGID_00000062904683593104346000000000632459090829926298_" gradientUnits="userSpaceOnUse" x1="1554.2748" y1="1936.6997" x2="1491.7419" y2="2068.3794">
			<stop  offset="0" style="stop-color:#FFFFFF"/>
			<stop  offset="1" style="stop-color:#FFFFFF"/>
		</linearGradient>
		<path style="fill:url(#SVGID_00000062904683593104346000000000632459090829926298_);" d="M1591.72,1875.581l-89.864,226.754
			c-11.6-0.481-22.959-1.107-33.982-1.829l88.66-223.817L1591.72,1875.581z"/>
		<defs>
			
				<filter id="Adobe_OpacityMaskFilter_00000020379151020910133500000000696600730510233518_" filterUnits="userSpaceOnUse" x="1516.921" y="1873.993" width="125.434" height="229.882">
				<feFlood  style="flood-color:white;flood-opacity:1" result="back"/>
				<feBlend  in="SourceGraphic" in2="back" mode="normal"/>
			</filter>
		</defs>
		
			<mask maskUnits="userSpaceOnUse" x="1516.921" y="1873.993" width="125.434" height="229.882" id="SVGID_00000136413596845042860510000014854943403907561907_">
			<g style="filter:url(#Adobe_OpacityMaskFilter_00000020379151020910133500000000696600730510233518_);">
				<defs>
					
						<filter id="Adobe_OpacityMaskFilter_00000159435952101783518050000006581839010004000165_" filterUnits="userSpaceOnUse" x="1516.921" y="1873.993" width="125.434" height="229.882">
						<feFlood  style="flood-color:white;flood-opacity:1" result="back"/>
						<feBlend  in="SourceGraphic" in2="back" mode="normal"/>
					</filter>
				</defs>
				
					<mask maskUnits="userSpaceOnUse" x="1516.921" y="1873.993" width="125.434" height="229.882" id="SVGID_00000136413596845042860510000014854943403907561907_">
					<g style="filter:url(#Adobe_OpacityMaskFilter_00000159435952101783518050000006581839010004000165_);">
					</g>
				</mask>
				
					<linearGradient id="SVGID_00000120522775044106213560000002201045825184197254_" gradientUnits="userSpaceOnUse" x1="1599.5389" y1="1946.72" x2="1535.9489" y2="2080.626">
					<stop  offset="0" style="stop-color:#FFFFFF"/>
					<stop  offset="1" style="stop-color:#000000"/>
				</linearGradient>
				
					<path style="mask:url(#SVGID_00000136413596845042860510000014854943403907561907_);fill:url(#SVGID_00000120522775044106213560000002201045825184197254_);" d="
					M1642.355,1873.993l-91.067,229.882c-11.744-0.193-23.2-0.481-34.367-0.915l90.249-227.861L1642.355,1873.993z"/>
			</g>
		</mask>
		
			<linearGradient id="SVGID_00000136401520934566187900000015795912662912073147_" gradientUnits="userSpaceOnUse" x1="1599.5389" y1="1946.72" x2="1535.9489" y2="2080.626">
			<stop  offset="0" style="stop-color:#FFFFFF"/>
			<stop  offset="1" style="stop-color:#FFFFFF"/>
		</linearGradient>
		<path style="fill:url(#SVGID_00000136401520934566187900000015795912662912073147_);" d="M1642.355,1873.993l-91.067,229.882
			c-11.744-0.193-23.2-0.481-34.367-0.915l90.249-227.861L1642.355,1873.993z"/>
		<g>
			<path style="fill:#000072;" d="M1584.739,2122.013c-413.818,0-531.69-124.49-536.86-130.2c-3.408-3.762-5.051-8.799-4.517-13.845
				c0.535-5.049,3.193-9.629,7.315-12.595l93.97-67.656c24.656-17.751,53.738-27.639,84.102-28.591l479.358-15.034
				c9.853-0.249,18.074,7.419,18.381,17.263l4.492,143.225c0.203,6.46-3.105,12.522-8.647,15.847
				c-10.461,6.279-17.212,42.458-16.729,71.001c0.164,9.646-7.373,17.686-17.009,18.13
				C1652.066,2121.234,1617.471,2122.013,1584.739,2122.013z M1090.203,1980.855c46.47,33.362,203.345,118.467,580.12,103.784
				c1.274-22.478,6.299-58.53,24.741-77.632l-3.662-116.714l-461.536,14.475c-23.245,0.728-45.508,8.296-64.385,21.887
				L1090.203,1980.855z"/>
		</g>
		<g>
			<path style="fill:#FFFFFF;" d="M1651.857,1854.092c0,0,22.062,57.872,73.706,44.512c58.79-15.208,51.725-85.315,51.725-85.315"/>
		</g>
		<g>
			<path style="fill:#FFFFFF;" d="M1904.893,1854.092c0,0-22.062,57.872-73.706,44.512c-58.789-15.208-51.725-85.315-51.725-85.315"
				/>
		</g>
		<g>
			<path style="fill:#000072;" d="M1660.187,1850.916c3.755,5.994,8.516,12.651,13.51,17.944
				c5.046,5.408,10.588,9.956,16.428,12.993c5.8,3.169,11.86,4.675,18.09,5.144c3.2-0.288,6.333,0.078,9.624-0.867
				c1.623-0.388,3.267-0.496,4.905-0.962l4.906-1.626c13.112-4.312,22.984-13.457,29.781-25.984
				c3.405-6.23,5.875-13.337,7.653-20.74c1.783-7.283,2.927-15.483,3.335-22.637l0.045-0.789c0.28-4.917,4.494-8.677,9.412-8.396
				c4.227,0.239,7.598,3.394,8.284,7.397c0.875,5.103,1.223,9.39,1.339,14.106c0.148,4.622-0.068,9.253-0.549,13.909
				c-1.033,9.268-2.964,18.728-7.017,27.747c-7.328,18.149-23.682,34.583-42.928,40.945l-7.137,2.437
				c-2.416,0.732-5.022,1.069-7.542,1.536c-4.982,1.157-10.418,0.872-15.66,0.947c-10.709-0.779-21.146-4.556-29.849-10.142
				c-8.702-5.679-15.664-12.993-21.077-20.886c-5.394-8.079-9.442-16.082-12.213-25.725c-1.36-4.736,1.375-9.675,6.11-11.035
				c3.909-1.123,7.958,0.544,10.017,3.826L1660.187,1850.916z"/>
		</g>
		<g>
			<path style="fill:#000072;" d="M1913.223,1857.268c-2.771,9.644-6.819,17.646-12.213,25.725
				c-5.414,7.893-12.375,15.208-21.077,20.886c-8.703,5.586-19.141,9.363-29.849,10.142c-5.241-0.076-10.678,0.21-15.66-0.947
				c-2.52-0.466-5.125-0.803-7.542-1.536l-7.136-2.437c-19.247-6.362-35.599-22.795-42.928-40.945
				c-4.053-9.019-5.984-18.479-7.017-27.747c-0.481-4.656-0.697-9.287-0.549-13.909c0.116-4.717,0.463-9.004,1.339-14.106
				c0.832-4.856,5.443-8.115,10.298-7.285c4.174,0.715,7.169,4.224,7.399,8.279l0.043,0.793c0.408,7.153,1.552,15.354,3.334,22.637
				c1.779,7.402,4.248,14.509,7.653,20.74c6.797,12.527,16.67,21.672,29.781,25.984l4.906,1.626
				c1.638,0.466,3.282,0.574,4.905,0.962c3.291,0.945,6.424,0.579,9.624,0.867c6.23-0.469,12.291-1.975,18.09-5.144
				c5.839-3.037,11.382-7.585,16.428-12.993c4.995-5.293,9.755-11.951,13.51-17.944l0.531-0.847
				c2.615-4.175,8.12-5.437,12.294-2.822C1912.833,1849.407,1914.291,1853.545,1913.223,1857.268z"/>
		</g>
		<g>
			<g>
				<path style="fill:#000072;" d="M1849.19,1776.542c0,16.584-21.634,31.234-41.49,41.189c-20.771,10.413-44.043,10.413-64.814,0
					c-19.857-9.954-41.491-24.605-41.491-41.189C1701.395,1726.52,1849.19,1726.52,1849.19,1776.542z"/>
			</g>
			<g style="opacity:0.5;">
				<path style="fill:#FFFFFF;" d="M1804.593,1766.731c0,4.782-8.578,9.006-16.451,11.876c-8.236,3.002-17.463,3.002-25.699,0
					c-7.873-2.87-16.451-7.094-16.451-11.876C1745.991,1752.308,1804.593,1752.308,1804.593,1766.731z"/>
			</g>
		</g>
		<g style="opacity:0.5;">
			<path style="fill:#FFFFFF;" d="M2680.465,1859.685c-2.613-11.477-8.679-27.559-15.489-46.35
				C2669.755,1829.792,2675.316,1845.503,2680.465,1859.685z"/>
		</g>
		<g style="opacity:0.5;">
			<path style="fill:#FFFFFF;" d="M2541.509,1346.77c-0.828,2.39-1.66,4.727-2.499,6.963c15.461,30.852,29.178,65.4,40.604,97.732
				C2569.757,1420.098,2556.801,1382.651,2541.509,1346.77z"/>
		</g>
		<g style="opacity:0.5;">
			<path style="fill:#FFFFFF;" d="M2603.778,1913.03c1.427,6.018,5.26,19.568,14.978,41.233c0.982,2.183,1.941,4.309,2.887,6.414
				c-0.431-12.871-8.025-29.524-17.104-49.675C2603.957,1911.401,2603.572,1912.153,2603.778,1913.03z"/>
		</g>
		<g style="opacity:0.5;">
			<path style="fill:#FFFFFF;" d="M966.901,1954.263c9.762-21.665,13.596-35.215,15.023-41.233c0.312-1.516-0.981-2.81-2.229-2.185
				c-5.881,2.891-19.774,9.434-34.973,14.551c-8.277,19.06-13.503,34.309-9.179,45.381c2.647,6.748,9.095,11.599,18.134,14.592
				C956.992,1976.147,961.744,1965.764,966.901,1954.263z"/>
		</g>
	</g>
</g>
</svg>
