<?xml version="1.0" encoding="utf-8"?>
<!-- Generator: Adobe Illustrator 27.5.0, SVG Export Plug-In . SVG Version: 6.00 Build 0)  -->
<svg version="1.1" id="Layer_1" xmlns="http://www.w3.org/2000/svg" xmlns:xlink="http://www.w3.org/1999/xlink" x="0px" y="0px"
	 viewBox="0 0 4000 4000" style="enable-background:new 0 0 4000 4000;" xml:space="preserve">
<g>
	<g>
		<rect style="fill:#3D3DAA;" width="4000" height="4000"/>
	</g>
	<g>
		<g>
			<g>
				<path style="fill:#B5CFDD;" d="M2333.535,2307.686c124.673,5.998,203.736-50.153,238.673,71.642
					c5.685,19.819,5.338,48.038,20.865,92.68c36.002,103.507,189.549,127.345,266.879,83.703
					c147.026-82.975-30.57-219.084-30.57-219.084s53.861-371.205-310.025-234.314"/>
				<path style="fill:#000072;" d="M2770.559,2579.068c-28.079,0-57.158-4.98-83.862-15.068
					c-47.715-18.022-81.804-50.4-95.984-91.172c-10.088-28.999-13.489-50.884-16.221-68.462c-1.455-9.37-2.712-17.461-4.688-24.351
					c-24.661-85.952-71.599-81.245-142.651-74.082c-27.62,2.773-58.928,5.938-93.738,4.248c-1.379-0.063-2.444-1.235-2.378-2.617
					c0.068-1.377,1.299-2.52,2.617-2.373c34.446,1.631,65.554-1.475,92.998-4.233c70.923-7.144,122.151-12.28,147.957,77.681
					c2.063,7.188,3.342,15.425,4.824,24.961c2.7,17.378,6.062,39.014,16.001,67.588c13.687,39.346,46.724,70.645,93.027,88.135
					c57.334,21.65,125.754,19.326,170.261-5.791c35.647-20.117,54.758-45.098,56.804-74.253
					c4.839-68.931-86.741-139.956-87.666-140.669c-0.718-0.547-1.084-1.445-0.952-2.339c0.229-1.597,22.136-160.469-63.765-229.565
					c-52.51-42.251-134.233-42.939-242.905-2.051c-1.294,0.503-2.737-0.166-3.22-1.46c-0.488-1.289,0.166-2.734,1.458-3.218
					c110.449-41.558,193.823-40.601,247.815,2.842c83.643,67.295,67.783,216.357,65.754,232.715
					c11.245,8.857,93.252,75.952,88.469,144.097c-2.17,30.933-22.134,57.261-59.336,78.257
					C2836.279,2571.939,2804.138,2579.068,2770.559,2579.068z"/>
			</g>
			<g>
				<path style="fill:#B5CFDD;" d="M2859.961,2555.722c-60.454,34.095-167.507,26.998-228.562-27.223
					c-17.047-15.095-30.49-33.907-38.338-56.474c-15.508-44.646-15.17-72.883-20.84-92.709
					c-34.958-121.772-113.999-65.636-238.7-71.644l185.831-205.356c101.533-38.188,170.548-36.836,217.297-15.02
					c120.72,56.399,92.747,249.326,92.747,249.326S3006.966,2472.738,2859.961,2555.722z"/>
				<path style="fill:#000072;" d="M2769.97,2578.765c-49.292,0-102.551-14.937-140.232-48.398
					c-18.247-16.157-31.382-35.508-39.038-57.52c-10.081-29.019-13.477-50.913-16.206-68.506
					c-1.453-9.365-2.708-17.451-4.675-24.336c-24.673-85.933-71.614-81.206-142.654-74.082c-27.625,2.778-58.943,5.928-93.762,4.243
					c-0.967-0.044-1.819-0.645-2.19-1.538s-0.193-1.919,0.457-2.637l185.83-205.356c0.266-0.293,0.601-0.522,0.974-0.659
					c92.322-34.722,166.082-39.751,219.233-14.946c115.435,53.931,96.577,232.485,94.353,250.498
					c11.243,8.857,93.24,75.962,88.457,144.106c-2.17,30.938-22.131,57.271-59.329,78.267l0,0
					C2837.263,2571.392,2804.594,2578.765,2769.97,2578.765z M2477.19,2297.432c44.966,0,78.228,14.287,97.434,81.196
					c2.056,7.188,3.333,15.415,4.812,24.946c2.698,17.393,6.057,39.038,15.986,67.632c7.371,21.187,20.034,39.834,37.634,55.42
					c62.573,55.571,169.155,58.799,225.676,26.919l0,0c35.642-20.117,54.751-45.103,56.797-74.258
					c4.836-68.94-86.729-139.971-87.654-140.684c-0.718-0.547-1.084-1.445-0.952-2.339c0.276-1.914,26.304-191.743-91.331-246.704
					c-51.785-24.17-124.043-19.16-214.792,14.883l-181.846,200.952c32.354,1.104,61.677-1.831,87.71-4.443
					C2444.829,2299.126,2461.706,2297.432,2477.19,2297.432z M2859.961,2555.723h0.049H2859.961z"/>
			</g>
			<g style="opacity:0.6;">
				<path style="fill:#FFFFFF;" d="M2897.285,2526.734c0.254-115.441-86.213-157.144-86.213-157.144s27.974-192.927-92.747-249.326
					c-46.749-21.816-115.764-23.168-217.297,15.02l-156.317,172.726c-3.68-0.038-7.435-0.15-11.19-0.338l185.831-205.356
					c101.533-38.188,170.548-36.836,217.297-15.02c120.72,56.399,92.747,249.326,92.747,249.326
					S2970.131,2444.501,2897.285,2526.734z"/>
			</g>
			<g>
				<path style="fill:#000072;" d="M2770.429,2591.514c-29.587,0.005-60.144-5.22-88.157-15.801
					c-51.248-19.355-87.964-54.434-103.386-98.77c-10.459-30.073-14.104-53.53-16.765-70.659c-1.392-8.95-2.593-16.685-4.351-22.817
					c-21.772-75.898-57.725-72.275-129.365-65.078c-28.052,2.822-59.834,6.025-95.593,4.297c-8.284-0.396-14.678-7.437-14.28-15.723
					s7.471-14.746,15.725-14.277c33.499,1.606,64.126-1.475,91.143-4.185c71.106-7.168,132.549-13.345,161.245,86.685
					c2.278,7.944,3.613,16.538,5.159,26.489c2.625,16.885,5.889,37.896,15.457,65.396c12.444,35.781,42.854,64.385,85.625,80.537
					c53.208,20.103,118.875,18.062,159.683-4.98c31.741-17.91,48.718-39.507,50.469-64.185
					c4.402-62.124-81.926-129.229-82.8-129.902c-4.307-3.311-6.499-8.696-5.718-14.072c0.217-1.519,21.023-153.54-59.275-218.057
					c-48.821-39.219-126.406-39.238-230.598-0.039c-7.754,2.92-16.423-1.006-19.346-8.77c-2.92-7.764,1.006-16.426,8.77-19.346
					c114.89-43.228,202.388-41.606,260.071,4.805c82.563,66.431,74.81,201.396,71.135,237.109
					c22.551,18.916,92.439,83.228,87.729,150.332c-2.483,35.391-24.58,65.093-65.671,88.286
					C2840.627,2583.863,2806.238,2591.514,2770.429,2591.514z"/>
			</g>
			<g>
				<path style="fill:#000072;" d="M2802.311,2380.491c2.175-8.733,4.459-16.484,6.15-24.089c0.88-3.784,1.499-7.537,2.454-11.111
					c0.995-3.577,1.895-7.104,3.65-10.564l0.244-0.481c2.562-5.049,8.734-7.065,13.784-4.502c3.441,1.746,5.472,5.183,5.608,8.784
					c0.165,4.702-1.036,9.233-2.642,13.555c-1.646,4.324-4.126,8.303-6.803,12.034c-5.422,7.429-12.089,13.818-20.201,18.145
					c-0.76,0.405-1.705,0.117-2.111-0.645C2802.256,2381.265,2802.222,2380.852,2802.311,2380.491z"/>
			</g>
			<g style="opacity:0.3;">
				<path style="fill:#000072;" d="M2746.826,2375.26c0,0-23.243,69.616-115.426,153.238c-17.047-15.095-30.49-33.907-38.338-56.474
					c-15.508-44.646-15.17-72.883-20.84-92.709c-34.958-121.772-113.999-65.636-238.7-71.644l185.831-205.356
					c8.885-3.342,17.522-6.381,25.917-9.13c106.998-35.041,216.631,44.928,215.288,157.51
					C2759.705,2322.118,2746.826,2375.26,2746.826,2375.26z"/>
			</g>
			<g>
				<path style="fill:#B5CFDD;" d="M2602.712,2457.493c0,0-139.157,146.479-498.916,121.021
					c-222.479-15.771-462.342-194.279-462.342-194.279l426.746-406.132c0,0,65.749-35.521,154.252-65.26
					c26.097-8.824,54.221-17.084,83.171-23.844c59.666-13.855,123.086-21.103,180.574-12.504
					c38.338,5.745,74.084,18.55,104.312,41.117c93.234,69.653,125.339,153.238,126.803,233.631
					C2720.279,2310.714,2602.712,2457.493,2602.712,2457.493z"/>
				<path style="fill:#000072;" d="M2184.948,2583.951c-25.776,0-52.866-0.928-81.328-2.939
					c-220.657-15.645-461.252-192.983-463.657-194.771c-0.593-0.439-0.959-1.118-1.003-1.855s0.237-1.455,0.771-1.963
					l426.746-406.133c0.161-0.151,0.342-0.283,0.535-0.386c0.659-0.357,66.951-35.962,154.644-65.43
					c28.149-9.517,56.211-17.563,83.398-23.911c68.979-16.016,130.056-20.239,181.511-12.539
					c41.294,6.187,76.77,20.181,105.439,41.587c83.088,62.075,126.089,141.338,127.808,235.586
					c2.949,158.54-113.967,306.382-115.149,307.856c-0.044,0.054-0.09,0.107-0.139,0.161
					C2603.237,2460.567,2482.282,2583.951,2184.948,2583.951z M1645.349,2383.98c25.684,18.545,251.228,177.339,458.623,192.041
					c351.357,24.878,493.032-116.26,496.858-120.181c3.408-4.307,116.868-149.414,113.982-304.551
					c-1.687-92.627-44.014-170.571-125.801-231.675c-28-20.903-62.717-34.58-103.186-40.649
					c-50.828-7.593-111.27-3.408-179.636,12.471c-27.029,6.309-54.934,14.307-82.937,23.774
					c-84.333,28.34-148.708,62.339-153.572,64.937L1645.349,2383.98z M2602.712,2457.491h0.049H2602.712z"/>
			</g>
			<g style="opacity:0.3;">
				<path style="fill:#000072;" d="M2602.712,2457.493c0,0-139.157,146.479-498.916,121.021
					c-222.479-15.771-462.342-194.279-462.342-194.279l54.333-51.705c92.408,33.457,262.469,87.94,414.505,98.717
					c359.759,25.458,492.42-114.337,492.42-114.337s114.676-48.678,106.978-227.473c4.881,20.615,7.247,41.304,7.622,61.806
					C2720.279,2310.714,2602.712,2457.493,2602.712,2457.493z"/>
			</g>
			<g>
				<path style="fill:#FFFFFF;" d="M2717.312,2151.242c-61.58,75.624-180.611,98.266-287.176,48.513
					c-122.748-57.3-182.489-188.948-133.412-294.085c2.703-5.745,5.632-11.302,8.899-16.672
					c99.468-23.093,209.299-27.824,284.886,28.613C2683.743,1987.265,2715.848,2070.849,2717.312,2151.242z"/>
			</g>
			<g>
				<path style="fill:#000072;" d="M2186.675,2596.534c-26.582,0-54.517-0.957-83.955-3.042
					c-224.272-15.879-460.295-189.829-470.232-197.227c-3.555-2.642-5.757-6.719-6.025-11.138
					c-0.266-4.424,1.431-8.735,4.639-11.787l426.758-406.104c0.964-0.918,2.043-1.704,3.213-2.334
					c14.636-7.915,360.566-192.202,538.44-59.326c75.862,56.665,119.719,127.646,130.359,210.967
					c22.449,175.815-109.775,343.276-115.415,350.322c-0.264,0.327-0.542,0.649-0.835,0.957
					C2608.215,2473.511,2487.541,2596.534,2186.675,2596.534z M1665.029,2382.52c54.922,37.969,255.171,167.935,439.81,181.011
					c337.749,23.916,478-107.559,486.619-116.016c8.44-10.85,128.875-169.126,108.599-327.3
					c-9.6-74.878-49.475-138.994-118.523-190.576c-156.558-116.948-478.003,46.934-504.468,60.786L1665.029,2382.52z"/>
			</g>
			<g>
				<path style="fill:#DD8E58;" d="M1063.298,2325.919c0,0-311.873,151.221-311.446,182.069
					c0.427,30.848,398.694-115.35,398.694-115.35"/>
				<path style="fill:#000072;" d="M761.782,2514.532c-4.651,0-8.005-0.596-9.866-1.875c-1.65-1.138-2.537-2.739-2.563-4.634
					c-0.437-31.528,280.786-168.804,312.854-184.355c1.248-0.605,2.737-0.078,3.34,1.162s0.085,2.734-1.157,3.34
					c-124.788,60.508-310.335,158.32-310.037,179.785c0.002,0.151,0.005,0.313,0.396,0.581c1.396,0.962,3.979,1.416,7.612,1.416
					c44.741,0.01,249.912-69.219,387.324-119.663c1.311-0.464,2.734,0.19,3.208,1.489c0.476,1.294-0.188,2.729-1.484,3.208
					C1115.984,2407.989,823.83,2514.532,761.782,2514.532z"/>
			</g>
			<g>
				<path style="fill:#E57C35;" d="M1150.55,2392.618l-34.394-26.288l-52.852-40.446c0,0-155.349,75.287-246.606,130.497
					c-38.025,23.011-64.984,42.551-64.851,51.607C752.302,2538.826,1150.55,2392.618,1150.55,2392.618z"/>
			</g>
			<g style="opacity:0.3;">
				<path style="fill:#000072;" d="M1150.536,2392.608c0,0-398.246,146.217-398.697,115.388
					c-0.112-8.448,23.468-26.134,57.638-47.199c67.476-12.692,220.488-65.26,305.462-95.375l1.202,0.901L1150.536,2392.608z"/>
			</g>
			<g>
				<path style="fill:#000072;" d="M761.25,2527.334c-10.088,0-13.501-2.349-16.431-4.365c-4.993-3.433-7.903-8.818-7.983-14.771
					c-0.169-11.997-0.396-28.423,163.496-116.06c77.283-41.323,155.63-79.355,156.414-79.736c7.451-3.604,16.448-0.503,20.068,6.963
					c3.618,7.466,0.5,16.45-6.963,20.068c-114.978,55.752-237.839,121.538-284.688,155.015
					c62.632-12.656,218.557-63.911,360.208-115.913c7.781-2.856,16.416,1.138,19.275,8.926s-1.135,16.416-8.923,19.277
					c-0.93,0.337-94.031,34.478-189.165,65.947C832.102,2517.168,782.234,2527.334,761.25,2527.334z"/>
			</g>
			<g>
				<path style="fill:#E57C35;" d="M3030.958,2616.049c0,0,276.729,285.605,308.395,277.968
					c31.666-7.637-273.311-383.305-273.311-383.305"/>
			</g>
			<g style="opacity:0.3;">
				<path style="fill:#000072;" d="M3066.037,2510.685l-35.07,105.373c0,0,276.689,285.587,308.368,277.983
					c9.213-2.201-9.965-35.445-41.8-81.425c-91.988-81.891-222.281-216.404-222.281-216.404l17.458-52.413
					C3076.26,2523.258,3066.037,2510.685,3066.037,2510.685z"/>
			</g>
			<g>
				<path style="fill:#000072;" d="M3337.156,2909.449c-13.445,0-43.958-15.2-174.294-140.732
					c-72.49-69.819-141.997-141.499-142.69-142.217c-5.774-5.957-5.623-15.464,0.334-21.235c5.962-5.776,15.471-5.62,21.238,0.337
					c102.698,105.986,218.228,217.041,271.34,257.676c-38.254-62.607-150.754-210.127-258.701-343.096
					c-5.229-6.44-4.246-15.898,2.192-21.128c6.448-5.225,15.903-4.243,21.128,2.192c0.715,0.884,72.3,89.116,141.729,179.868
					c145.061,189.604,139.937,204.756,136.194,215.82c-1.982,5.869-6.75,10.234-12.751,11.68
					C3341.189,2909.024,3339.411,2909.449,3337.156,2909.449z"/>
			</g>
			<g>
				<path style="fill:#E57C35;" d="M3307.084,2483.211c4.885,3.595,4.605,10.982-0.728,13.871
					c-1021.528,553.501-2288.074-97.172-2510.298-295.504c-11.103-9.846-17.433-23.913-17.433-38.733
					c0-30.545,25.068-51.996,51.946-51.996c9.746,0,19.743,2.813,28.887,9.043c339.102,230.64,1422.519,643.59,2450.878,120.72
					c-22.807,12.76-39.838,62.696-39.838,122.328C3270.497,2419.697,3285.929,2467.644,3307.084,2483.211z"/>
			</g>
			<g style="opacity:0.5;">
				<path style="fill:#FFFFFF;" d="M3276.545,2303.896c-1018.159,496.998-2081.683,90.578-2417.068-137.55
					c-9.143-6.229-19.141-9.043-28.886-9.043c-19.342,0-37.678,11.103-46.52,28.635c-3.517-7.134-5.426-15.021-5.426-23.11
					c0-30.544,25.068-51.996,51.946-51.996c9.746,0,19.743,2.814,28.886,9.043c339.102,230.64,1422.52,643.59,2450.877,120.72
					C3295.686,2248.786,3283.428,2272.297,3276.545,2303.896z"/>
			</g>
			<g style="opacity:0.3;">
				<path style="fill:#000072;" d="M796.077,2171.563c221.497,197.71,1480.71,844.841,2500.533,300.667
					c-9.552-13.23-17.186-33.701-21.672-58.413C1949.238,2932.9,932.356,2251.155,794.589,2170.093
					C795.09,2170.576,795.552,2171.096,796.077,2171.563z"/>
			</g>
			<g style="opacity:0.35;">
				<g>
					<path style="fill:#000072;" d="M987.574,2235.178c20.487,13.479,41.99,25.774,63.586,37.644
						c21.646,11.841,43.622,23.083,65.815,33.875c22.191,10.793,44.584,21.177,67.205,31.042
						c22.535,10.056,45.338,19.504,68.204,28.782c91.653,36.694,185.697,67.197,280.952,93.013
						c95.342,25.52,192.081,45.898,289.519,61.423c97.413,15.566,195.894,24.084,294.506,28.408
						c197.267,8.223,395.61-2.961,590.677-34.287c97.478-15.837,194.175-37.068,288.459-65.959
						c47.056-14.663,93.535-31.096,138.77-50.22c22.563-9.683,44.751-20.151,66.432-31.433
						c21.693-11.252,42.813-23.491,62.939-36.973l0.054-0.037c5.739-3.845,13.508-2.307,17.352,3.43
						c3.845,5.74,2.308,13.511-3.43,17.354c-0.223,0.151-0.48,0.308-0.709,0.442c-43.763,25.259-89.421,45.906-136.05,63.508
						c-46.498,17.925-93.916,32.993-141.753,46.238c-95.685,26.484-192.931,46.306-290.778,61.714
						c-48.926,7.737-98.04,14.231-147.28,19.521c-24.623,2.622-49.269,5.034-73.947,7.058c-24.663,2.202-49.354,4.111-74.067,5.693
						c-98.844,6.384-198.014,8.335-297.086,5.212c-99.07-3.059-198.018-11.931-296.078-27.034
						c-48.979-7.859-97.692-16.997-146.133-27.556c-48.441-10.5-96.655-22.087-144.46-35.208
						c-95.637-26.118-189.734-57.922-281.438-95.583c-45.815-18.911-91.031-39.314-135.228-61.765
						c-22.119-11.182-44.012-22.813-65.575-35.044c-21.552-12.288-42.843-24.888-63.469-38.918c-1.206-0.82-1.518-2.463-0.698-3.669
						c0.813-1.194,2.43-1.511,3.633-0.723L987.574,2235.178z"/>
				</g>
			</g>
			<g>
				<path style="fill:#000072;" d="M2398.86,2729.849c-241.345,0-465.959-37.646-651.042-84.014
					c-456.965-114.478-837.502-322.153-961.758-433.052c-14.255-12.637-22.454-30.85-22.454-49.937
					c0-36.953,30.042-67.017,66.965-67.017c13.245,0,26.16,4.028,37.344,11.65c170.354,115.864,524.199,274.57,960.752,340.488
					c366.062,55.269,919.08,61.851,1474.863-220.747c7.288-3.711,16.204-0.894,20.056,6.318s1.223,16.182-5.916,20.176
					c-15.806,8.848-32.153,52.119-32.153,109.224c0,55.698,15.701,97.305,30.471,108.179c6.528,4.805,10.093,12.471,9.536,20.508
					c-0.547,7.91-5.039,14.888-12.019,18.662C3011.26,2674.058,2692.661,2729.849,2398.86,2729.849z M830.571,2125.87
					c-17.759,0-36.926,14.136-36.926,36.978c0,10.498,4.512,20.518,12.378,27.49c95.872,85.566,453.95,302.319,949.097,426.362
					c403.064,100.972,995.723,160.229,1535.464-128.188c-21.57-22.93-35.105-70.469-35.105-125.571
					c0-31.895,4.583-61.226,12.603-84.722c-227.168,108.823-470.796,179.907-724.998,211.455
					c-232.871,28.896-474.746,24.863-718.901-12.002c-441.541-66.675-800.2-227.71-973.171-345.361
					C844.734,2128.033,837.861,2125.87,830.571,2125.87z M3298.183,2495.313h0.051H3298.183z M3298.152,2495.289
					c0.01,0.005,0.02,0.015,0.029,0.02l0,0C3298.171,2495.303,3298.159,2495.293,3298.152,2495.289z"/>
			</g>
			<g>
				<path style="fill:#FFA76C;" d="M3373.434,2362.941c0,69.377-23.058,125.593-51.493,125.593
					c-28.384,0-51.443-56.216-51.443-125.593c0-59.632,17.031-109.567,39.838-122.328c0.754-0.402,1.557-0.804,2.311-1.206
					c0.05-0.05,0.1-0.05,0.15-0.05c2.964-1.357,6.029-2.01,9.143-2.01C3350.375,2237.348,3373.434,2293.564,3373.434,2362.941z"/>
			</g>
			<g style="opacity:0.35;">
				<path style="fill:#000072;" d="M3373.453,2362.926c0,69.378-23.059,125.593-51.493,125.593
					c-28.384,0-51.443-56.215-51.443-125.593c0-13.062,0.803-25.622,2.311-37.477c6.581,51.091,26.073,88.116,49.132,88.116
					c23.059,0,42.601-37.025,49.182-88.116C3372.65,2337.254,3373.453,2349.863,3373.453,2362.926z"/>
			</g>
			<g>
				<path style="fill:#000072;" d="M3321.941,2503.555c-43.633,0-66.462-70.737-66.462-140.615
					c0-65.103,19.099-119.526,47.524-135.435l2.603-1.362l0.002,0.005c0.442-0.234,0.894-0.444,1.355-0.635
					c4.761-2.114,9.797-3.184,14.978-3.184c43.665,0,66.511,70.737,66.511,140.61
					C3388.452,2432.818,3365.605,2503.555,3321.941,2503.555z M3318.984,2253.042l-1.589,0.825
					c-15.53,8.696-31.877,51.968-31.877,109.072c0,66.475,21.924,110.576,36.423,110.576c14.519,0,36.472-44.102,36.472-110.576
					c0-66.47-21.953-110.571-36.472-110.571c-1.013,0-1.931,0.205-2.888,0.645
					C3319.031,2253.023,3319.006,2253.033,3318.984,2253.042z"/>
			</g>
			<g style="opacity:0.3;">
				<g>
					<path style="fill:#000072;" d="M2868.893,2612.253c9.137,0.527,18.713,0.002,28.032-1.025
						c9.365-1.021,18.688-2.571,27.867-4.722c18.352-4.326,36.229-10.605,53.175-18.777c16.903-8.276,32.784-18.481,47.411-30.193
						c7.236-5.95,14.335-12.068,20.897-18.745l10.3-10.125c3.541-3.352,7.197-6.587,10.878-9.788
						c29.807-25.32,64.658-43.928,100.834-58.164c18.131-7.124,36.754-12.905,55.614-17.837
						c19.004-4.919,37.734-8.784,57.953-11.335c6.862-0.867,13.125,3.992,13.992,10.854c0.865,6.86-3.994,13.123-10.854,13.989
						c-0.389,0.049-0.776,0.081-1.16,0.093l-0.371,0.012c-8.676,0.269-18.239,1.16-27.377,2.302
						c-9.237,1.147-18.466,2.59-27.649,4.304c-18.357,3.484-36.515,8.147-54.297,13.933c-35.604,11.418-69.542,28.347-99.104,51.147
						c-3.643,2.908-7.269,5.847-10.791,8.904l-10.521,9.512c-7.095,6.658-14.719,12.725-22.462,18.579
						c-7.822,5.767-15.959,11.077-24.301,16.021c-8.4,4.851-17.043,9.243-25.861,13.23c-17.614,8.018-36.093,14.05-54.973,18.064
						c-18.916,4.05-38.032,6.357-57.686,5.713c-1.647-0.054-2.937-1.433-2.883-3.079s1.432-2.937,3.079-2.883
						c0.02,0,0.04,0.002,0.06,0.002L2868.893,2612.253z"/>
				</g>
				<g>
					<path style="fill:#000072;" d="M1808.988,2575.906c55.913,11.506,112.074,21.382,168.467,29.473l42.358,5.557l42.457,4.639
						c14.125,1.765,28.341,2.671,42.502,4.05c14.164,1.394,28.363,2.341,42.565,3.232c14.194,0.977,28.39,1.917,42.611,2.402
						c14.215,0.54,28.416,1.421,42.642,1.565c14.222,0.225,28.433,0.894,42.655,0.906c14.222,0.015,28.442,0.21,42.661,0.078
						c56.88-0.488,113.722-3.296,170.376-8.157c56.644-4.976,113.081-12.283,169.086-22.019
						c56.016-9.675,111.547-22.109,166.207-37.485c27.279-7.839,54.358-16.37,80.935-26.128
						c13.307-4.834,26.41-10.144,39.335-15.745c6.458-2.803,12.817-5.793,19.109-8.848l9.321-4.746l9.67-5.088
						c26.04-13.137,53.833-23.364,82.742-28.484c28.707-5.039,59.06-6.204,86.937,4.214c0.653,0.244,0.984,0.972,0.74,1.624
						c-0.186,0.498-0.652,0.808-1.152,0.82l-0.109,0.002c-7.122,0.144-14.242,0.767-21.239,1.099
						c-7.023,0.535-13.987,1.282-20.916,1.97c-13.853,1.44-27.642,3.171-41.23,6.089c-27.179,5.63-53.787,14.346-78.912,26.492
						l-19.136,9.646c-6.552,3.159-13.126,6.223-19.767,9.084c-13.279,5.71-26.663,11.082-40.198,15.957
						c-27.003,9.954-54.366,18.718-81.931,26.726c-55.204,15.732-111.191,28.462-167.654,38.413
						c-56.444,10.059-113.329,17.542-170.425,22.563c-57.089,5.134-114.408,7.512-171.707,7.561
						c-28.649-0.088-57.296-0.447-85.918-1.667c-14.318-0.398-28.602-1.533-42.898-2.329c-14.302-0.745-28.572-1.941-42.836-3.174
						c-114.182-9.136-227.371-29.021-337.928-57.861c-0.668-0.173-1.068-0.857-0.894-1.526
						C1807.684,2576.167,1808.341,2575.774,1808.988,2575.906z"/>
				</g>
			</g>
			<g style="opacity:0.35;">
				<path style="fill:#000072;" d="M778.645,2162.83L778.645,2162.83c0,0.925,0.098,1.838,0.146,2.759
					C778.743,2164.668,778.645,2163.755,778.645,2162.83z"/>
			</g>
			<g style="opacity:0.35;">
				<path style="fill:#000072;" d="M781.951,2180.85c-1.392-3.74-2.375-7.632-2.872-11.636
					C779.575,2173.218,780.559,2177.109,781.951,2180.85z"/>
			</g>
			<g style="opacity:0.35;">
				<path style="fill:#000072;" d="M778.884,2162.441c-0.15,0.073-0.238,0.195-0.238,0.386
					C778.646,2162.637,778.734,2162.515,778.884,2162.441z"/>
			</g>
			<g style="opacity:0.35;">
				<path style="fill:#000072;" d="M791.512,2196.912c-2.196-2.505-4.169-5.176-5.83-8.022
					C787.344,2191.736,789.316,2194.407,791.512,2196.912z"/>
			</g>
			<g style="opacity:0.35;">
				<path style="fill:#000072;" d="M1049.039,2364.05c-12.758-6.753-25.14-13.45-37.159-20.078
					C1023.899,2350.601,1036.282,2357.297,1049.039,2364.05z"/>
			</g>
			<g style="opacity:0.35;">
				<path style="fill:#000072;" d="M995.004,2334.573c-15.045-8.462-29.437-16.79-43.182-24.956
					C965.565,2317.783,979.958,2326.111,995.004,2334.573z"/>
			</g>
			<g style="opacity:0.35;">
				<path style="fill:#000072;" d="M1092.378,2386.482c-9.313-4.714-18.457-9.409-27.435-14.084
					C1073.921,2377.073,1083.065,2381.768,1092.378,2386.482z"/>
			</g>
			<g style="opacity:0.35;">
				<path style="fill:#000072;" d="M779.575,2162.407c-0.205-0.029-0.354-0.017-0.491,0.01
					C779.221,2162.393,779.37,2162.375,779.575,2162.407z"/>
			</g>
			<g style="opacity:0.35;">
				<path style="fill:#000072;" d="M901.908,2278.862c-37.3-23.896-67.81-45.73-90.712-64.443
					C834.098,2233.132,864.607,2254.966,901.908,2278.862z"/>
			</g>
			<g style="opacity:0.35;">
				<path style="fill:#000072;" d="M3301.699,2478.401c-0.006-0.007-0.012-0.015-0.018-0.02
					C3301.687,2478.386,3301.693,2478.394,3301.699,2478.401z"/>
			</g>
			<g style="opacity:0.35;">
				<path style="fill:#000072;" d="M3304.146,2480.769c0.076,0.068,0.148,0.149,0.223,0.215
					C3304.293,2480.918,3304.221,2480.837,3304.146,2480.769z"/>
			</g>
			<g style="opacity:0.35;">
				<path style="fill:#000072;" d="M3308.677,2484.709c-0.02-0.024-0.05-0.042-0.071-0.066
					C3308.627,2484.668,3308.657,2484.685,3308.677,2484.709z"/>
			</g>
			<g style="opacity:0.35;">
				<path style="fill:#000072;" d="M785.19,2164.79c0.63,0.33,1.315,0.701,2.035,1.094
					C786.506,2165.491,785.82,2165.12,785.19,2164.79z"/>
			</g>
			<g style="opacity:0.35;">
				<path style="fill:#000072;" d="M783.015,2163.699c0.452,0.217,0.946,0.461,1.469,0.73
					C783.962,2164.16,783.467,2163.914,783.015,2163.699z"/>
			</g>
			<g style="opacity:0.35;">
				<path style="fill:#000072;" d="M787.798,2166.196c1.949,1.079,4.197,2.373,6.757,3.877
					C791.995,2168.567,789.746,2167.275,787.798,2166.196z"/>
			</g>
			<g style="opacity:0.35;">
				<path style="fill:#000072;" d="M781.274,2162.932c0.327,0.129,0.684,0.281,1.073,0.457
					C781.958,2163.213,781.602,2163.062,781.274,2162.932z"/>
			</g>
			<g style="opacity:0.35;">
				<path style="fill:#000072;" d="M779.961,2162.495c0.229,0.056,0.474,0.125,0.764,0.227
					C780.436,2162.62,780.189,2162.551,779.961,2162.495z"/>
			</g>
			<g style="opacity:0.35;">
				<path style="fill:#000072;" d="M796.077,2201.563c-1.388-1.23-2.7-2.527-3.936-3.882
					C793.376,2199.036,794.69,2200.332,796.077,2201.563c2.268,2.026,4.685,4.114,7.17,6.23
					C800.762,2205.676,798.345,2203.586,796.077,2201.563z"/>
			</g>
			<g style="opacity:0.35;">
				<path style="fill:#000072;" d="M1790.674,2640.789c-13.14-3.108-26.222-6.279-39.214-9.534
					C1764.452,2634.509,1777.534,2637.681,1790.674,2640.789z"/>
			</g>
			<g style="opacity:0.35;">
				<path style="fill:#000072;" d="M1932.865,2670.796c-15.455-2.859-30.831-5.837-46.127-8.926
					C1902.034,2664.958,1917.41,2667.937,1932.865,2670.796z"/>
			</g>
			<g style="opacity:0.35;">
				<path style="fill:#000072;" d="M1932.865,2670.796c14.125,2.615,28.322,5.12,42.572,7.534
					C1961.187,2675.916,1946.99,2673.411,1932.865,2670.796z"/>
			</g>
			<g style="opacity:0.35;">
				<path style="fill:#000072;" d="M2145.792,2701.729c-39.12-4.092-77.903-9.058-116.288-14.783
					C2067.891,2692.671,2106.672,2697.637,2145.792,2701.729z"/>
			</g>
			<g style="opacity:0.35;">
				<path style="fill:#000072;" d="M1243.104,2457.407c-53.712-23.506-103.92-47.251-150.055-70.586
					C1139.185,2410.156,1189.392,2433.901,1243.104,2457.407z"/>
			</g>
			<g style="opacity:0.35;">
				<path style="fill:#000072;" d="M2315.262,2713.704c-39.982-1.44-79.73-3.879-119.181-7.222
					C2235.532,2709.824,2275.281,2712.263,2315.262,2713.704z"/>
			</g>
			<g style="opacity:0.35;">
				<path style="fill:#000072;" d="M2145.792,2701.729c15.331,1.604,30.717,3.064,46.146,4.397
					C2176.509,2704.795,2161.123,2703.333,2145.792,2701.729z"/>
			</g>
			<g style="opacity:0.35;">
				<path style="fill:#000072;" d="M2365.012,2714.973c-16.055-0.239-32.076-0.645-48.062-1.208
					C2332.936,2714.329,2348.958,2714.734,2365.012,2714.973z"/>
			</g>
			<g style="opacity:0.35;">
				<path style="fill:#000072;" d="M3306.335,2497.058c-303.191,164.285-627.964,222.488-940.61,217.927
					C2678.372,2719.548,3003.146,2661.343,3306.335,2497.058c2.114-1.125,3.406-2.957,3.936-4.978
					C3309.741,2494.102,3308.45,2495.933,3306.335,2497.058z"/>
			</g>
			<g style="opacity:0.35;">
				<path style="fill:#000072;" d="M1858.984,2656.111c-19.736-4.185-39.329-8.547-58.765-13.079
					C1819.656,2647.563,1839.248,2651.926,1858.984,2656.111z"/>
			</g>
			<g style="opacity:0.35;">
				<path style="fill:#000072;" d="M1365.863,2508.127c-10.316-4.016-20.526-8.054-30.643-12.112
					C1345.337,2500.073,1355.547,2504.111,1365.863,2508.127z"/>
			</g>
			<g style="opacity:0.35;">
				<path style="fill:#000072;" d="M1658.036,2606.284c-31.483-8.931-62.44-18.24-92.825-27.861
					C1595.596,2588.044,1626.553,2597.354,1658.036,2606.284z"/>
			</g>
			<g style="opacity:0.35;">
				<path style="fill:#000072;" d="M1309.886,2485.737c-2.115-0.869-4.227-1.738-6.333-2.61
					C1305.659,2483.999,1307.771,2484.868,1309.886,2485.737z"/>
			</g>
			<g style="opacity:0.35;">
				<path style="fill:#000072;" d="M1273.73,2470.625c-1.73-0.735-3.457-1.47-5.179-2.207
					C1270.273,2469.155,1272.001,2469.89,1273.73,2470.625z"/>
			</g>
			<g style="opacity:0.35;">
				<path style="fill:#000072;" d="M1430.947,2532.671c-12.142-4.434-24.17-8.901-36.071-13.406
					C1406.777,2523.77,1418.805,2528.237,1430.947,2532.671z"/>
			</g>
			<g style="opacity:0.35;">
				<path style="fill:#000072;" d="M1552.031,2574.219c-9.255-2.974-18.453-5.977-27.596-9.004
					C1533.578,2568.242,1542.776,2571.245,1552.031,2574.219z"/>
			</g>
			<g style="opacity:0.35;">
				<path style="fill:#000072;" d="M1507.426,2559.526c-6.501-2.192-12.972-4.399-19.415-6.616
					C1494.453,2555.127,1500.924,2557.334,1507.426,2559.526z"/>
			</g>
			<g style="opacity:0.35;">
				<path style="fill:#000072;" d="M1470.522,2546.833c-8.53-2.991-17.006-6.001-25.425-9.031
					C1453.517,2540.833,1461.992,2543.843,1470.522,2546.833z"/>
			</g>
			<g>
				<path style="fill:#8AC457;" d="M614.266,2538.834c85.714,18.637,176.131-62.524,176.131-62.524s-48.552-111.378-134.266-130.015
					S480,2408.819,480,2408.819S528.552,2520.197,614.266,2538.834z"/>
				<path style="fill:#000072;" d="M640.476,2544.078c-8.904,0-17.849-0.869-26.743-2.803
					c-85.967-18.691-135.535-130.332-136.025-131.455c-0.43-0.991-0.178-2.144,0.622-2.861c0.916-0.82,92.373-81.782,178.333-63.105
					c85.967,18.691,135.535,130.332,136.025,131.455c0.43,0.991,0.178,2.144-0.622,2.861
					C791.247,2478.907,717.649,2544.078,640.476,2544.078z M614.797,2536.392c77.776,16.885,160.881-50.811,172.546-60.747
					c-6.487-13.882-53.965-109.995-131.746-126.909c-77.773-16.904-160.881,50.811-172.546,60.747
					C489.538,2423.365,537.016,2519.478,614.797,2536.392L614.797,2536.392z"/>
			</g>
			<g style="opacity:0.5;">
				<path style="fill:#FFFFFF;" d="M530.53,2413.969c0,0,64.853-58.192,136.761-64.669c-3.625-1.187-7.357-2.216-11.16-3.04
					c-85.721-18.62-176.115,62.577-176.115,62.577s48.529,111.387,134.249,130.007c13.125,2.836,26.395,3.368,39.427,2.188
					C574.907,2515.79,530.53,2413.969,530.53,2413.969z"/>
			</g>
			<g style="opacity:0.3;">
				<path style="fill:#000072;" d="M790.416,2476.314c0,0-48.576-111.35-134.285-130.054c-31.927-6.969-64.466-0.075-92.724,11.365
					c5.369,0.393,10.813,1.184,16.163,2.349c85.72,18.62,134.249,130.007,134.249,130.007s-35.649,32.032-83.476,51.2
					C710.932,2547.648,790.416,2476.314,790.416,2476.314z"/>
			</g>
			<g>
				<path style="fill:#000072;" d="M640.859,2556.641c-9.868,0-19.829-0.967-29.785-3.13l0,0
					c-92.161-20.039-142.734-133.857-144.844-138.691c-2.585-5.933-1.079-12.856,3.735-17.178
					c3.926-3.525,97.185-86.05,189.355-66.025c92.161,20.039,142.734,133.857,144.844,138.691
					c2.585,5.933,1.079,12.856-3.735,17.178C796.928,2490.63,722.339,2556.641,640.859,2556.641z M617.456,2524.156
					c62.668,13.638,130.586-33.447,154.231-51.914c-13.831-26.606-56.069-97.642-118.748-111.27
					c-62.698-13.667-130.588,33.442-154.231,51.914C512.539,2439.493,554.778,2510.528,617.456,2524.156L617.456,2524.156z"/>
			</g>
			<g>
				<path style="fill:#000072;" d="M616.768,2435.042l168.517,24.788c8.226,1.208,13.914,8.857,12.704,17.085
					c-1.21,8.225-8.859,13.911-17.085,12.703c-0.657-0.098-1.379-0.259-2.001-0.435l-163.595-47.427
					c-1.826-0.53-2.877-2.439-2.347-4.265C613.445,2435.815,615.09,2434.792,616.768,2435.042z"/>
			</g>
			<g>
				<path style="fill:#8AC457;" d="M1064.414,2625.532c11.479-86.962-76.888-170.351-76.888-170.351
					s-106.977,57.604-118.456,144.566c-11.479,86.962,76.888,170.351,76.888,170.351S1052.936,2712.494,1064.414,2625.532z"/>
				<path style="fill:#000072;" d="M945.959,2772.598c-0.622,0-1.24-0.234-1.716-0.684c-0.893-0.84-89.163-85.273-77.651-172.495
					c11.514-87.222,118.669-145.859,119.751-146.44c0.942-0.508,2.112-0.356,2.9,0.386c0.894,0.84,89.163,85.273,77.649,172.495
					c-11.511,87.222-118.667,145.859-119.749,146.44C946.772,2772.5,946.365,2772.598,945.959,2772.598z M987.119,2458.277
					c-13.301,7.612-105.154,62.881-115.571,141.797c-10.415,78.916,63.953,156.123,74.819,166.929
					c13.301-7.612,105.154-62.881,115.569-141.797l0,0C1072.358,2546.25,997.988,2469.078,987.119,2458.277z"/>
			</g>
			<g style="opacity:0.5;">
				<path style="fill:#FFFFFF;" d="M1064.409,2625.518c0.834-6.385,1.149-12.754,0.983-19.062
					c-29.636,66.905-108.274,109.215-108.274,109.215s-75.862-71.584-77.871-151.271c-4.97,11.111-8.572,22.926-10.194,35.357
					c-11.473,86.96,76.887,170.333,76.887,170.333S1052.936,2712.479,1064.409,2625.518z"/>
			</g>
			<g style="opacity:0.3;">
				<path style="fill:#000072;" d="M1030.001,2699.902c16.929-21.089,30.7-46.141,34.408-74.384
					c11.473-86.96-76.887-170.332-76.887-170.332s-106.995,57.611-118.469,144.571c-0.73,5.625-1.073,11.259-0.983,16.867
					c35.211-43.886,84.061-70.188,84.061-70.188S1029.363,2619.327,1030.001,2699.902z"/>
			</g>
			<g>
				<path style="fill:#000072;" d="M945.964,2785.118c-3.75,0-7.456-1.401-10.313-4.097c-3.838-3.618-93.813-89.736-81.472-183.237
					c12.344-93.506,121.582-153.325,126.226-155.825c5.701-3.066,12.725-2.144,17.429,2.3c3.838,3.618,93.814,89.736,81.47,183.242
					v-0.005c-12.339,93.506-121.58,153.325-126.223,155.825C950.84,2784.527,948.393,2785.118,945.964,2785.118z M985.022,2474.161
					c-25.371,15.986-92.666,63.96-101.062,127.554c-8.391,63.584,44.143,127.373,64.504,149.404
					c25.371-15.986,92.666-63.96,101.06-127.549c0-0.005,0-0.005,0-0.005C1057.917,2559.981,1005.383,2496.192,985.022,2474.161z"/>
			</g>
			<g>
				<path style="fill:#000072;" d="M960.771,2631.628l10.753-169.99c0.525-8.298,7.677-14.597,15.974-14.075
					c8.298,0.525,14.6,7.678,14.075,15.977c-0.043,0.662-0.145,1.396-0.269,2.029l-33.723,166.96
					c-0.377,1.863-2.192,3.069-4.056,2.69C961.818,2634.875,960.663,2633.32,960.771,2631.628z"/>
			</g>
			<g>
				<path style="fill:#8AC457;" d="M3371.285,2617.062c-75.556,44.424-86.911,165.297-86.911,165.297s111.145,48.849,186.701,4.425
					c75.556-44.424,86.911-165.297,86.911-165.297S3446.841,2572.638,3371.285,2617.062z"/>
				<path style="fill:#000072;" d="M3394.551,2807.789c-57.573,0-110.413-22.803-111.182-23.14c-0.986-0.435-1.584-1.45-1.484-2.524
					c0.115-1.221,12.354-122.661,88.135-167.217c75.776-44.565,187.852,3.794,188.972,4.287c0.986,0.435,1.584,1.45,1.484,2.524
					c-0.115,1.221-12.354,122.661-88.135,167.217C3448.479,2802.969,3421.013,2807.784,3394.551,2807.789z M3287.068,2780.777
					c14.177,5.796,114.185,44.16,182.739,3.853c68.564-40.313,83.66-146.357,85.486-161.563
					c-14.175-5.796-114.182-44.165-182.739-3.853l0,0C3303.989,2659.527,3288.894,2765.572,3287.068,2780.777z M3371.286,2617.061
					h0.049H3371.286z"/>
			</g>
			<g style="opacity:0.5;">
				<path style="fill:#FFFFFF;" d="M3361.285,2622.061c-5.447,3.203-10.521,6.841-15.321,10.764
					c73.744-27.288,167.021,13.662,167.021,13.662s-9.814,104.036-71.591,154.534c6.747-2.495,13.346-5.513,19.679-9.236
					c75.557-44.424,86.912-165.298,86.912-165.298S3436.841,2577.637,3361.285,2622.061z"/>
			</g>
			<g style="opacity:0.3;">
				<path style="fill:#000072;" d="M3371.262,2617.083c-75.514,44.397-86.873,165.291-86.873,165.291s111.108,48.835,186.68,4.421
					c12.001-7.04,22.374-15.988,31.339-26.093c-60.356,2.331-117.808-22.879-117.808-22.879s8.023-85.626,55.65-139.234
					C3416.592,2599.506,3392.518,2604.563,3371.262,2617.083z"/>
			</g>
			<g>
				<path style="fill:#000072;" d="M3394.096,2820.503c-59.26,0.005-112.505-22.959-115.764-24.395
					c-5.925-2.603-9.517-8.711-8.911-15.156c0.493-5.244,13.008-129.072,94.253-176.841c64.927-38.174,151.638-14.087,185.903-1.958
					c14.932,5.288,23.853,20.464,21.213,36.079c-6.06,35.84-27.163,123.32-92.104,161.499
					C3452.346,2815.22,3422.527,2820.503,3394.096,2820.503z M3300.862,2772.647c28.181,10.156,107.344,33.672,162.6,1.187
					c54.055-31.777,72.351-108.916,77.71-140.61c0.205-1.211-0.461-2.339-1.621-2.749c-30.298-10.728-106.604-32.246-160.652-0.464
					l0,0C3323.493,2662.583,3305.652,2743.082,3300.862,2772.647z M3371.286,2617.061h0.049H3371.286z"/>
			</g>
			<g>
				<path style="fill:#000072;" d="M3439.811,2694.954l-140.505,96.05c-6.864,4.692-16.232,2.932-20.924-3.933
					c-4.692-6.863-2.932-16.23,3.932-20.923c0.549-0.376,1.19-0.747,1.768-1.04l152.249-76.077c1.7-0.85,3.768-0.159,4.618,1.541
					C3441.726,2692.131,3441.211,2693.999,3439.811,2694.954z"/>
			</g>
			<g>
				<path style="fill:#B5CFDD;" d="M1694.823,2294.942c0,84.142-112.544,433.668-8.547,499.328
					c126.976,80.168,258.062-102.436,251.352-400.838"/>
				<path style="fill:#000072;" d="M1746.863,2815.679c-20.703,0-41.558-6.44-61.921-19.297
					c-77.031-48.638-38.901-242.896-11.06-384.736c9.895-50.415,18.442-93.96,18.442-116.704c0-1.382,1.118-2.5,2.5-2.5
					s2.5,1.118,2.5,2.5c0,23.232-8.591,66.992-18.538,117.666c-26.008,132.505-65.31,332.739,8.826,379.546
					c36.499,23.047,74.634,24.565,110.278,4.395c86.406-48.911,141.56-210.889,137.239-403.057
					c-0.029-1.382,1.064-2.529,2.444-2.559c0.02,0,0.039,0,0.056,0c1.355,0,2.468,1.084,2.5,2.441
					c4.36,193.965-51.812,357.734-139.778,407.524C1782.937,2810.757,1764.956,2815.674,1746.863,2815.679z"/>
			</g>
			<g style="opacity:0.3;">
				<path style="fill:#000072;" d="M1686.288,2794.272c-32.855-20.765-44.083-69.804-44.12-129.845
					c6.796,14.681,16.033,26.359,28.274,34.095c110.829,69.999,224.826-60.338,247.526-293.154
					c0.932-9.556,10.778-15.547,19.674-11.933h0C1944.325,2691.837,1813.241,2874.438,1686.288,2794.272z"/>
			</g>
			<g>
				<path style="fill:#000072;" d="M1709.843,2294.941c-0.129,12.886-1.722,24.282-3.354,35.786
					c-1.683,11.433-3.661,22.654-5.708,33.826c-4.114,22.327-8.545,44.417-12.847,66.489
					c-8.625,44.114-16.862,88.125-22.849,132.236c-5.796,44.009-9.961,88.479-6.735,131.467c1.76,21.299,5.455,42.527,13.829,60.166
					c4.117,8.813,9.545,16.428,16.118,22.131l2.501,2.09l2.659,1.841c1.779,1.248,4.271,2.463,6.365,3.708
					c4.298,2.703,8.875,4.561,13.401,6.55c9.146,3.528,18.572,6.196,28.113,6.563c4.761,0.664,9.51-0.059,14.271-0.112
					c4.689-0.95,9.476-1.257,14.063-2.896c18.682-4.995,35.668-16.921,50.376-31.306c14.813-14.451,27.085-32.034,37.598-50.662
					c10.552-18.645,19.44-38.481,26.832-58.948c7.509-20.427,13.962-41.362,19.42-62.649c5.32-21.331,9.863-42.922,13.61-64.749
					c7.491-43.667,11.699-88.062,15.118-132.93l0.004-0.042c0.211-2.769,2.626-4.841,5.394-4.631
					c2.446,0.186,4.349,2.097,4.613,4.448c5.105,45.159,5.477,91.003,1.173,136.641l-1.827,17.109
					c-0.637,5.701-1.636,11.362-2.439,17.053c-1.572,11.382-3.806,22.695-6.073,33.992c-4.838,22.554-11.086,44.897-18.971,66.785
					c-8.048,21.814-17.494,43.306-29.47,63.679c-11.919,20.364-26.108,39.78-43.63,56.743
					c-17.454,16.809-38.586,31.548-63.611,38.389c-6.1,2.065-12.62,2.715-18.984,3.843c-6.482,0.237-12.991,0.994-19.451,0.215
					c-13.005-0.596-25.576-4.082-37.345-8.669c-5.801-2.5-11.63-4.976-16.918-8.24c-2.745-1.624-5.341-2.878-8.195-4.827
					l-4.271-2.983l-3.995-3.301c-10.449-9.06-18.153-20.383-23.563-31.909c-10.897-23.257-14.628-47.29-16.656-70.688
					c-3.473-46.963,1.008-92.729,6.908-137.893c6.13-45.146,14.484-89.707,23.136-133.975c4.315-22.131,8.738-44.194,12.784-66.155
					c2.012-10.977,3.939-21.936,5.535-32.778c1.564-10.767,2.965-21.758,3.033-31.409l0.002-0.259
					c0.059-8.293,6.831-14.971,15.126-14.91c8.295,0.059,14.971,6.831,14.912,15.125L1709.843,2294.941z"/>
			</g>
			<g style="opacity:0.3;">
				<path style="fill:#000072;" d="M2527.276,2002.623c-20.615,70.217-130.596,99.167-211.589,62.932
					c-66.575-29.776-74.836-106.489-75.098-140.171c-0.075-8.411-7.848-14.606-16.071-12.954c-0.676,0.15-1.352,0.263-2.065,0.413
					c26.097-8.824,54.221-17.084,83.171-23.844c59.666-13.855,123.086-21.103,180.574-12.504
					C2521.906,1916.297,2538.503,1964.323,2527.276,2002.623z"/>
			</g>
			<g>
				<path style="fill:#B5CFDD;" d="M2269.519,1895.457c6.716-1.363,13.043,3.698,13.1,10.55
					c0.226,27.444,6.951,89.919,61.168,114.173c65.977,29.516,155.559,5.925,172.349-51.273
					c25.583-87.151-125.895-236.306-300.264-127.915c-51.841,32.225-67.771,85.696-67.771,85.696s48.658-15.173,70.171-20.214
					C2234.849,1902.592,2255.98,1898.205,2269.519,1895.457z"/>
				<path style="fill:#000072;" d="M2405.747,2035.376c-21.821,0-43.73-4.302-62.981-12.915
					c-55.886-25-62.429-89.756-62.646-116.436c-0.02-2.495-1.147-4.829-3.091-6.406c-1.973-1.597-4.526-2.227-7.012-1.709
					c0,0,0,0-0.002,0c-11.677,2.368-33.853,6.943-51.174,11.001c-21.179,4.956-69.509,20.015-69.995,20.166
					c-0.872,0.269-1.843,0.039-2.5-0.61c-0.659-0.65-0.903-1.606-0.64-2.49c0.161-0.547,16.802-54.756,68.845-87.109
					c83.264-51.758,174.431-51.147,243.865,1.655c47.178,35.874,71.899,88.955,60.12,129.087
					c-6.489,22.1-24.172,40.786-49.792,52.608C2449.731,2030.987,2427.783,2035.376,2405.747,2035.376z M2271.723,1892.735
					c3.054,0,6.03,1.04,8.452,3.003c3.108,2.52,4.912,6.255,4.944,10.249c0.21,25.713,6.448,88.096,59.688,111.914
					c37.427,16.733,85.251,16.66,121.841-0.225c24.29-11.211,41.013-28.779,47.087-49.473
					c11.211-38.188-12.781-89.058-58.347-123.701c-67.722-51.489-156.765-52.012-238.196-1.387
					c-41.65,25.889-59.91,66.216-65.078,79.717c12.81-3.945,48.198-14.717,65.586-18.794c17.385-4.067,39.617-8.657,51.323-11.03
					C2269.922,1892.828,2270.827,1892.735,2271.723,1892.735z M2269.519,1895.459h0.049H2269.519z"/>
			</g>
			<g style="opacity:0.3;">
				<path style="fill:#000072;" d="M2518.677,1955.198c-0.413,4.694-1.239,9.275-2.553,13.705
					c-16.784,57.187-106.377,80.806-172.351,51.292c-54.221-24.257-60.942-86.738-61.167-114.187
					c-0.038-6.872-6.383-11.903-13.105-10.552c-13.518,2.741-34.658,7.134-51.217,11.002c-21.516,5.069-70.179,20.239-70.179,20.239
					s5.557-18.624,20.727-40.478c12.542-3.868,48.138-14.719,65.711-18.812c16.597-3.868,37.7-8.261,51.255-11.039
					c6.721-1.352,13.029,3.717,13.104,10.551c0.225,27.448,6.947,89.93,61.167,114.187
					C2415.229,2005.777,2486.873,1993.348,2518.677,1955.198z"/>
			</g>
			<g style="opacity:0.6;">
				<path style="fill:#FFFFFF;" d="M2517.325,1964.135c-16.296-84.936-150.309-184.554-301.444-90.568
					c-22.229,13.781-37.812,31.466-48.401,47.199c-11.152,3.38-19.375,5.933-19.375,5.933s15.921-53.47,67.776-85.687
					C2387.105,1734.559,2536.288,1876.458,2517.325,1964.135z"/>
			</g>
			<g>
				<path style="fill:#000072;" d="M2405.757,2048.067c-23.442,0-46.978-4.722-68.103-14.175
					c-59.812-26.758-68.945-93.276-69.949-122.734c-13.337,2.729-31.541,6.553-46.006,9.941
					c-20.74,4.858-68.645,19.78-69.126,19.932c-5.298,1.646-11.072,0.244-15.024-3.652c-3.95-3.901-5.427-9.658-3.843-14.976
					c0.718-2.407,18.201-59.331,74.236-94.165c87.854-54.609,184.321-53.74,258.052,2.319
					c51.218,38.945,77.764,97.578,64.553,142.578c-7.52,25.625-27.607,47.09-56.56,60.449
					C2453.071,2043.238,2429.46,2048.067,2405.757,2048.067z M2269.253,1880.772c6.394,0,12.639,2.153,17.737,6.216
					c6.594,5.254,10.491,13.096,10.688,21.519c0.669,28.159,8.345,78.325,52.241,97.964c34.275,15.332,78.032,15.268,111.482-0.161
					c20.962-9.673,35.281-24.458,40.322-41.631c9.626-32.788-13.047-79.141-53.911-110.21
					c-63.418-48.213-147.161-48.481-224.011-0.723c-22.813,14.185-38.03,33.145-47.6,48.735c13.748-4.053,28.809-8.325,38.645-10.63
					c15.486-3.628,35.015-7.71,48.672-10.498C2265.425,1880.962,2267.346,1880.772,2269.253,1880.772z M2266.521,1896.07h0.049
					H2266.521z"/>
			</g>
			<g>
				<path style="fill:#B5CFDD;" d="M1647.393,1540.733c0,0,6.549-389.696,324.796-374.586
					c36.57,1.736,219.442,27.11,296.569,167.829c11.01,20.088,11.153,50.967-21.947,51.377c0,0,63.81,77.254,51.904,162.746
					c-11.906,85.492-62.544,47.657-62.544,47.657s9.923,120.729-84.019,114.75L1647.393,1540.733z"/>
				<path style="fill:#000072;" d="M2158.764,1713.218c-2.217,0-4.473-0.073-6.772-0.22c-0.217-0.015-0.432-0.059-0.637-0.127
					l-504.758-169.771c-1.033-0.347-1.721-1.323-1.704-2.412c0.034-1.973,4.651-198.677,119.844-306.694
					c54.016-50.649,123.855-74.294,207.571-70.344c58.811,2.793,227.112,38.616,298.643,169.124
					c6.113,11.152,10.559,28.794,2.964,41.802c-3.103,5.317-9.438,11.577-22.236,12.988c12.483,16.709,59.939,86.011,49.514,160.879
					c-4.29,30.791-14.102,49.595-29.165,55.884c-13.162,5.483-26.499-0.156-33.105-3.872c0.51,15.62-0.315,64.248-28.03,92.48
					C2197.661,1706.412,2180.146,1713.218,2158.764,1713.218z M2152.634,1708.028c22.83,1.416,41.204-4.873,54.678-18.584
					c31.033-31.597,26.418-92.866,26.367-93.481c-0.078-0.981,0.422-1.914,1.282-2.388c0.857-0.483,1.912-0.415,2.705,0.176
					c0.168,0.132,17,12.451,32.461,5.947c13.303-5.571,22.087-23.047,26.113-51.948c11.619-83.433-50.725-160.039-51.357-160.806
					c-0.613-0.742-0.745-1.768-0.339-2.642c0.405-0.874,1.274-1.44,2.236-1.45c11.038-0.137,18.713-3.77,22.815-10.796
					c6.123-10.483,2.891-26.079-3.03-36.88c-70.425-128.489-236.462-163.777-294.497-166.531
					c-82.339-3.94-150.906,19.299-203.894,68.982c-107.751,101.021-117.478,281.235-118.225,301.328L2152.634,1708.028z"/>
			</g>
			<g style="opacity:0.6;">
				<path style="fill:#FFFFFF;" d="M2240.325,1598.331c-2.628-1.427-4.168-2.591-4.168-2.591s9.951,120.758-83.997,114.75
					l-11.302-3.792c76.874-35.5,79.304-143.738,79.304-143.738S2229.023,1581.809,2240.325,1598.331z"/>
			</g>
			<g style="opacity:0.6;">
				<path style="fill:#FFFFFF;" d="M2298.714,1548.09c-2.741,19.638-1.826,50.462-36.446,55.948
					c48.051-95.834-71.677-235.02-71.677-235.02c33.118-0.413,75.755,27.786,64.753,7.698
					c-77.164-140.734-260.028-166.117-296.601-167.845c-173.402-8.224-254.283,103.748-291.982,207.384
					c30.302-112.61,107.691-259.502,305.425-250.115c36.573,1.727,219.437,27.11,296.563,167.844
					c11.002,20.089,11.152,50.954-21.929,51.367C2246.821,1385.352,2310.617,1462.591,2298.714,1548.09z"/>
			</g>
			<g>
				<path style="fill:#000072;" d="M2158.86,1725.743c-2.51,0-5.063-0.083-7.664-0.249c-1.306-0.083-2.593-0.337-3.833-0.752
					l-504.758-169.771c-6.201-2.09-10.339-7.949-10.229-14.492c0.139-8.276,4.775-204.009,123.796-315.615
					c56.582-53.059,129.521-77.873,216.729-73.718c2.183,0.103,219.495,12.258,309.028,175.613
					c7.686,14.019,13.027,36.606,2.795,54.131c-2.244,3.843-6.299,9.097-13.154,13.184c19.143,29.209,51.262,89.736,42.021,156.094
					c-4.941,35.493-17.305,57.598-36.743,65.713c-9.106,3.799-18.027,3.862-25.754,2.368c-1.492,23.613-7.866,59.619-31.267,83.457
					C2204.148,1717.671,2183.667,1725.743,2158.86,1725.743z M2155.002,1695.616c18.54,0.859,32.722-4.087,43.389-14.956
					c22.473-22.891,24.087-68.159,22.813-83.672c-0.486-5.889,2.527-11.509,7.695-14.37c5.161-2.866,11.528-2.432,16.262,1.108
					c0.02,0.01,11.58,8.071,20.203,4.395c8.523-3.638,15.256-18.984,18.477-42.095c10.823-77.725-48.025-150.4-48.621-151.123
					c-3.667-4.463-4.456-10.64-2.021-15.879c2.437-5.234,7.651-8.618,13.428-8.691c6.335-0.078,10.425-1.621,12.158-4.59
					c3.018-5.166,1.641-15.718-3.198-24.546c-67.656-123.442-228.027-157.385-284.111-160.046
					c-78.784-3.748-144.243,18.308-194.656,65.53c-94.531,88.55-111.072,241.533-113.862,283.442L2155.002,1695.616z"/>
			</g>
			<g>
				<path style="fill:#B5CFDD;" d="M1375.9,1693.715c0,0-336.729-196.264-488.659,83.783
					c-17.459,32.181-90.483,201.748-10.069,340.615c11.479,19.823,37.819,35.941,55.315,7.84c0,0,33.027,94.6,112.322,128.701
					c79.295,34.102,73.163-28.812,73.163-28.812s98.128,71.026,141.677-12.427L1375.9,1693.715z"/>
				<path style="fill:#000072;" d="M1084.804,2267.291c-11.265,0-24.958-3.447-40.984-10.342
					c-69.443-29.863-104.136-106.357-111.961-125.688c-7.839,10.22-16.516,12.612-22.629,12.295
					c-15.061-0.239-27.847-13.179-34.221-24.185c-74.582-128.799-18.044-291.309,10.034-343.062
					c39.966-73.672,96.387-121.147,167.698-141.113c152.061-42.583,322.712,55.366,324.419,56.362
					c0.94,0.547,1.418,1.641,1.179,2.705l-116.252,519.702c-0.046,0.21-0.122,0.415-0.222,0.61
					c-11.348,21.748-27.388,35.2-47.673,39.985c-38.508,9.058-80.53-15.405-93.625-23.931c-0.242,7.583-2.324,21.909-13.835,30.322
					C1100.945,2265.176,1093.618,2267.291,1084.804,2267.291z M932.487,2123.453c0.09,0,0.183,0.005,0.276,0.015
					c0.955,0.107,1.768,0.752,2.085,1.66c0.327,0.938,33.611,93.97,110.95,127.231c26.824,11.533,46.333,13.066,57.983,4.556
					c13.574-9.917,11.724-30.62,11.704-30.825c-0.095-0.981,0.391-1.924,1.243-2.412c0.854-0.483,1.914-0.43,2.71,0.142
					c0.503,0.361,50.525,36.05,93.621,25.874c18.713-4.424,33.589-16.914,44.221-37.144l115.776-517.568
					c-17.573-9.771-176.772-94.8-318.989-54.966c-69.949,19.595-125.337,66.25-164.629,138.677
					c-27.708,51.064-83.533,211.367-10.102,338.169c6.172,10.659,17.834,21.504,29.976,21.694c0.11,0.005,0.22,0.005,0.33,0.005
					c7.998,0,14.968-4.683,20.725-13.931C930.825,2123.892,931.631,2123.453,932.487,2123.453z"/>
			</g>
			<g style="opacity:0.6;">
				<path style="fill:#FFFFFF;" d="M1375.906,1693.706l-4.844,21.591c-90.681-41.229-331.146-122.71-452.881,101.721
					c-16.672,30.715-83.885,186.431-20.201,321.233c-8.411-4.018-15.921-11.753-20.802-20.126
					c-80.43-138.894-7.397-308.429,10.063-340.608C1039.166,1497.436,1375.906,1693.706,1375.906,1693.706z"/>
			</g>
			<g>
				<path style="fill:#FF7878;" d="M1378.805,1826.291c94.227,78.757,43.082,221.403-63.907,281.69
					c-106.99,60.287-257.873,53.159-323.536-63.371c-60.287-106.99-26.7-250.9,84.562-302.881
					C1173.982,1695.917,1303.48,1763.333,1378.805,1826.291z"/>
				<path style="fill:#000072;" d="M1174.258,2147.925c-73.901,0-144.983-30.947-185.073-102.09
					c-31.746-56.333-38.686-123.774-19.045-185.029c17.61-54.927,54.805-98.018,104.729-121.343
					c96.56-45.107,224.944,17.544,305.542,84.907l0,0c36.394,30.42,54.031,73.374,49.663,120.947
					c-5.92,64.468-50.647,129.17-113.948,164.839C1273.01,2134.449,1223.02,2147.925,1174.258,2147.925z M1147.612,1729.141
					c-24.622,0-48.496,4.512-70.63,14.854c-48.647,22.729-84.902,64.756-102.083,118.335
					c-19.216,59.937-12.424,125.928,18.64,181.055c65,115.352,213.811,122.329,320.129,62.417
					c61.914-34.888,105.652-98.057,111.426-160.942c2.979-32.461-2.91-79.053-47.893-116.65l0,0
					C1316.357,1777.354,1228.044,1729.141,1147.612,1729.141z"/>
			</g>
			<g>
				<path style="fill:#FF7878;" d="M1401.44,2023.087c-19.901,34.02-49.978,64.285-86.551,84.899
					c-106.977,60.266-257.85,53.169-323.523-63.383c-60.304-106.978-26.698-250.903,84.561-302.871
					c18.7-8.712,38.488-13.33,58.877-14.644c86.551-5.632,183.015,48.251,243.995,99.205
					C1440.829,1878.11,1439.89,1957.601,1401.44,2023.087z"/>
				<path style="fill:#000072;" d="M1174.267,2147.92c-73.906,0-144.993-30.947-185.081-102.095
					c-31.748-56.323-38.694-123.76-19.053-185.015c17.61-54.932,54.805-98.027,104.734-121.348
					c18.223-8.486,38.333-13.491,59.773-14.873c86.445-5.615,183.621,47.861,245.762,99.785
					c57.31,47.871,66.414,126.367,23.193,199.976c-20.552,35.127-51.619,65.601-87.478,85.811
					C1273.01,2134.449,1223.022,2147.92,1174.267,2147.92z M1147.407,1729.18c-4.175,0-8.315,0.132-12.444,0.4
					c-20.818,1.343-40.327,6.192-57.983,14.414c-48.647,22.725-84.905,64.751-102.085,118.34
					c-19.216,59.937-12.419,125.923,18.647,181.04c64.998,115.347,213.801,122.324,320.12,62.432
					c35.103-19.78,65.51-49.609,85.62-83.984h0.002c41.917-71.392,33.247-147.388-22.087-193.608
					C1318.779,1779.4,1229.143,1729.18,1147.407,1729.18z"/>
			</g>
			<g style="opacity:0.3;">
				<path style="fill:#000072;" d="M1401.44,2023.087c-95.788,25.797-203.479,2.779-256.235-90.794
					c-36.272-64.397-38.563-142.161-10.401-205.206c86.551-5.632,183.015,48.251,243.995,99.205
					C1440.829,1878.11,1439.89,1957.601,1401.44,2023.087z"/>
			</g>
			<g>
				<path style="fill:#000072;" d="M1174.187,2160.435c-78.042,0-153.33-32.891-195.911-108.452
					c-33.45-59.36-40.762-130.435-20.059-195c18.687-58.281,58.233-104.043,111.35-128.862
					c101.904-47.603,235.454,16.929,318.87,86.646l0,0c39.644,33.135,58.857,79.907,54.104,131.694
					c-6.284,68.442-53.494,136.978-120.271,174.604C1277.304,2146.402,1225.156,2160.435,1174.187,2160.435z M1147.971,1741.558
					c-22.976,0-45.173,4.194-65.688,13.779c-45.454,21.235-79.355,60.591-95.461,110.815
					c-18.157,56.626-11.731,118.984,17.627,171.084c61.155,108.535,202.124,114.546,303.076,57.656
					c58.438-32.925,99.692-92.266,105.103-151.177c2.708-29.482-2.634-71.782-43.452-105.903l0,0
					C1310.168,1788.497,1224.792,1741.558,1147.971,1741.558z"/>
			</g>
			<g>
				<path style="fill:#FF7878;" d="M1746.384,1619.166c18.556,121.396,167.066,151.54,274.055,91.253
					s179.052-193.041,113.388-309.572c-60.287-106.99-200.783-152.807-302.881-84.562
					C1740.966,1376.43,1731.55,1522.121,1746.384,1619.166z"/>
				<path style="fill:#000072;" d="M1906.094,1743.052c-30.049,0-59.167-6.069-84.46-18.379
					c-42.952-20.908-70.554-58.242-77.72-105.132l0,0c-15.872-103.833-2.966-246.104,85.645-305.337
					c45.808-30.62,101.934-40.103,158.035-26.724c62.573,14.927,116.667,55.801,148.413,112.139
					c66.541,118.086-5.881,251.865-114.338,312.979C1985.869,1732.769,1945.198,1743.052,1906.094,1743.052z M1748.855,1618.79
					c8.86,57.949,45.657,87.119,74.968,101.387c56.777,27.642,133.472,22.944,195.388-11.933
					c106.316-59.907,177.441-190.811,112.439-306.172c-31.064-55.127-83.994-95.122-145.217-109.727
					c-54.736-13.066-109.458-3.818-154.097,26.021C1745.678,1376.29,1733.205,1516.402,1748.855,1618.79z"/>
			</g>
			<g>
				<path style="fill:#FF7878;" d="M2020.438,1710.415c-40.328,22.755-86.588,32.63-129.545,29.552
					c-70.968-4.957-132.962-45.172-144.527-120.796c-12.767-83.584-7.547-203.254,51.667-273.245
					c9.5-11.302,20.427-21.291,32.931-29.626c102.096-68.264,242.567-22.454,302.871,84.561
					C2199.51,1517.375,2127.415,1650.149,2020.438,1710.415z"/>
				<path style="fill:#000072;" d="M1906.43,1743.018c-5.256,0-10.496-0.185-15.715-0.557
					c-79.819-5.576-136.079-52.671-146.819-122.915c-13.357-87.427-6.648-205.64,52.229-275.239
					c9.885-11.758,21.143-21.88,33.452-30.088c45.806-30.625,101.914-40.132,158.015-26.743
					c62.568,14.922,116.667,55.806,148.42,112.158c30.632,54.346,33.535,117.583,8.174,178.062
					c-22.986,54.814-67.644,103.979-122.522,134.897C1986.511,1732.427,1946.13,1743.018,1906.43,1743.018z M1938.1,1286.563
					c-37.903,0-74.319,10.801-105.747,31.816c-11.919,7.944-22.82,17.754-32.405,29.15c-57.8,68.325-64.299,184.922-51.111,271.265
					c10.369,67.798,64.868,113.276,142.229,118.677c43.691,3.154,89.18-7.251,128.142-29.233l0,0
					c53.931-30.381,97.803-78.667,120.366-132.476c17.51-41.758,30.352-105.781-7.917-173.677
					c-31.074-55.142-84.006-95.147-145.227-109.746C1970.237,1288.477,1954.035,1286.563,1938.1,1286.563z"/>
			</g>
			<g style="opacity:0.3;">
				<path style="fill:#000072;" d="M1890.893,1739.967c-70.968-4.957-132.962-45.172-144.527-120.796
					c-12.767-83.584-7.547-203.254,51.667-273.245c66.011,10.401,128.193,51.93,163.226,114.149
					C2017.659,1560.143,1972.525,1672.115,1890.893,1739.967z"/>
			</g>
			<g>
				<path style="fill:#000072;" d="M1906.064,1755.523c-31.943,0-62.949-6.47-89.91-19.595
					c-46.76-22.759-76.812-63.423-84.617-114.492l0,0c-16.428-107.471-2.437-255.142,91.062-317.637
					c48.743-32.578,108.364-42.695,167.9-28.496c65.952,15.737,122.961,58.804,156.414,118.169
					c70.386,124.912-5.283,265.899-119.102,330.034C1990.168,1744.717,1947.336,1755.523,1906.064,1755.523z M1761.23,1616.895
					c8.04,52.588,41.455,79.067,68.071,92.026c53.191,25.884,125.322,21.343,183.765-11.587
					c100.955-56.885,168.833-180.586,107.676-289.116c-29.358-52.099-79.37-89.897-137.214-103.696
					c-51.296-12.236-102.524-3.633-144.233,24.248C1757.524,1383.428,1746.137,1518.145,1761.23,1616.895L1761.23,1616.895z"/>
			</g>
			<g>
				<path style="fill:#000072;" d="M1084.909,2279.766c-13.118,0-28.496-3.77-46.035-11.313
					c-61.543-26.47-96.68-85.293-111.753-116.807c-7.046,3.755-13.63,4.565-18.091,4.429c-20.288-0.327-36.843-16.597-44.856-30.435
					c-93.352-161.206,8.821-353.379,9.866-355.303c41.641-76.758,100.63-126.284,175.325-147.197
					c157.129-43.999,326.946,53.428,334.099,57.598c5.652,3.296,8.523,9.873,7.095,16.255l-116.252,519.702
					c-0.286,1.279-0.737,2.515-1.343,3.672c-13.105,25.117-31.914,40.723-55.898,46.377c-32.522,7.661-66.614-5.532-87.583-16.484
					c-2.72,7.383-7.397,14.98-15.366,20.801C1106.169,2276.866,1096.408,2279.766,1084.909,2279.766z M932.485,2110.933
					c0.549,0,1.104,0.029,1.658,0.093c5.747,0.635,10.62,4.517,12.524,9.976c0.305,0.869,31.985,88.853,104.077,119.854
					c21.436,9.219,38.042,11.411,45.576,6.006c7.617-5.474,6.704-19.536,6.694-19.673c-0.474-5.845,2.49-11.494,7.598-14.37
					c5.112-2.871,11.423-2.573,16.167,0.859c0.437,0.317,46.057,32.681,83.469,23.813c14.78-3.511,26.306-13.12,35.188-29.346
					l113.325-506.611c-37.295-19.326-176.731-84.434-301.428-49.429c-66.511,18.662-119.294,63.257-156.89,132.559
					c-26.777,49.351-80.818,204.106-10.273,325.928c5.044,8.711,13.359,15.352,19.341,15.449c3.369,0.078,6.875-2.642,10.225-8.027
					C922.497,2113.58,927.339,2110.933,932.485,2110.933z"/>
			</g>
			<g>
				<path style="fill:#B5CFDD;" d="M1498.558,1551.43c259.167-146.037,608.943-7.882,724.633,197.43
					c124.718,221.333-32.358,429.938-289.48,574.823s-516.925,171.184-641.643-50.149
					C1176.379,2068.222,1239.392,1697.467,1498.558,1551.43z"/>
				<path style="fill:#000072;" d="M1574.236,2438.584c-3.716,0-7.397-0.049-11.062-0.142
					c-121.956-3.228-213.901-58.296-273.281-163.682c-57.729-102.451-71.777-246.416-37.576-385.107
					c37.368-151.538,124.385-272.427,245.015-340.4l1.228,2.178l-1.228-2.178c259.102-145.996,610.137-10.859,728.04,198.384
					c59.382,105.381,58.857,212.554-1.558,318.54c-53.235,93.394-153.125,183.193-288.875,259.683
					C1803.821,2399.742,1679.406,2438.584,1574.236,2438.584z M1737.859,1493.033c-85.386,0-166.672,20.342-238.071,60.576
					c-119.419,67.29-205.581,187.061-242.617,337.246c-33.904,137.48-20.044,280.083,37.078,381.455
					c58.457,103.74,148.982,157.954,269.058,161.133c106.506,2.847,234.214-35.894,369.177-111.938
					c134.961-76.05,234.202-165.195,286.987-257.803c59.482-104.351,60.002-209.868,1.545-313.613
					c-57.122-101.367-171.919-187.095-307.083-229.312C1854.563,1502.232,1795.283,1493.033,1737.859,1493.033z"/>
			</g>
			<g style="opacity:0.6;">
				<path style="fill:#FFFFFF;" d="M2256.058,1983.322c6.533-60.529-5.97-123.386-41.98-187.258
					c-115.689-205.318-465.459-343.462-724.624-197.434c-132.098,74.423-213.242,207.271-245.759,346.804
					c23.994-156.167,107.916-311.207,254.846-394.003c259.202-146.029,608.972-7.885,724.661,197.433
					C2268.637,1829.521,2276.673,1908.487,2256.058,1983.322z"/>
			</g>
			<g style="opacity:0.3;">
				<path style="fill:#000072;" d="M2242.24,2023.237c-47.875,114.525-161.949,217.823-308.542,300.431
					c-257.099,144.902-516.901,171.186-641.64-50.128c-85.349-151.51-73.446-393.102,42.844-568.006
					c-75.586,164.052-74.31,361.673-0.713,492.307c124.738,221.314,384.541,195.03,641.64,50.128
					C2089.34,2184.023,2183.363,2107.647,2242.24,2023.237z"/>
			</g>
			<g>
				<path style="fill:#FFFFFF;" d="M1996.958,2104.546c35.67,63.303-9.277,131.899-87.551,176.005s-160.232,47.02-195.902-16.283
					c-35.67-63.303,14.224-123.12,92.498-167.226C1884.276,2052.936,1961.288,2041.243,1996.958,2104.546z"/>
			</g>
			<g>
				<path style="fill:#000072;" d="M1574.206,2451.104c-3.813,0-7.6-0.049-11.365-0.146
					c-126.663-3.354-222.166-60.566-283.857-170.049c-59.255-105.161-73.77-252.544-38.823-394.248
					c38.203-154.927,127.354-278.628,251.025-348.315l0,0c265.142-149.399,624.409-11.03,745.093,203.145
					c61.692,109.482,61.157,220.811-1.587,330.889c-54.358,95.361-155.886,186.787-293.608,264.39
					C1808.088,2411.709,1681.55,2451.104,1574.206,2451.104z M1505.932,1564.517c-116.377,65.576-200.405,182.534-236.606,329.331
					c-33.159,134.468-19.766,273.652,35.83,372.314c56.145,99.644,143.11,151.714,258.479,154.766
					c104.231,2.686,229.712-35.396,362.703-110.332c132.988-74.937,230.591-162.451,282.256-253.091
					c57.151-100.264,57.661-201.626,1.514-301.27c-55.593-98.662-167.71-182.217-299.907-223.506
					C1765.888,1487.652,1622.312,1498.941,1505.932,1564.517L1505.932,1564.517z M1498.559,1551.431h0.049H1498.559z"/>
			</g>
			<g>
				<path style="fill:#000072;" d="M2036.058,1815.984c10.497,7.776,16.77,19.229,20.946,30.896
					c4.02,11.821,5.608,24.551,4.46,37.368c-1.183,12.773-5.139,25.745-12.228,37.092c-6.992,11.375-16.836,21.025-27.954,27.925
					c-11.058,6.775-23.749,11.619-37.133,12.993c-13.35,1.404-26.98-0.811-38.892-5.972c-23.823-10.447-41.361-30.803-48-53.857
					c-0.773-2.688,0.778-5.491,3.463-6.265c2.114-0.61,4.301,0.22,5.514,1.912l0.122,0.173
					c12.263,17.148,29.279,29.875,47.327,34.688c18.042,5.022,36.022,1.245,51.595-8.879c15.273-10.093,25.602-25.107,29.734-43.662
					c2.086-9.197,2.729-19.082,1.829-28.953c-0.853-9.885-3.315-19.722-7.916-28.433l-0.328-0.62
					c-1.3-2.463-0.358-5.515,2.104-6.814C2032.472,1814.641,2034.55,1814.868,2036.058,1815.984z"/>
			</g>
			<g>
				<path style="fill:#000072;" d="M1467.09,2135.232c5.068,8.447,12.207,15.649,20.22,21.499
					c7.976,5.884,16.766,10.454,25.714,13.435c18.01,6.074,36.204,5.02,52.749-2.817c16.727-8.079,29.272-21.499,34.323-39.534
					c5.233-17.932,3.159-39.08-5.156-58.452l-0.081-0.186c-1.102-2.568,0.085-5.544,2.655-6.648c2.02-0.867,4.299-0.31,5.714,1.216
					c16.281,17.622,24.609,43.169,21.205,68.958c-1.757,12.864-6.923,25.669-15.039,36.36
					c-8.109,10.735-18.826,19.082-30.349,25.032c-11.66,5.935-25.015,9.358-38.368,9.446c-13.376,0.186-26.521-3.149-38.06-8.752
					c-11.559-5.659-21.624-13.611-29.653-23.174c-7.816-9.617-14.364-20.916-15.579-33.921c-0.259-2.773,1.779-5.232,4.552-5.491
					c1.992-0.186,3.823,0.815,4.791,2.422L1467.09,2135.232z"/>
			</g>
			<g>
				<path style="fill:#000072;" d="M1704.699,1930.062c5.905-5.999,13.465-10.259,21.655-12.202
					c51.854-12.305,126.842,32.868,164.914,78.327c35.094,41.902,72.608,116.428-35.206,177.179
					c-107.813,60.751-152.129-9.942-169.792-61.666C1667.108,2055.585,1667.313,1968.042,1704.699,1930.062z"/>
			</g>
			<g>
				<path style="fill:#B5CFDD;" d="M1360.677,1719.657c-20.706-69.964,43.017-310.958,136.031-271.631
					c13.69,5.788,41.856,29.589,24.65,65.044c-15.693,32.339-26.492,66.945-23.152,59.457
					c16.139-36.189,98.009-148.441,147.844-104.955c23.737,20.713,6.856,66.881-19.11,89.312"/>
				<path style="fill:#000072;" d="M1360.678,1722.159c-1.079,0-2.075-0.703-2.397-1.792
					c-15.779-53.311,17.361-208.276,76.433-261.06c20.264-18.115,41.443-22.69,62.969-13.589
					c7.715,3.267,22.456,13.267,28.757,30.039c4.575,12.178,3.623,25.098-2.834,38.403c-5.869,12.095-10.969,24.311-14.905,34.507
					c21.76-34.111,63.12-83.906,100.979-92.246c14.512-3.193,27.302-0.083,38.013,9.263c8.027,7.007,12.256,17.261,12.224,29.663
					c-0.054,21.455-12.942,47.534-31.343,63.423c-1.038,0.908-2.62,0.791-3.525-0.254c-0.903-1.045-0.786-2.627,0.259-3.525
					c17.383-15.015,29.558-39.546,29.609-59.658c0.027-10.908-3.606-19.858-10.51-25.879c-9.451-8.252-20.769-10.986-33.65-8.149
					c-46.238,10.186-98.289,85.381-110.269,112.241c-0.469,1.05-1.05,2.354-2.622,2.5c-0.894,0.132-1.794-0.332-2.307-1.074
					c-2.178-3.14,14.67-44.697,23.55-62.998c5.833-12.017,6.726-23.613,2.651-34.458c-5.718-15.215-19.524-24.438-26.025-27.188
					c-19.578-8.281-38.989-3.999-57.688,12.705c-57.925,51.763-90.435,203.667-74.971,255.918c0.391,1.323-0.364,2.715-1.687,3.105
					C1361.152,1722.125,1360.913,1722.159,1360.678,1722.159z"/>
			</g>
			<g style="opacity:0.6;">
				<path style="fill:#FFFFFF;" d="M1498.206,1567.526l-3.187,16.701c-0.991,5.196,2.385,10.221,7.57,11.267h0
					c9.932,2.003,19.866-3.155,24.069-12.374c11.292-24.771,40.072-73.696,83.341-88.119c0,0,35.118-22.07,41.309,22.715
					l6.108-46.745l-15.963-18.431l-37.949,3.243L1557.5,1482.5l-18.86,24.802L1498.206,1567.526z"/>
			</g>
			<g style="opacity:0.6;">
				<g>
					<path style="fill:#FFFFFF;" d="M1521.708,1473.025c0.338,0.144,0.719,0.347,1.073,0.51
						c-6.243-13.394-18.416-22.273-26.073-25.51c-93.014-39.326-156.736,201.667-136.03,271.631l21.117-12.908
						C1383.269,1613.074,1441.631,1439.167,1521.708,1473.025z"/>
				</g>
			</g>
			<g>
				<path style="fill:#000072;" d="M1360.671,1734.683c-6.482,0-12.461-4.229-14.395-10.762
					c-16.98-57.368,16.877-217.461,80.095-273.95c30.137-26.934,58.059-23.457,76.187-15.781
					c11.87,5.02,28.313,17.769,35.601,37.163c1.895,5.044,3.04,10.234,3.445,15.513c20.051-20.518,42.998-37.739,65.383-42.671
					c18.333-4.043,35.264,0.122,48.938,12.056c10.842,9.463,16.553,22.993,16.511,39.126c-0.063,25.21-14.402,54.497-35.679,72.871
					c-6.272,5.425-15.762,4.731-21.184-1.548s-4.729-15.767,1.55-21.187c14.368-12.407,25.232-33.994,25.273-50.21
					c0.017-7.275-2.075-12.798-6.223-16.416c-6.47-5.649-13.687-7.344-22.725-5.357c-39.363,8.672-89.648,78.482-101.528,105.112
					c-3.506,7.866-9.58,9.561-12.886,9.868c-5.405,0.498-10.679-1.948-13.767-6.406c-5.02-7.241-2.964-12.783,4.685-33.398
					c3.835-10.332,10.051-26.04,17.891-42.197c4.338-8.936,5.056-16.978,2.195-24.59c-3.887-10.352-13.828-17.798-19.182-20.063
					c-9.531-4.028-24.509-7.329-44.468,10.513c-53.269,47.603-85.898,193.73-71.309,243.027c2.354,7.954-2.185,16.309-10.139,18.667
					C1363.52,1734.483,1362.082,1734.683,1360.671,1734.683z"/>
			</g>
			<g style="opacity:0.7;">
				<path style="fill:#FFFFFF;" d="M1714.215,2028.968c-18.857,19.267-0.833,70.897,18.129,91.644
					c19.64,21.489,35.408,30.601,46.903,19.674c16.052-15.259,6.516-37.56-10.668-58.418
					C1756.427,2067.118,1737.486,2005.19,1714.215,2028.968z"/>
				<path style="fill:#000072;" d="M1768.237,2147.422c-0.222,0-0.444-0.005-0.669-0.01c-9.951-0.352-21.729-8.33-37.07-25.117
					c-18.369-20.098-38.63-74.063-18.071-95.073l0,0c4.624-4.722,9.514-6.748,14.563-5.972
					c13.164,1.997,23.584,22.349,32.778,40.303c3.958,7.725,7.695,15.024,10.74,18.721c27.402,33.267,20.813,51.982,10.461,61.826
					C1777.248,2145.635,1772.969,2147.422,1768.237,2147.422z M1716.001,2030.718c-17.192,17.568-0.825,67.402,18.188,88.208
					c14.177,15.508,25.154,23.193,33.555,23.486c3.679,0.225,6.855-1.157,9.78-3.936c12.817-12.188,9.16-30.698-10.874-55.02
					c-3.391-4.116-7.073-11.304-11.333-19.629c-8.218-16.045-18.447-36.021-29.08-37.632
					C1722.837,2025.669,1719.487,2027.154,1716.001,2030.718L1716.001,2030.718z"/>
			</g>
			<g>
				<path style="fill:#B5CFDD;" d="M2262.536,2493.188c124.674,5.998,203.736-50.153,238.673,71.642
					c5.685,19.819,5.337,48.038,20.865,92.68c36.002,103.507,189.549,127.345,266.879,83.703
					c147.026-82.975-30.57-219.084-30.57-219.084s53.861-371.205-310.024-234.314"/>
				<path style="fill:#000072;" d="M2699.56,2764.571c-28.079,0-57.158-4.98-83.862-15.068
					c-47.715-18.022-81.804-50.4-95.984-91.172c-10.088-28.999-13.489-50.884-16.221-68.462c-1.455-9.37-2.712-17.461-4.688-24.351
					c-24.661-85.952-71.606-81.245-142.651-74.082c-27.62,2.773-58.923,5.942-93.738,4.248c-1.379-0.063-2.444-1.235-2.378-2.617
					c0.068-1.377,1.284-2.49,2.617-2.373c34.446,1.631,65.554-1.475,92.998-4.233c70.916-7.144,122.153-12.285,147.957,77.681
					c2.063,7.188,3.342,15.425,4.824,24.961c2.7,17.378,6.062,39.014,16.001,67.588c13.687,39.346,46.724,70.645,93.027,88.135
					c57.334,21.655,125.754,19.326,170.261-5.791c35.647-20.117,54.758-45.098,56.804-74.253
					c4.839-68.931-86.741-139.956-87.666-140.669c-0.718-0.547-1.084-1.445-0.952-2.339c0.229-1.597,22.134-160.469-63.765-229.57
					c-52.515-42.236-134.243-42.925-242.905-2.051c-1.292,0.498-2.734-0.166-3.22-1.46c-0.488-1.289,0.166-2.734,1.458-3.218
					c110.449-41.548,193.823-40.586,247.813,2.842c83.645,67.3,67.786,216.362,65.757,232.72
					c11.245,8.857,93.252,75.952,88.469,144.097c-2.17,30.933-22.134,57.261-59.336,78.257
					C2765.281,2757.442,2733.139,2764.571,2699.56,2764.571z"/>
			</g>
			<g style="opacity:0.6;">
				<path style="fill:#FFFFFF;" d="M2823.395,2720.262c24.819-157.921-105.866-129.097-105.866-129.097
					s85.551-360.665-255.168-290.214c-7.661,1.584-13.462-6.707-9.013-13.142l0,0c363.889-136.866,310.043,234.307,310.043,234.307
					S2913.55,2637.203,2823.395,2720.262z"/>
			</g>
			<g style="opacity:0.3;">
				<path style="fill:#000072;" d="M2788.956,2741.214c-77.351,43.633-230.89,19.789-266.899-83.697
					c-15.508-44.646-15.17-72.883-20.84-92.671c-34.958-121.809-113.999-65.673-238.662-71.644l59.365-65.636
					c102.922-3.98,169.497-37.437,200.738,71.531c5.67,19.826,5.332,48.025,20.877,92.671
					c36.01,103.523,189.548,127.367,266.862,83.697c15.357-8.674,27.186-17.911,36.01-27.523
					C2850.799,2680.272,2837.77,2713.653,2788.956,2741.214z"/>
			</g>
			<g>
				<path style="fill:#000072;" d="M2263.258,2478.186c19.252,0.842,38.616,0.369,58.181-1.172
					c19.572-1.416,39.292-3.877,59.789-5.508c10.269-0.779,20.76-1.34,31.636-1.016c10.85,0.342,22.197,1.582,33.573,5.042
					c11.364,3.347,22.535,9.468,31.564,17.559c9.106,8.054,16.089,17.673,21.603,27.488c5.54,9.858,9.432,20.017,12.936,30.151
					c1.553,5.105,3.284,9.983,4.584,15.796c1.262,5.52,2.117,10.735,2.915,15.762c2.977,20.02,6.268,38.413,11.877,56.802
					c1.355,4.573,2.871,9.136,4.407,13.64c1.675,4.099,3.087,8.313,5.176,12.227c1.783,4.058,4.204,7.786,6.398,11.633
					c2.55,3.635,4.935,7.383,7.85,10.774c5.585,6.941,11.918,13.369,18.997,19.031c7.023,5.706,14.55,10.93,22.643,15.325
					c32.23,17.869,70.522,26.023,107.919,25.12c18.719-0.435,37.325-3.435,54.601-9.167c8.645-3.003,16.67-6.536,24.421-11.248
					c7.926-4.727,15.519-9.858,22.046-15.752l4.895-4.414l4.274-4.788c3.098-3.059,5.024-6.702,7.563-10.022
					c4.08-7.095,6.989-14.578,8.329-22.468c2.297-15.835-1.555-33.125-9.562-49.375c-7.803-16.328-19.117-31.667-31.598-45.974
					c-6.306-7.134-12.969-14.028-19.912-20.64c-6.849-6.543-14.377-13.103-21.398-18.569c-4.497-3.503-6.566-8.967-5.941-14.241
					l0.035-0.276c1.134-9.358,1.86-19.885,2.137-29.937c0.24-10.161,0.31-20.352-0.22-30.486c-0.8-20.273-3.022-40.459-7.434-59.924
					c-4.487-19.414-10.541-38.328-19.626-55.391c-8.989-17.097-21.03-32.109-35.721-43.862
					c-14.663-11.79-32.091-20.205-51.007-24.915c-4.673-1.326-9.598-1.89-14.399-2.9c-2.429-0.391-4.807-1.055-7.288-1.235
					l-7.44-0.583l-7.455-0.603c-2.487-0.227-4.973-0.503-7.502-0.378l-15.15,0.1c-5.061-0.178-10.138,0.596-15.222,0.996
					l-15.293,1.355c-10.14,1.724-20.37,3.125-30.546,5.105c-10.112,2.312-20.35,4.287-30.463,6.892
					c-10.029,2.903-20.137,5.659-30.306,8.362l-0.267,0.071c-2.673,0.71-5.415-0.879-6.125-3.552
					c-0.648-2.437,0.616-4.929,2.866-5.889c9.791-4.197,19.646-8.337,29.578-12.334c10.002-3.806,20.261-7.012,30.437-10.554
					c10.295-3.164,20.886-5.481,31.375-8.257l16.11-2.803c5.4-0.828,10.742-2.017,16.266-2.261l16.498-1.316
					c5.502-0.544,11.116,0,16.685,0.005l8.38,0.208c2.795,0.056,5.592,0.618,8.394,0.908c5.59,0.815,11.241,1.204,16.807,2.422
					c22.401,4.175,44.309,13.779,63.148,27.639c18.881,13.936,33.885,32.529,44.99,52.517c11.105,20.071,18.73,41.555,23.467,63.318
					c4.861,21.765,7.197,43.757,8.01,65.671c0.442,10.967,0.22,21.914-0.183,32.856c-0.477,11.052-1.283,21.614-2.847,33.203
					l-5.905-14.514c8.701,6.941,16.132,13.733,23.75,21.03c7.511,7.249,14.731,14.814,21.635,22.732
					c13.678,15.925,26.37,33.157,35.787,53.054c9.561,19.524,15.66,42.917,12.14,66.941c-1.948,11.909-6.377,23.311-12.386,33.525
					c-3.391,4.734-6.454,9.888-10.442,13.97c-1.912,2.134-3.795,4.321-5.758,6.387l-6.234,5.674
					c-8.357,7.505-17.454,13.628-26.711,19.146c-9.363,5.686-19.756,10.295-30.033,13.821c-20.75,6.892-42.142,10.227-63.439,10.747
					c-42.511,0.945-85.371-7.966-123.368-28.916c-9.502-5.181-18.527-11.392-27.028-18.308c-8.55-6.863-16.384-14.763-23.346-23.413
					c-3.599-4.233-6.654-8.911-9.812-13.501c-2.813-4.819-5.795-9.553-8.087-14.658c-2.596-4.961-4.452-10.239-6.508-15.43
					c-1.697-4.971-3.336-9.912-4.828-14.941c-6.125-19.949-9.869-41.104-12.764-60.686c-0.768-4.861-1.554-9.531-2.529-13.774
					c-0.856-3.975-2.455-8.56-3.811-13.035c-3.035-8.767-6.361-17.383-10.667-24.998c-8.597-15.408-20.092-26.458-35.763-30.962
					c-15.677-4.768-34.74-4.248-54.052-2.788c-19.432,1.538-39.479,4.031-59.861,5.513c-20.36,1.604-41.11,2.141-61.876,1.223
					c-8.286-0.366-14.707-7.383-14.34-15.669c0.366-8.289,7.382-14.707,15.669-14.341L2263.258,2478.186z"/>
			</g>
			<g>
				<path style="fill:#000072;" d="M2665.979,2614.719c18.882-13.157,35.985-27.712,49.364-43.789
					c6.792-7.988,11.912-16.719,16.725-25.139c4.869-8.518,7.71-17.434,11.57-26.516l0.8-1.882
					c3.239-7.62,12.042-11.172,19.663-7.932c6.26,2.659,9.769,9.092,9.03,15.522c-0.381,3.281-0.959,6.56-1.592,9.839
					c-0.355,1.626-0.659,3.276-1.073,4.89c-0.499,1.584-1.118,3.13-1.682,4.697c-1.179,3.108-2.239,6.304-3.755,9.248
					c-1.575,2.91-3.143,5.828-4.869,8.645c-7.073,11.108-16.171,20.596-26.147,28.247c-9.985,7.676-20.757,13.823-31.906,18.604
					c-11.238,4.639-22.694,8.206-34.736,9.626c-1.202,0.142-2.292-0.718-2.434-1.919c-0.099-0.83,0.281-1.606,0.92-2.056
					L2665.979,2614.719z"/>
			</g>
			<g>
				<ellipse style="fill:#000072;" cx="1919.354" cy="2196.635" rx="32.697" ry="36.635"/>
			</g>
		</g>
		<g>
			<g>
				<path style="fill:#FFFFFF;" d="M1169.155,1337.198c-5.457,0-10.481-3.096-12.917-8.037c-2.571-5.215-1.758-11.46,2.063-15.845
					l51.973-59.58l-45.276,2.847c-7.915,0.493-14.785-5.532-15.283-13.477c-0.5-7.939,5.535-14.785,13.477-15.283l79.731-5.015
					c5.725-0.405,11.255,2.793,13.826,8.008c2.571,5.215,1.758,11.46-2.063,15.845l-51.973,59.58l45.276-2.847
					c7.869-0.542,14.783,5.532,15.283,13.477c0.5,7.939-5.535,14.785-13.477,15.283l-79.731,5.015
					C1169.76,1337.188,1169.458,1337.198,1169.155,1337.198z"/>
			</g>
			<g>
				<path style="fill:#FFFFFF;" d="M940.964,1203.104c-5.456,0-10.481-3.096-12.917-8.037c-2.571-5.215-1.758-11.462,2.065-15.842
					l101.982-116.917l-98.682,6.204c-7.91,0.498-14.785-5.532-15.283-13.477c-0.5-7.942,5.535-14.785,13.477-15.283l133.137-8.369
					c5.737-0.381,11.252,2.791,13.826,8.008c2.571,5.215,1.758,11.462-2.065,15.842l-101.982,116.917l98.682-6.204
					c7.9-0.549,14.78,5.535,15.283,13.477c0.5,7.942-5.535,14.785-13.477,15.283l-133.137,8.369
					C941.57,1203.094,941.267,1203.104,940.964,1203.104z"/>
			</g>
			<g>
				<path style="fill:#FFFFFF;" d="M1158.098,1013.921c-5.825,0-11.189-3.303-13.792-8.579c-2.744-5.566-1.875-12.239,2.205-16.917
					l150.818-172.898l-150.139,9.436c-8.433,0.576-15.781-5.908-16.316-14.387s5.908-15.784,14.387-16.316l186.926-11.75
					c6.184-0.422,12.017,2.979,14.761,8.547c2.744,5.566,1.875,12.239-2.205,16.917l-150.818,172.898l150.139-9.436
					c8.45-0.513,15.784,5.908,16.316,14.387c0.535,8.479-5.908,15.784-14.387,16.316l-186.926,11.75
					C1158.745,1013.912,1158.42,1013.921,1158.098,1013.921z"/>
			</g>
		</g>
	</g>
</g>
</svg>
