<?xml version="1.0" encoding="utf-8"?>
<!-- Generator: Adobe Illustrator 27.5.0, SVG Export Plug-In . SVG Version: 6.00 Build 0)  -->
<svg version="1.1" id="Layer_1" xmlns="http://www.w3.org/2000/svg" xmlns:xlink="http://www.w3.org/1999/xlink" x="0px" y="0px"
	 viewBox="0 0 4000 4000" style="enable-background:new 0 0 4000 4000;" xml:space="preserve">
<g>
	<g>
		<rect style="fill:#50DEFF;" width="4000" height="4000"/>
	</g>
	<g>
		<g>
			<path style="fill:#FFFFFF;" d="M3437.599,2386.155c-172.959,49.029-194.567-135.46-92.245-175.818
				c83.815-33.09,130.374-170.246,73.35-247.666c-12.645-17.151-30.377-31.346-53.874-40.842
				c-129.744-52.421-292.626,48.496-265.253,271.891c17.974,146.216,97.332,298.439,104.357,447.321
				c3.731,78.679-12.79,156.438-69.281,231.872c-163.367,218.113-457.398,117.196-457.398,117.196l68.602-148.493
				c0,0,58.574,17.877,125.335,7.558c47.285-7.364,98.688-28.875,136.139-81.005c72.575-100.917-47.576-379.106-47.576-379.106
				s-155.664-377.653,114.628-581.619c270.243-203.966,534.77-25.241,575.854,170.101c4.457,21.221,7.51,42.102,9.156,62.498
				C3672.669,2207.236,3591.809,2342.503,3437.599,2386.155z"/>
		</g>
		<g>
			<path style="fill:#FF6F03;" d="M3437.599,2386.155c-172.959,49.029-194.567-135.46-92.245-175.818
				c83.815-33.09,130.374-170.246,73.35-247.666c18.653-4.748,38.177-7.267,58.235-7.267c72.333,0,137.35,32.654,182.455,84.638
				C3672.669,2207.236,3591.809,2342.503,3437.599,2386.155z"/>
		</g>
		<g style="opacity:0.25;">
			<path style="fill:#3B0372;" d="M3195.245,2632.357c3.73,78.679-12.791,156.439-69.281,231.873
				c-163.367,218.113-457.398,117.195-457.398,117.195l23.013-49.805c98.688,14.292,268.451,12.403,378.67-134.782
				c56.49-75.433,73.011-153.192,69.281-231.872c-7.025-148.881-86.383-301.105-104.357-447.321
				c-27.373-223.393,135.509-324.311,265.253-271.89c37.79,15.261,60.608,42.682,71.364,74.9c-4.893-2.762-10.126-5.281-15.649-7.51
				c-129.744-52.42-292.626,48.497-265.253,271.89C3108.862,2331.253,3188.219,2483.476,3195.245,2632.357z"/>
		</g>
		<g style="opacity:0.25;">
			<path style="fill:#3B0372;" d="M3428.909,2377.472c-93.989,26.646-143.261-15.649-152.321-66.374
				c24.224,9.157,56.297,10.417,96.605-1.017c173.008-48.981,253.722-213.317,212.638-408.61
				c-7.17-34.205-21.22-67.876-40.938-99.077c49.466,46.558,83.864,105.713,96.654,166.467
				C3682.632,2164.156,3601.917,2328.491,3428.909,2377.472z"/>
		</g>
		<g>
			<path style="fill:#3B0372;" d="M2833.736,3035.219c-91.133,0-160.542-23.442-163.569-24.482
				c-11.392-3.906-17.456-16.309-13.545-27.695c3.906-11.387,16.309-17.451,27.695-13.545c0.688,0.234,71.958,24.067,161.23,21.978
				c116.982-2.876,208.384-47.173,271.655-131.66c108.057-144.287,61.211-296.265,11.611-457.163
				c-20.884-67.754-42.48-137.808-50.874-206.27c-14.019-114.351,19.268-211.638,91.323-266.917
				c58.901-45.188,135.049-55.591,203.711-27.861c59.17,23.909,92.944,76.675,92.661,144.773
				c-0.337,79.902-48.613,159.097-112.295,184.209c-41.587,16.401-55.166,62.559-43.892,95.913
				c14.15,41.895,59.834,56.343,122.202,38.682c159.272-45.127,236.685-195.532,197.222-383.179
				c-20.601-97.935-98.833-185.545-199.312-223.193c-109.697-41.111-231.191-17.661-342.07,66.018
				c-253.892,191.604-109.067,552.287-107.573,555.906c12.656,29.302,122.637,292.314,45.112,400.137
				c-98.384,136.821-277.959,83.936-285.552,81.606c-11.519-3.511-18.003-15.698-14.487-27.212
				c3.516-11.509,15.708-18.003,27.183-14.497c6.504,1.958,157.49,45.854,237.456-65.356
				c53.599-74.546-17.837-283.501-49.883-357.725c-1.792-4.336-40.581-99.697-45.82-222.031
				c-7.041-164.375,50.811-297.725,167.295-385.632c123.223-92.988,259.463-118.577,383.643-72.043
				c114.106,42.756,203.081,142.869,226.675,255.049c21.357,101.543,11.689,196.157-27.964,273.608
				c-40.669,79.443-109.844,134.941-200.039,160.498c-102.964,29.175-158.833-17.686-175.396-66.675
				c-17.661-52.256,3.779-124.634,69.204-150.439c47.227-18.623,84.429-81.797,84.688-143.823
				c0.122-28.984-8.213-81.062-65.396-104.163c-54.175-21.892-114.316-13.665-160.83,22.026
				c-59.492,45.642-86.675,128.386-74.585,227.019c7.92,64.614,28.003,129.761,49.263,198.726
				c50.63,164.248,102.983,334.092-18.379,496.147c-70.957,94.746-177.095,146.323-306.943,149.146
				C2841.319,3035.18,2837.51,3035.219,2833.736,3035.219z"/>
		</g>
		<g>
			<path style="fill:#FFFFFF;" d="M2715.723,3299.836c9.641,19.04-1.26,42.392-22.092,47.091c-7.267,1.647-16.23,2.374-27.325,1.647
				c0,0-11.046,13.905-50.919,14.389H1174.349c-39.921-0.484-50.967-14.389-50.967-14.389c-11.094,0.727-20.057,0-27.324-1.647
				c-20.784-4.699-31.733-28.051-22.092-47.091c29.699-58.573,137.447-77.662,137.447-77.662
				c-275.233-227.706-149.995-573.673-59.204-762.475c50.192-104.406,62.982-245.486,64.388-350.812
				c1.163-85.269-5.184-147.137-5.184-147.137s-238.655-173.782-139.433-504.586c17.732-59.155,46.268-123.348,88.902-192.435
				c-174.946-470.285-74.707-567.666,306.627-283.954c137.399-51.113,274.991-77.517,412.729-79.164
				c147.088-1.841,294.419,24.563,441.943,79.164c381.334-283.712,481.573-186.331,306.628,283.954
				c42.247,68.505,70.686,132.117,88.466,190.836c39.388,130.18,26.501,236.136-3.779,316.85
				c-25.871,69.038-64.436,119.618-93.747,151.013l-0.194,0.194c-22.383,23.933-39.388,36.723-41.132,38.031l-0.145,0.097
				c0,0-31.588,309.099,59.203,497.949c90.792,188.802,216.03,534.769-59.203,762.475
				C2578.276,3222.174,2686.025,3241.263,2715.723,3299.836z"/>
		</g>
		<g>
			<path style="fill:#FF6F03;" d="M2713.495,1772.415c-101.208,90.501-231.339,144.957-373.244,144.957
				c-322.664,0-584.235-281.338-584.235-628.371c0-146.168,46.413-280.66,124.221-387.391
				c147.088-1.841,294.419,24.563,441.943,79.164c381.334-283.712,481.573-186.331,306.628,283.954
				c42.247,68.505,70.686,132.117,88.466,190.836C2756.662,1585.745,2743.775,1691.7,2713.495,1772.415z"/>
		</g>
		<g style="opacity:0.25;">
			<path style="fill:#3B0372;" d="M1723.116,2688.858c0,210.08,349.697,210.08,349.697,0l29.299,577.292l53.333,101.865
				l-533.883-16.671l63.978-115.464l37.477-379.096"/>
		</g>
		<g style="opacity:0.15;">
			<path style="fill:#3B0372;" d="M1353.057,3229.479l19.089-23.448c-21.22,50.628-44.136,112.496-50.822,156.923h-146.991
				c-39.921-0.484-50.968-14.389-50.968-14.389c-11.094,0.727-20.057,0-27.324-1.648c-20.784-4.699-31.734-28.051-22.092-47.091
				c29.698-58.573,137.447-77.662,137.447-77.662c-138.561-114.627-175.624-259.197-166.661-398.63
				c-6.007,174.51,50.58,299.505,166.661,377.604C1341.72,3153.609,1353.057,3229.479,1353.057,3229.479z"/>
		</g>
		<g style="opacity:0.1;">
			<g>
				<path style="fill:#3B0372;" d="M1411.388,3100.752l1.357,15.358c0,0-3.731,7.51-9.69,20.202L1411.388,3100.752z"/>
			</g>
		</g>
		<g style="opacity:0.1;">
			<g>
				<path style="fill:#3B0372;" d="M2402.974,2806.334l-25.193,288.75l12.112,51.501c-8.672-18.799-14.438-30.474-14.438-30.474
					l26.501-303.624C2401.957,2812.487,2402.344,2810.354,2402.974,2806.334z"/>
			</g>
		</g>
		<g style="opacity:0.15;">
			<path style="fill:#3B0372;" d="M2576.805,3222.163c0,0,107.749,19.089,137.447,77.662c9.641,19.04-1.308,42.392-22.092,47.091
				c-7.267,1.648-16.23,2.375-27.324,1.648c0,0-11.046,13.905-50.968,14.389h-146.991c-6.977-46.219-31.443-111.188-53.341-162.834
				l23.933,29.359c0,0,11.337-75.869,141.662-28.341c72.478-48.788,121.798-115.888,147.136-201.932
				C2703.448,3079.048,2657.229,3155.644,2576.805,3222.163z"/>
		</g>
		<g style="opacity:0.25;">
			<path style="fill:#3B0372;" d="M2405.59,2789.377c10.416-67.198,39.485-267.579,43.022-424.114
				c3.1-138.465-164.578-141.372-256.969-132.506c-19.282,3.053-38.564,5.717-57.798,8.14c-0.436,0.097-0.824,0.146-1.066,0.193
				l0.145-0.096c-160.266,20.203-319.466,20.445-477.649,0.678l0.145,0.097c-0.242-0.049-0.63-0.097-1.066-0.194
				c-20.251-2.568-40.502-5.33-60.705-8.527c-92.972-8.721-257.162-4.796-254.062,132.215
				c3.44,152.902,31.298,347.663,42.247,419.221c-121.702-192.097-234.343-280.854-320.775-72.527
				c21.269-95.878,58.428-184.247,91.131-252.269c50.192-104.357,62.982-245.389,64.388-350.716
				c1.114-85.317-5.184-147.234-5.184-147.234s-238.655-173.783-139.433-504.586l5.668-9.786c0,952.488,1628.484,952.488,1628.484,0
				c0,0,4.07,3.003,11.143,8.188c73.108,241.61-33.914,399.745-97.526,467.862l-0.194,0.194l-41.132,38.032l-0.145,0.097
				c0,0-7.703,75.337-4.554,174.316c-0.485,0.145-0.969,0.339-1.454,0.485c3.246,101.45,17.829,227.609,63.758,323.148
				c31.346,65.259,66.858,149.268,88.466,240.689C2637.947,2505.423,2526.177,2597.62,2405.59,2789.377z"/>
		</g>
		<g style="opacity:0.7;">
			<path style="fill:#FFFFFF;" d="M2322.163,1049.948c-285.746-105.714-570.621-105.714-854.672,0
				c-241.707-179.839-370.482-206.534-387.826-82.265c-20.057-198.104,108.427-194.81,387.826,13.081
				c284.051-105.714,568.925-105.714,854.672,0c279.4-207.891,407.884-211.185,387.827-13.081
				C2692.645,843.413,2563.87,870.108,2322.163,1049.948z"/>
		</g>
		<g>
			<path style="fill:#3B0372;" d="M1652.214,1568.608c-67.358-20.432-138.421-36.26-205.108-58.583
				c-3.874-1.388-5.893-5.653-4.506-9.528c1.001-2.798,3.511-4.624,6.282-4.905c18.875-1.868,37.263-0.952,55.652,1.082
				c36.836,4.342,73.017,13.835,106.907,29.238c16.907,7.854,33.396,17.134,47.912,29.348c3.269,2.751,3.689,7.629,0.94,10.898
				C1658.259,1568.576,1655.064,1569.435,1652.214,1568.608L1652.214,1568.608z"/>
		</g>
		<g>
			<path style="fill:#3B0372;" d="M1467.114,1337.395c48.759-12.002,100.685-6.793,146.87,12.494
				c15.405,6.981,30.173,16.083,42.305,28.138c2.93,2.913,2.944,7.646,0.034,10.574c-2.106,2.12-5.123,2.691-7.776,1.799
				c-29.879-9.032-58.436-15.98-88.84-21.601c-30.442-5.654-61.221-9.855-91.799-16.289
				C1459.804,1351.194,1459.215,1339.495,1467.114,1337.395L1467.114,1337.395z"/>
		</g>
		<g>
			<path style="fill:#3B0372;" d="M2320.454,1352.51c-45.535,9.316-91.331,14.776-136.338,25.662
				c-14.834,3.641-29.346,7.922-44.705,12.343c-7.257,2.244-12.811-7.3-7.341-12.488c24.297-23.909,57.576-36.408,90.383-42.69
				c32.913-5.617,66.16-6.465,98.794,2.058C2329.157,1339.45,2328.478,1351.331,2320.454,1352.51L2320.454,1352.51z"/>
		</g>
		<g>
			<path style="fill:#3B0372;" d="M1997.551,1576.478c0,32.623-46.281,59.069-103.371,59.069
				c-57.09,0-103.371-26.446-103.371-59.069c0-32.623,46.281-48.732,103.371-48.732
				C1951.271,1527.746,1997.551,1543.855,1997.551,1576.478z"/>
		</g>
		<g>
			<path style="fill:#3B0372;" d="M1916.882,1617.671l-9.729,144.38c-1.356,16.015-24.622,15.981-25.947,0
				c0,0-9.729-144.38-9.729-144.38C1870.705,1585.584,1917.63,1585.519,1916.882,1617.671L1916.882,1617.671z"/>
		</g>
		<g>
			<path style="fill:#3B0372;" d="M781.575,1545.239c141.872-8.765,311.735,21.574,433.518,96.846
				c8.456,5.366,2.185,18.669-7.391,15.341c-104.108-34.582-210.167-58.183-318.154-76.632c0-0.001-108.42-17.904-108.42-17.904
				C770.828,1561.494,771.062,1546.11,781.575,1545.239L781.575,1545.239z"/>
		</g>
		<g>
			<path style="fill:#3B0372;" d="M882.778,1954.846c60.178-61.613,135.867-108.448,218.595-133.016
				c28.119-7.484,57.52-12.213,86.878-10.008c4.741,0.354,8.293,4.485,7.939,9.224c-0.29,3.87-3.094,6.934-6.68,7.756
				c-26.55,7.166-51.841,15.908-76.873,26.06c-50.275,20.957-98.444,46.633-146.174,73.308
				c-24.163,13.375-48.407,27.315-72.896,40.593C884.845,1973.518,875.958,1962.123,882.778,1954.846L882.778,1954.846z"/>
		</g>
		<g>
			<path style="fill:#3B0372;" d="M3026.292,1562.891c-104.755,16.897-219.942,35.956-321.863,63.209
				c-35.149,9.26-69.58,20.302-104.712,31.327c-9.425,3.294-15.983-9.955-7.39-15.339c63.855-40.044,136.649-64.399,210.026-79.783
				c73.599-14.785,148.341-22.607,223.491-17.066C3036.22,1546.145,3036.741,1561.463,3026.292,1562.891L3026.292,1562.891z"/>
		</g>
		<g>
			<path style="fill:#3B0372;" d="M2913.596,1968.625c-72.191-39.538-142.863-82.239-218.816-113.765
				c-25.032-10.151-50.322-18.894-76.873-26.06c-9.471-2.153-8.479-16.279,1.26-16.98c58.566-3.836,115.982,16.189,167.414,42.006
				c50.995,26.557,98.228,59.258,138.06,101.018C2931.512,1962.275,2922.341,1973.755,2913.596,1968.625L2913.596,1968.625z"/>
		</g>
		<g>
			<path style="fill:#3B0372;" d="M1113.235,3329.719l39.302-38.757c10.044-9.907,26.376,2.021,20.246,14.524
				c0,0-24.121,49.648-24.121,49.648C1131.647,3385.064,1090.333,3355.446,1113.235,3329.719L1113.235,3329.719z"/>
		</g>
		<g>
			<path style="fill:#3B0372;" d="M2476.021,3384.77H1174.312c-30.488-0.366-48.345-7.651-58.237-14.126
				c-8.945,0.151-17.271-0.762-24.829-2.471c-16.514-3.735-30.137-14.717-37.378-30.122c-7.251-15.425-7.017-32.939,0.645-48.062
				c21.724-42.866,74.16-66.699,111.86-78.784c-104.595-100.815-152.871-230.518-143.599-386.167
				c6.709-112.544,42.617-235.146,109.785-374.814c78.54-163.311,62.124-425.332,57.944-477.209
				c-22.91-18.899-88.706-79.412-129.971-180.752c-44.922-110.317-67.661-291.296,76.216-529.875
				c-93.105-253.076-105.498-394.348-39.077-444.177c62.798-47.09,181.538-3.25,373.359,138.037
				c280.444-101.646,565.488-101.633,847.583,0.017c191.816-141.287,310.605-185.149,373.384-138.054
				c66.421,49.829,54.033,191.101-39.072,444.177c143.877,238.579,121.133,419.558,76.216,529.875
				c-41.265,101.34-107.065,161.853-129.976,180.752c-4.185,51.877-20.596,313.899,57.944,477.209
				c67.168,139.668,103.076,262.271,109.785,374.814c9.272,155.649-39.004,285.352-143.599,386.167
				c37.7,12.085,90.137,35.918,111.86,78.784c7.661,15.122,7.9,32.642,0.645,48.066c-7.241,15.4-20.864,26.382-37.373,30.117
				c-7.563,1.704-15.718,2.593-24.824,2.471c-9.868,6.475-27.666,13.755-57.983,14.126H2476.021z M1139.957,3334.13
				c2.637,1.704,12.31,6.768,34.619,7.036h1440.781c22.08-0.269,31.719-5.327,34.351-7.031c4.053-6.729,9.932-7.896,18.076-7.334
				c8.081,0.562,15.161,0.166,21.021-1.157c4.526-1.025,6.67-4.292,7.539-6.143c0.879-1.87,2.036-5.625-0.083-9.805
				c-20.225-39.917-94.785-61.211-121.807-66.045c-8.359-1.494-15.098-7.71-17.256-15.918c-2.158-8.213,0.635-16.934,7.173-22.344
				c193.438-160.063,211.416-407.783,53.442-736.27c-92.412-192.163-62.544-496.733-61.23-509.604
				c0.63-6.16,3.848-11.758,8.853-15.403c0.762-0.557,79.595-59.341,124.116-170.261c59.575-148.43,32.9-315.874-79.292-497.676
				c-3.53-5.723-4.224-12.749-1.88-19.05c113.13-304.177,84.556-383.704,57.451-404.038
				c-25.186-18.899-101.66-25.188-330.659,145.171c-5.918,4.407-13.672,5.503-20.576,2.954
				c-279.39-103.352-561.831-103.352-839.482-0.015c-6.904,2.578-14.678,1.479-20.615-2.939
				c-229.004-170.364-305.449-164.07-330.659-145.171c-27.104,20.334-55.679,99.861,57.456,404.038
				c2.344,6.299,1.65,13.328-1.88,19.05c-112.192,181.802-138.867,349.246-79.292,497.676
				c44.517,110.921,123.35,169.705,124.141,170.286c4.971,3.645,8.193,9.248,8.823,15.378
				c1.314,12.871,31.182,317.441-61.23,509.604c-157.974,328.486-139.995,576.206,53.438,736.27
				c6.548,5.415,9.351,14.146,7.183,22.358c-2.168,8.218-8.911,14.424-17.28,15.908c-27.002,4.829-101.563,26.123-121.787,66.04
				c-2.119,4.18-0.962,7.935-0.083,9.8c0.874,1.855,3.013,5.122,7.544,6.147c5.854,1.328,12.915,1.714,21.016,1.157
				C1130.079,3326.249,1135.899,3327.411,1139.957,3334.13z M2649.21,3335.004L2649.21,3335.004L2649.21,3335.004z
				 M1140.455,3334.999c0,0,0,0,0.005,0.005L1140.455,3334.999z"/>
		</g>
		<g>
			<path style="fill:#3B0372;" d="M2641.008,3355.134l-24.121-49.648c-6.165-12.691,10.369-24.34,20.247-14.523
				c0,0,39.304,38.757,39.304,38.757C2699.39,3355.333,2657.927,3385.092,2641.008,3355.134L2641.008,3355.134z"/>
		</g>
		<g>
			<path style="fill:#FFFFFF;" d="M1723.006,2604.548c0,0-30.086,410.258-36.724,511.708
				c-10.852,164.675-33.914,205.759-33.914,205.759c-20.154,56.926-158.91,40.938-158.91,40.938
				c-30.328,6.396-60.172,7.073-89.338,0c-20.057,3.101-43.845,2.422-69.329,0c-39.679-34.785,21.511-100.724,57.75-160.944
				c15.503-25.823,22.577-55.861,20.203-85.898c-14.631-184.345-47.188-525.274-47.188-525.274
				C1372.856,2400.518,1730.306,2414.229,1723.006,2604.548z"/>
		</g>
		<g>
			<path style="fill:#3B0372;" d="M1375.186,2589.919c28.427,163.518,44.1,332.222,56.913,497.795c0.001,0,2.23,24.949,2.23,24.949
				c2.625,28.323-2.459,58.04-14.39,83.987c-15.155,31.257-37.134,58.115-54.741,87.019c-9.421,16.454-31.545,49.262-16.029,62.907
				c0.018,0.019-12.316-5.32-12.313-5.315c22.141,2.061,44.316,3.076,63.931,0.156c2.86-0.447,5.798-0.276,8.452,0.361
				c25.587,6.275,52.84,5.556,79.814-0.161c8.943-1.107,17.668,1.164,27.065,1.157c20.204,0.924,41.231,0.534,60.947-2.165
				c19.832-3.503,46-7.427,54.771-25.885c10.975-24.763,15.861-55.301,20.576-83.475c19.954-146.022,20.01-301.737,36.656-448.081
				c6.354-59.912,13.609-119.761,24.283-179.344c0.95-5.295,6.011-8.821,11.306-7.871c4.607,0.825,7.871,4.761,8.022,9.255
				c2.77,90.673-0.748,180.782-6.206,271.089c-3.281,51.728-10.113,127.431-13.986,179.985
				c-5.644,72.185-9.441,157.071-25.541,227.488c-3.745,15.9-7.747,32.313-14.731,47.336c0,0-0.821,1.57-0.821,1.57l1.538-3.389
				c-3.711,10.608-10.571,19.919-18.181,26.628c-42.01,35.019-112.509,32.686-163.779,28.71c0-0.001,6.977-0.326,6.977-0.326
				c-15.916,3.343-32.353,5.374-49.041,5.503c-16.653,0.144-33.54-1.658-49.951-5.649l8.452,0.361
				c-25.638,3.77-50.334,2.367-75.41,0.086c-16.298-2.37-28.348-24.094-30.921-39.111c-4.982-32.158,12.801-60.738,27.073-84.82
				c23.74-40.431,59.549-75.455,62.821-123.071c1.213-12.764-1.162-33.33-2.367-46.395
				c-16.875-165.116-31.55-333.501-32.711-499.443C1355.83,2580.519,1372.697,2577.663,1375.186,2589.919L1375.186,2589.919z"/>
		</g>
		<g>
			<path style="fill:#FFFFFF;" d="M2454.862,3362.953c-25.484,2.422-49.223,3.101-69.281,0c-29.166,7.073-59.058,6.396-89.386,0
				c0,0-138.707,15.988-158.91-40.938c0,0-23.061-41.084-33.865-205.759c-6.686-101.45-36.772-511.708-36.772-511.708
				c-7.355-191.788,350.143-205.499,357.498-13.711c0,0-32.557,340.929-47.237,525.274c-2.374,30.038,4.699,60.075,20.251,85.898
				C2433.351,3262.229,2494.541,3328.168,2454.862,3362.953z"/>
		</g>
		<g>
			<path style="fill:#3B0372;" d="M2433.774,2591.763c-1.159,165.88-15.825,334.364-32.713,499.443
				c0.001,0-2.252,24.915-2.252,24.915c-1.962,21.545,1.662,42.819,10.579,62.402c22.348,44.742,60.283,82.031,76.516,132.353
				c4.95,15.173,5.678,37.973-4.237,53.528c-5.821,9.069-13.084,18.896-23.986,20.198c-12.204,1.159-24.52,2.022-37.173,2.199
				c-12.395,0.154-25.085-0.3-38.247-2.285l8.45-0.361c-32.428,7.978-66.769,7.003-98.992,0.146c0,0,6.978,0.325,6.978,0.325
				c-47.489,3.695-94.375,5-139.844-13.587c-17.746-7.756-35.285-21.784-42.116-41.75c0,0,1.538,3.389,1.538,3.389l-0.82-1.57
				c-6.984-15.024-10.986-31.436-14.732-47.336c-16.078-70.224-20.022-155.511-25.54-227.488
				c-3.729-52.67-10.641-127.933-13.986-179.984c-5.456-90.306-8.981-180.413-6.205-271.085c0.184-5.378,4.69-9.59,10.066-9.407
				c4.678,0.159,8.469,3.591,9.26,8.018c10.674,59.583,17.932,119.431,24.285,179.343c16.639,146.3,16.7,302.093,36.654,448.081
				c4.71,28.167,9.6,58.73,20.577,83.474c2.953,7.802,10.495,12.74,18.89,16.54c10.217,4.631,22.92,7.5,35.881,9.346
				c19.718,2.699,40.741,3.088,60.95,2.166c9.285,0.013,18.179-2.263,26.96-1.185c26.997,5.751,54.301,6.467,79.917,0.189
				c2.857-0.698,5.705-0.802,8.452-0.361c19.614,2.92,41.79,1.904,63.933-0.156l-12.319,5.32c3.198-3.093,4.545-5.24,5.154-8.679
				c1.292-18.413-10.821-36.399-21.178-54.234c-27.432-44.252-66.437-87.384-69.23-142.488c-1.642-16.336,0.894-37.245,2.328-53.467
				c12.81-165.609,28.481-334.216,56.914-497.795C2416.319,2579.063,2433.59,2579.032,2433.774,2591.763L2433.774,2591.763z"/>
		</g>
		<g style="opacity:0.1;">
			<g>
				<path style="fill:#3B0372;" d="M1052.921,2732.644c2.665-7.219,5.378-14.098,8.139-20.687
					c-8.091,36.336-13.905,73.787-16.327,111.576C1045.751,2794.609,1048.464,2764.281,1052.921,2732.644z"/>
			</g>
		</g>
		<g style="opacity:0.1;">
			<g>
				<path style="fill:#3B0372;" d="M1372.145,3206.031c11.87-28.391,23.207-53.245,30.861-69.62l-10.465,44.572L1372.145,3206.031z"
					/>
			</g>
		</g>
		<g style="opacity:0.1;">
			<g>
				<path style="fill:#3B0372;" d="M1412.745,3095.084l-1.357,5.669l-25.144-288.266c0,0-1.696-10.174-4.409-28.003
					c1.453,2.325,2.955,4.651,4.409,6.976L1412.745,3095.084z"/>
			</g>
		</g>
		<g style="opacity:0.1;">
			<g>
				<path style="fill:#3B0372;" d="M2405.59,2789.377c-1.066,7.073-1.938,12.693-2.568,16.617l1.26-14.534
					C2404.718,2790.782,2405.154,2790.055,2405.59,2789.377z"/>
			</g>
		</g>
		<g style="opacity:0.1;">
			<g>
				<path style="fill:#3B0372;" d="M2389.893,3146.585c6.637,14.34,14.874,32.847,23.594,53.438l-15.503-19.04L2389.893,3146.585z"
					/>
			</g>
		</g>
		<g style="opacity:0.1;">
			<g>
				<path style="fill:#3B0372;" d="M2731.597,2979.1c22.044-92.875,14.098-189.335-7.122-278.722
					c4.457,9.981,8.818,20.736,13.129,32.267C2750.879,2826.828,2748.748,2908.898,2731.597,2979.1z"/>
			</g>
		</g>
		<g>
			<g>
				<g>
					<ellipse style="fill:#3B0372;" cx="2236.416" cy="1597.184" rx="72.963" ry="84.258"/>
				</g>
			</g>
			<g>
				<g>
					<ellipse style="fill:#FFFFFF;" cx="2216.594" cy="1572.815" rx="23.789" ry="30.115"/>
				</g>
			</g>
			<g style="opacity:0.2;">
				<g>
					<ellipse style="fill:#FFFFFF;" cx="2263.623" cy="1625.575" rx="13.175" ry="20.381"/>
				</g>
			</g>
		</g>
		<g>
			<g>
				<g>
					<ellipse style="fill:#3B0372;" cx="1540.474" cy="1597.184" rx="72.963" ry="84.258"/>
				</g>
			</g>
			<g>
				<g>
					<ellipse style="fill:#FFFFFF;" cx="1560.295" cy="1572.815" rx="23.789" ry="30.115"/>
				</g>
			</g>
			<g style="opacity:0.2;">
				<g>
					<ellipse style="fill:#FFFFFF;" cx="1513.266" cy="1625.575" rx="13.175" ry="20.381"/>
				</g>
			</g>
		</g>
		<g style="opacity:0.6;">
			<g>
				<ellipse style="fill:#FFFFFF;" cx="1894.779" cy="1547.575" rx="45.768" ry="9.69"/>
			</g>
		</g>
		<g>
			<path style="fill:#3B0372;" d="M2341.057,1510.374c-46.845,15.794-106.027,29.96-153.718,43.602
				c0-0.001-51.321,14.394-51.321,14.394c-3.972,1.118-8.098-1.194-9.216-5.166c-0.815-2.888,0.2-5.867,2.334-7.703
				c14.431-12.346,30.891-21.699,47.793-29.568c33.844-15.536,70.086-24.799,106.895-29.277c18.389-2.051,36.758-3.039,55.625-1.33
				c4.246,0.386,7.373,4.136,6.987,8.379C2346.146,1506.905,2343.944,1509.467,2341.057,1510.374L2341.057,1510.374z"/>
		</g>
	</g>
</g>
</svg>
